<ttFont>
    <TTGlyph name=".notdef" xMin="213" yMin="0" xMax="1835" yMax="2904">
      <contour>
        <pt x="213" y="0" on="1"/>
        <pt x="213" y="2904" on="1"/>
        <pt x="1835" y="2904" on="1"/>
        <pt x="1835" y="0" on="1"/>
      </contour>
      <contour>
        <pt x="733" y="2404" on="1"/>
        <pt x="1057" y="2441" on="1"/>
        <pt x="1148" y="2441" on="0"/>
        <pt x="1278" y="2329" on="0"/>
        <pt x="1278" y="2155" on="0"/>
        <pt x="1207" y="1988" on="0"/>
        <pt x="1093" y="1837" on="0"/>
        <pt x="954" y="1680" on="0"/>
        <pt x="816" y="1525" on="0"/>
        <pt x="759" y="1450" on="1"/>
        <pt x="631" y="1280" on="0"/>
        <pt x="631" y="1135" on="1"/>
        <pt x="631" y="910" on="0"/>
        <pt x="750" y="780" on="1"/>
        <pt x="811" y="713" on="0"/>
        <pt x="905" y="713" on="0"/>
        <pt x="905" y="758" on="1"/>
        <pt x="905" y="783" on="0"/>
        <pt x="877" y="814" on="1"/>
        <pt x="823" y="875" on="0"/>
        <pt x="823" y="1073" on="0"/>
        <pt x="900" y="1225" on="0"/>
        <pt x="1024" y="1374" on="0"/>
        <pt x="1174" y="1531" on="0"/>
        <pt x="1323" y="1683" on="0"/>
        <pt x="1385" y="1752" on="1"/>
        <pt x="1524" y="1907" on="0"/>
        <pt x="1524" y="2090" on="0"/>
        <pt x="1464" y="2270" on="0"/>
        <pt x="1366" y="2416" on="0"/>
        <pt x="1242" y="2544" on="0"/>
        <pt x="1178" y="2587" on="1"/>
        <pt x="1040" y="2679" on="0"/>
        <pt x="889" y="2679" on="0"/>
        <pt x="785" y="2624" on="0"/>
        <pt x="753" y="2585" on="1"/>
        <pt x="684" y="2501" on="0"/>
        <pt x="684" y="2422" on="0"/>
        <pt x="705" y="2404" on="0"/>
      </contour>
      <contour>
        <pt x="816" y="487" on="0"/>
        <pt x="692" y="363" on="0"/>
        <pt x="692" y="273" on="0"/>
        <pt x="796" y="131" on="0"/>
        <pt x="885" y="131" on="0"/>
        <pt x="1008" y="269" on="0"/>
        <pt x="1008" y="351" on="0"/>
        <pt x="902" y="487" on="0"/>
      </contour>
    </TTGlyph>
    <TTGlyph name="A" xMin="82" yMin="0" xMax="2560" yMax="2798">
      <contour>
        <pt x="82" y="0" on="1"/>
        <pt x="82" y="131" on="1"/>
        <pt x="147" y="131" on="1"/>
        <pt x="233" y="131" on="0"/>
        <pt x="270" y="158" on="1"/>
        <pt x="329" y="199" on="0"/>
        <pt x="397" y="348" on="1"/>
        <pt x="1548" y="2798" on="1"/>
        <pt x="1622" y="2798" on="1"/>
        <pt x="2200" y="471" on="1"/>
        <pt x="2261" y="229" on="0"/>
        <pt x="2307" y="159" on="0"/>
        <pt x="2332" y="146" on="1"/>
        <pt x="2361" y="131" on="0"/>
        <pt x="2441" y="131" on="1"/>
        <pt x="2560" y="131" on="1"/>
        <pt x="2560" y="0" on="1"/>
        <pt x="1606" y="0" on="1"/>
        <pt x="1606" y="131" on="1"/>
        <pt x="1724" y="131" on="1"/>
        <pt x="1849" y="131" on="0"/>
        <pt x="1933" y="157" on="0"/>
        <pt x="1933" y="238" on="0"/>
        <pt x="1921" y="287" on="1"/>
        <pt x="1741" y="1053" on="1"/>
        <pt x="926" y="1053" on="1"/>
        <pt x="606" y="360" on="1"/>
        <pt x="549" y="232" on="0"/>
        <pt x="549" y="201" on="1"/>
        <pt x="549" y="157" on="0"/>
        <pt x="651" y="131" on="0"/>
        <pt x="807" y="131" on="1"/>
        <pt x="885" y="131" on="1"/>
        <pt x="877" y="0" on="1"/>
      </contour>
      <contour>
        <pt x="991" y="1212" on="1"/>
        <pt x="1704" y="1212" on="1"/>
        <pt x="1446" y="2245" on="1"/>
      </contour>
    </TTGlyph>
    <TTGlyph name="A.001" xMin="57" yMin="-78" xMax="3207" yMax="2798">
      <contour>
        <pt x="315" y="336" on="1"/>
        <pt x="303" y="246" on="1"/>
        <pt x="303" y="197" on="0"/>
        <pt x="393" y="131" on="0"/>
        <pt x="629" y="131" on="0"/>
        <pt x="926" y="336" on="0"/>
        <pt x="1192" y="680" on="0"/>
        <pt x="1466" y="1152" on="0"/>
        <pt x="1678" y="1587" on="0"/>
        <pt x="1904" y="2112" on="0"/>
        <pt x="1967" y="2273" on="1"/>
        <pt x="2167" y="2784" on="0"/>
        <pt x="2167" y="2798" on="1"/>
        <pt x="2241" y="2798" on="1"/>
        <pt x="2839" y="471" on="1"/>
        <pt x="2854" y="414" on="0"/>
        <pt x="2871" y="347" on="0"/>
        <pt x="2895" y="270" on="0"/>
        <pt x="2907" y="231" on="0"/>
        <pt x="2930" y="185" on="0"/>
        <pt x="2943" y="167" on="0"/>
        <pt x="2970" y="144" on="0"/>
        <pt x="2988" y="138" on="0"/>
        <pt x="3025" y="131" on="0"/>
        <pt x="3040" y="131" on="1"/>
        <pt x="3207" y="131" on="1"/>
        <pt x="3203" y="0" on="1"/>
        <pt x="2253" y="0" on="1"/>
        <pt x="2261" y="131" on="1"/>
        <pt x="2413" y="131" on="1"/>
        <pt x="2540" y="131" on="0"/>
        <pt x="2555" y="143" on="1"/>
        <pt x="2585" y="167" on="0"/>
        <pt x="2585" y="233" on="0"/>
        <pt x="2572" y="287" on="1"/>
        <pt x="2380" y="1069" on="1"/>
        <pt x="1577" y="1069" on="1"/>
        <pt x="1561" y="1038" on="0"/>
        <pt x="1478" y="876" on="0"/>
        <pt x="1420" y="766" on="0"/>
        <pt x="1318" y="586" on="0"/>
        <pt x="1233" y="456" on="0"/>
        <pt x="1108" y="288" on="0"/>
        <pt x="994" y="170" on="0"/>
        <pt x="846" y="46" on="0"/>
        <pt x="774" y="8" on="1"/>
        <pt x="609" y="-78" on="0"/>
        <pt x="282" y="-78" on="0"/>
        <pt x="57" y="74" on="0"/>
        <pt x="57" y="276" on="0"/>
        <pt x="170" y="377" on="0"/>
        <pt x="220" y="377" on="1"/>
        <pt x="315" y="377" on="0"/>
      </contour>
      <contour>
        <pt x="1638" y="1196" on="1"/>
        <pt x="2347" y="1196" on="1"/>
        <pt x="2089" y="2281" on="1"/>
        <pt x="2020" y="2082" on="0"/>
        <pt x="1922" y="1841" on="0"/>
        <pt x="1878" y="1730" on="0"/>
        <pt x="1784" y="1520" on="0"/>
        <pt x="1756" y="1457" on="0"/>
        <pt x="1645" y="1213" on="0"/>
      </contour>
    </TTGlyph>
    <TTGlyph name="AE" xMin="41" yMin="0" xMax="3736" yMax="2732">
      <contour>
        <pt x="2778" y="2599" on="1"/>
        <pt x="2642" y="2601" on="1"/>
        <pt x="2574" y="2601" on="0"/>
        <pt x="2534" y="2582" on="0"/>
        <pt x="2531" y="2544" on="1"/>
        <pt x="2449" y="1630" on="1"/>
        <pt x="3187" y="1630" on="1"/>
        <pt x="3273" y="1630" on="0"/>
        <pt x="3317" y="1664" on="0"/>
        <pt x="3326" y="1737" on="1"/>
        <pt x="3346" y="1937" on="1"/>
        <pt x="3437" y="1933" on="1"/>
        <pt x="3371" y="1094" on="1"/>
        <pt x="3273" y="1098" on="1"/>
        <pt x="3293" y="1374" on="0"/>
        <pt x="3293" y="1402" on="1"/>
        <pt x="3293" y="1470" on="0"/>
        <pt x="3166" y="1470" on="1"/>
        <pt x="2433" y="1470" on="1"/>
        <pt x="2339" y="381" on="1"/>
        <pt x="2331" y="275" on="0"/>
        <pt x="2331" y="210" on="0"/>
        <pt x="2368" y="188" on="0"/>
        <pt x="2429" y="188" on="1"/>
        <pt x="2490" y="188" on="1"/>
        <pt x="3240" y="188" on="0"/>
        <pt x="3431" y="219" on="0"/>
        <pt x="3482" y="232" on="0"/>
        <pt x="3502" y="248" on="1"/>
        <pt x="3529" y="268" on="0"/>
        <pt x="3556" y="344" on="0"/>
        <pt x="3582" y="436" on="0"/>
        <pt x="3590" y="468" on="1"/>
        <pt x="3617" y="583" on="0"/>
        <pt x="3625" y="623" on="1"/>
        <pt x="3727" y="602" on="1"/>
        <pt x="3588" y="0" on="1"/>
        <pt x="1765" y="0" on="1"/>
        <pt x="1774" y="131" on="1"/>
        <pt x="1868" y="131" on="1"/>
        <pt x="1973" y="131" on="0"/>
        <pt x="1999" y="147" on="1"/>
        <pt x="2035" y="169" on="0"/>
        <pt x="2044" y="254" on="1"/>
        <pt x="2118" y="1053" on="1"/>
        <pt x="1180" y="1053" on="1"/>
        <pt x="639" y="360" on="1"/>
        <pt x="541" y="231" on="0"/>
        <pt x="541" y="201" on="1"/>
        <pt x="541" y="157" on="0"/>
        <pt x="643" y="131" on="0"/>
        <pt x="799" y="131" on="1"/>
        <pt x="877" y="131" on="1"/>
        <pt x="868" y="0" on="1"/>
        <pt x="41" y="0" on="1"/>
        <pt x="41" y="131" on="1"/>
        <pt x="106" y="131" on="1"/>
        <pt x="182" y="131" on="0"/>
        <pt x="298" y="227" on="0"/>
        <pt x="397" y="348" on="1"/>
        <pt x="2183" y="2507" on="1"/>
        <pt x="2216" y="2548" on="0"/>
        <pt x="2216" y="2568" on="1"/>
        <pt x="2216" y="2601" on="0"/>
        <pt x="2126" y="2601" on="1"/>
        <pt x="1901" y="2601" on="1"/>
        <pt x="1901" y="2732" on="1"/>
        <pt x="3736" y="2732" on="1"/>
        <pt x="3736" y="2236" on="1"/>
        <pt x="3645" y="2232" on="1"/>
        <pt x="3641" y="2445" on="1"/>
        <pt x="3639" y="2517" on="0"/>
        <pt x="3566" y="2562" on="0"/>
        <pt x="3463" y="2577" on="0"/>
        <pt x="3362" y="2584" on="1"/>
        <pt x="3219" y="2593" on="0"/>
      </contour>
      <contour>
        <pt x="1319" y="1212" on="1"/>
        <pt x="2130" y="1212" on="1"/>
        <pt x="2236" y="2351" on="1"/>
      </contour>
    </TTGlyph>
    <TTGlyph name="Aacute" xMin="82" yMin="0" xMax="2560" yMax="3564">
      <component glyphName="acutecomb.cap" x="2380" y="1004" flags="0x1004"/>
      <component glyphName="A" x="0" y="0" flags="0x1004"/>
    </TTGlyph>
    <TTGlyph name="Aacute.001" xMin="57" yMin="-78" xMax="3207" yMax="3564">
      <component glyphName="acutecomb.cap" x="2998" y="1004" flags="0x1004"/>
      <component glyphName="A.001" x="0" y="0" flags="0x1004"/>
    </TTGlyph>
    <TTGlyph name="Abreve" xMin="82" yMin="0" xMax="2560" yMax="3548">
      <component glyphName="uni0306.cap" x="2380" y="1004" flags="0x1004"/>
      <component glyphName="A" x="0" y="0" flags="0x1004"/>
    </TTGlyph>
    <TTGlyph name="Abreve.001" xMin="57" yMin="-78" xMax="3207" yMax="3548">
      <component glyphName="uni0306.cap" x="2998" y="1004" flags="0x1004"/>
      <component glyphName="A.001" x="0" y="0" flags="0x1004"/>
    </TTGlyph>
    <TTGlyph name="Acircumflex" xMin="82" yMin="0" xMax="2560" yMax="3548">
      <component glyphName="uni0302.cap" x="2380" y="1004" flags="0x1004"/>
      <component glyphName="A" x="0" y="0" flags="0x1004"/>
    </TTGlyph>
    <TTGlyph name="Acircumflex.001" xMin="57" yMin="-78" xMax="3207" yMax="3548">
      <component glyphName="uni0302.cap" x="2998" y="1004" flags="0x1004"/>
      <component glyphName="A.001" x="0" y="0" flags="0x1004"/>
    </TTGlyph>
    <TTGlyph name="Adieresis" xMin="82" yMin="0" xMax="2560" yMax="3498">
      <contour>
        <pt x="82" y="0" on="1"/>
        <pt x="82" y="131" on="1"/>
        <pt x="147" y="131" on="1"/>
        <pt x="233" y="131" on="0"/>
        <pt x="270" y="158" on="1"/>
        <pt x="329" y="199" on="0"/>
        <pt x="397" y="348" on="1"/>
        <pt x="1548" y="2798" on="1"/>
        <pt x="1622" y="2798" on="1"/>
        <pt x="2200" y="471" on="1"/>
        <pt x="2261" y="229" on="0"/>
        <pt x="2307" y="159" on="0"/>
        <pt x="2332" y="146" on="1"/>
        <pt x="2361" y="131" on="0"/>
        <pt x="2441" y="131" on="1"/>
        <pt x="2560" y="131" on="1"/>
        <pt x="2560" y="0" on="1"/>
        <pt x="1606" y="0" on="1"/>
        <pt x="1606" y="131" on="1"/>
        <pt x="1724" y="131" on="1"/>
        <pt x="1849" y="131" on="0"/>
        <pt x="1933" y="157" on="0"/>
        <pt x="1933" y="238" on="0"/>
        <pt x="1921" y="287" on="1"/>
        <pt x="1741" y="1053" on="1"/>
        <pt x="926" y="1053" on="1"/>
        <pt x="606" y="360" on="1"/>
        <pt x="549" y="232" on="0"/>
        <pt x="549" y="201" on="1"/>
        <pt x="549" y="157" on="0"/>
        <pt x="651" y="131" on="0"/>
        <pt x="807" y="131" on="1"/>
        <pt x="885" y="131" on="1"/>
        <pt x="877" y="0" on="1"/>
      </contour>
      <contour>
        <pt x="991" y="1212" on="1"/>
        <pt x="1704" y="1212" on="1"/>
        <pt x="1446" y="2245" on="1"/>
      </contour>
      <contour>
        <pt x="1241" y="3142" on="0"/>
        <pt x="1110" y="3276" on="0"/>
        <pt x="1110" y="3366" on="0"/>
        <pt x="1256" y="3498" on="0"/>
        <pt x="1341" y="3498" on="0"/>
        <pt x="1458" y="3354" on="0"/>
        <pt x="1458" y="3267" on="0"/>
        <pt x="1320" y="3142" on="0"/>
      </contour>
      <contour>
        <pt x="1844" y="3142" on="0"/>
        <pt x="1713" y="3276" on="0"/>
        <pt x="1713" y="3366" on="0"/>
        <pt x="1856" y="3498" on="0"/>
        <pt x="1940" y="3498" on="0"/>
        <pt x="2061" y="3353" on="0"/>
        <pt x="2061" y="3267" on="0"/>
        <pt x="1923" y="3142" on="0"/>
      </contour>
    </TTGlyph>
    <TTGlyph name="Adieresis.001" xMin="57" yMin="-78" xMax="3207" yMax="3498">
      <component glyphName="uni0308.cap" x="2998" y="1004" flags="0x1004"/>
      <component glyphName="A.001" x="0" y="0" flags="0x1004"/>
    </TTGlyph>
    <TTGlyph name="Agrave" xMin="82" yMin="0" xMax="2560" yMax="3564">
      <component glyphName="gravecomb.cap" x="2380" y="1004" flags="0x1004"/>
      <component glyphName="A" x="0" y="0" flags="0x1004"/>
    </TTGlyph>
    <TTGlyph name="Agrave.001" xMin="57" yMin="-78" xMax="3207" yMax="3564">
      <component glyphName="gravecomb.cap" x="2998" y="1004" flags="0x1004"/>
      <component glyphName="A.001" x="0" y="0" flags="0x1004"/>
    </TTGlyph>
    <TTGlyph name="Amacron" xMin="82" yMin="0" xMax="2560" yMax="3425">
      <component glyphName="uni0304.cap" x="2380" y="1004" flags="0x1004"/>
      <component glyphName="A" x="0" y="0" flags="0x1004"/>
    </TTGlyph>
    <TTGlyph name="Amacron.001" xMin="57" yMin="-78" xMax="3207" yMax="3425">
      <component glyphName="uni0304.cap" x="2998" y="1004" flags="0x1004"/>
      <component glyphName="A.001" x="0" y="0" flags="0x1004"/>
    </TTGlyph>
    <TTGlyph name="Aogonek" xMin="82" yMin="-1073" xMax="2560" yMax="2798">
      <contour>
        <pt x="1630" y="-598" on="1"/>
        <pt x="1630" y="-881" on="0"/>
        <pt x="1878" y="-881" on="1"/>
        <pt x="2013" y="-881" on="0"/>
        <pt x="2146" y="-758" on="1"/>
        <pt x="2183" y="-831" on="1"/>
        <pt x="2064" y="-980" on="0"/>
        <pt x="1863" y="-1047" on="1"/>
        <pt x="1785" y="-1073" on="0"/>
        <pt x="1708" y="-1073" on="1"/>
        <pt x="1531" y="-1073" on="0"/>
        <pt x="1343" y="-869" on="0"/>
        <pt x="1343" y="-627" on="0"/>
        <pt x="1410" y="-452" on="0"/>
        <pt x="1513" y="-314" on="0"/>
        <pt x="1645" y="-170" on="0"/>
        <pt x="1705" y="-114" on="1"/>
        <pt x="1852" y="22" on="0"/>
        <pt x="1925" y="146" on="0"/>
        <pt x="1925" y="266" on="0"/>
        <pt x="1909" y="340" on="1"/>
        <pt x="1741" y="1053" on="1"/>
        <pt x="926" y="1053" on="1"/>
        <pt x="606" y="360" on="1"/>
        <pt x="549" y="232" on="0"/>
        <pt x="549" y="201" on="1"/>
        <pt x="549" y="157" on="0"/>
        <pt x="651" y="131" on="0"/>
        <pt x="807" y="131" on="1"/>
        <pt x="885" y="131" on="1"/>
        <pt x="877" y="0" on="1"/>
        <pt x="82" y="0" on="1"/>
        <pt x="82" y="131" on="1"/>
        <pt x="147" y="131" on="1"/>
        <pt x="233" y="131" on="0"/>
        <pt x="270" y="158" on="1"/>
        <pt x="329" y="199" on="0"/>
        <pt x="397" y="348" on="1"/>
        <pt x="1548" y="2798" on="1"/>
        <pt x="1622" y="2798" on="1"/>
        <pt x="2200" y="471" on="1"/>
        <pt x="2261" y="229" on="0"/>
        <pt x="2307" y="159" on="0"/>
        <pt x="2332" y="146" on="1"/>
        <pt x="2361" y="131" on="0"/>
        <pt x="2441" y="131" on="1"/>
        <pt x="2560" y="131" on="1"/>
        <pt x="2560" y="0" on="1"/>
        <pt x="2167" y="0" on="1"/>
        <pt x="1923" y="0" on="0"/>
        <pt x="1736" y="-288" on="1"/>
        <pt x="1630" y="-452" on="0"/>
      </contour>
      <contour>
        <pt x="991" y="1212" on="1"/>
        <pt x="1704" y="1212" on="1"/>
        <pt x="1446" y="2245" on="1"/>
      </contour>
    </TTGlyph>
    <TTGlyph name="Aogonek.001" xMin="57" yMin="-1073" xMax="3207" yMax="2798">
      <contour>
        <pt x="2290" y="-598" on="1"/>
        <pt x="2290" y="-881" on="0"/>
        <pt x="2538" y="-881" on="1"/>
        <pt x="2673" y="-881" on="0"/>
        <pt x="2806" y="-758" on="1"/>
        <pt x="2843" y="-831" on="1"/>
        <pt x="2724" y="-980" on="0"/>
        <pt x="2522" y="-1047" on="1"/>
        <pt x="2444" y="-1073" on="0"/>
        <pt x="2367" y="-1073" on="1"/>
        <pt x="2191" y="-1073" on="0"/>
        <pt x="2003" y="-869" on="0"/>
        <pt x="2003" y="-611" on="0"/>
        <pt x="2095" y="-407" on="0"/>
        <pt x="2239" y="-239" on="0"/>
        <pt x="2313" y="-166" on="1"/>
        <pt x="2522" y="40" on="0"/>
        <pt x="2585" y="142" on="0"/>
        <pt x="2585" y="240" on="0"/>
        <pt x="2572" y="287" on="1"/>
        <pt x="2380" y="1069" on="1"/>
        <pt x="1577" y="1069" on="1"/>
        <pt x="1561" y="1038" on="0"/>
        <pt x="1478" y="876" on="0"/>
        <pt x="1420" y="766" on="0"/>
        <pt x="1318" y="586" on="0"/>
        <pt x="1233" y="456" on="0"/>
        <pt x="1108" y="288" on="0"/>
        <pt x="994" y="170" on="0"/>
        <pt x="846" y="46" on="0"/>
        <pt x="774" y="8" on="1"/>
        <pt x="609" y="-78" on="0"/>
        <pt x="282" y="-78" on="0"/>
        <pt x="57" y="74" on="0"/>
        <pt x="57" y="276" on="0"/>
        <pt x="170" y="377" on="0"/>
        <pt x="220" y="377" on="1"/>
        <pt x="315" y="377" on="0"/>
        <pt x="315" y="336" on="1"/>
        <pt x="303" y="246" on="1"/>
        <pt x="303" y="197" on="0"/>
        <pt x="393" y="131" on="0"/>
        <pt x="629" y="131" on="0"/>
        <pt x="926" y="336" on="0"/>
        <pt x="1192" y="680" on="0"/>
        <pt x="1466" y="1152" on="0"/>
        <pt x="1678" y="1587" on="0"/>
        <pt x="1904" y="2112" on="0"/>
        <pt x="1967" y="2273" on="1"/>
        <pt x="2167" y="2784" on="0"/>
        <pt x="2167" y="2798" on="1"/>
        <pt x="2241" y="2798" on="1"/>
        <pt x="2839" y="471" on="1"/>
        <pt x="2854" y="414" on="0"/>
        <pt x="2871" y="347" on="0"/>
        <pt x="2895" y="270" on="0"/>
        <pt x="2907" y="231" on="0"/>
        <pt x="2930" y="185" on="0"/>
        <pt x="2943" y="167" on="0"/>
        <pt x="2970" y="144" on="0"/>
        <pt x="2988" y="138" on="0"/>
        <pt x="3025" y="131" on="0"/>
        <pt x="3040" y="131" on="1"/>
        <pt x="3207" y="131" on="1"/>
        <pt x="3203" y="0" on="1"/>
        <pt x="2826" y="0" on="1"/>
        <pt x="2581" y="0" on="0"/>
        <pt x="2396" y="-288" on="1"/>
        <pt x="2290" y="-452" on="0"/>
      </contour>
      <contour>
        <pt x="1638" y="1196" on="1"/>
        <pt x="2347" y="1196" on="1"/>
        <pt x="2089" y="2281" on="1"/>
        <pt x="2020" y="2082" on="0"/>
        <pt x="1922" y="1841" on="0"/>
        <pt x="1878" y="1730" on="0"/>
        <pt x="1784" y="1520" on="0"/>
        <pt x="1756" y="1457" on="0"/>
        <pt x="1645" y="1213" on="0"/>
      </contour>
    </TTGlyph>
    <TTGlyph name="Aring" xMin="82" yMin="0" xMax="2560" yMax="3589">
      <component glyphName="uni030A.cap" x="2380" y="1004" flags="0x1004"/>
      <component glyphName="A" x="0" y="0" flags="0x1004"/>
    </TTGlyph>
    <TTGlyph name="Aring.001" xMin="57" yMin="-78" xMax="3207" yMax="3589">
      <component glyphName="uni030A.cap" x="2998" y="1004" flags="0x1004"/>
      <component glyphName="A.001" x="0" y="0" flags="0x1004"/>
    </TTGlyph>
    <TTGlyph name="Atilde" xMin="82" yMin="0" xMax="2560" yMax="3548">
      <component glyphName="tildecomb.cap" x="2380" y="1004" flags="0x1004"/>
      <component glyphName="A" x="0" y="0" flags="0x1004"/>
    </TTGlyph>
    <TTGlyph name="Atilde.001" xMin="57" yMin="-78" xMax="3207" yMax="3548">
      <component glyphName="tildecomb.cap" x="2998" y="1004" flags="0x1004"/>
      <component glyphName="A.001" x="0" y="0" flags="0x1004"/>
    </TTGlyph>
    <TTGlyph name="B" xMin="61" yMin="0" xMax="2093" yMax="2732">
      <contour>
        <pt x="61" y="0" on="1"/>
        <pt x="66" y="131" on="1"/>
        <pt x="197" y="131" on="1"/>
        <pt x="304" y="131" on="0"/>
        <pt x="359" y="169" on="0"/>
        <pt x="365" y="254" on="1"/>
        <pt x="447" y="1426" on="0"/>
        <pt x="524" y="2523" on="0"/>
        <pt x="524" y="2580" on="0"/>
        <pt x="452" y="2601" on="0"/>
        <pt x="324" y="2601" on="1"/>
        <pt x="143" y="2601" on="1"/>
        <pt x="143" y="2732" on="1"/>
        <pt x="1196" y="2732" on="1"/>
        <pt x="1795" y="2732" on="0"/>
        <pt x="1963" y="2352" on="1"/>
        <pt x="2011" y="2244" on="0"/>
        <pt x="2011" y="2037" on="0"/>
        <pt x="1971" y="1884" on="0"/>
        <pt x="1902" y="1774" on="0"/>
        <pt x="1814" y="1683" on="0"/>
        <pt x="1716" y="1625" on="0"/>
        <pt x="1618" y="1580" on="0"/>
        <pt x="1574" y="1568" on="1"/>
        <pt x="1492" y="1547" on="0"/>
        <pt x="1421" y="1540" on="1"/>
        <pt x="1620" y="1518" on="0"/>
        <pt x="1813" y="1388" on="1"/>
        <pt x="2093" y="1200" on="0"/>
        <pt x="2093" y="868" on="1"/>
        <pt x="2093" y="568" on="0"/>
        <pt x="1888" y="328" on="1"/>
        <pt x="1651" y="48" on="0"/>
        <pt x="1180" y="12" on="1"/>
        <pt x="1034" y="0" on="0"/>
        <pt x="823" y="0" on="1"/>
      </contour>
      <contour>
        <pt x="655" y="258" on="1"/>
        <pt x="655" y="194" on="0"/>
        <pt x="723" y="131" on="0"/>
        <pt x="954" y="131" on="0"/>
        <pt x="1193" y="172" on="0"/>
        <pt x="1366" y="239" on="0"/>
        <pt x="1508" y="336" on="0"/>
        <pt x="1600" y="437" on="0"/>
        <pt x="1669" y="556" on="0"/>
        <pt x="1705" y="656" on="0"/>
        <pt x="1716" y="710" on="1"/>
        <pt x="1733" y="795" on="0"/>
        <pt x="1733" y="1029" on="0"/>
        <pt x="1598" y="1266" on="0"/>
        <pt x="1464" y="1343" on="1"/>
        <pt x="1184" y="1503" on="0"/>
        <pt x="737" y="1503" on="1"/>
        <pt x="655" y="283" on="1"/>
      </contour>
      <contour>
        <pt x="745" y="1606" on="1"/>
        <pt x="851" y="1606" on="0"/>
        <pt x="1049" y="1593" on="1"/>
        <pt x="1098" y="1593" on="1"/>
        <pt x="1336" y="1593" on="0"/>
        <pt x="1508" y="1722" on="1"/>
        <pt x="1679" y="1852" on="0"/>
        <pt x="1679" y="2073" on="1"/>
        <pt x="1679" y="2630" on="0"/>
        <pt x="946" y="2630" on="1"/>
        <pt x="817" y="2630" on="0"/>
        <pt x="811" y="2544" on="1"/>
      </contour>
    </TTGlyph>
    <TTGlyph name="B.001" xMin="0" yMin="0" xMax="3187" yMax="2789">
      <contour>
        <pt x="156" y="2198" on="1"/>
        <pt x="501" y="2699" on="0"/>
        <pt x="1347" y="2772" on="1"/>
        <pt x="1550" y="2789" on="0"/>
        <pt x="1912" y="2789" on="0"/>
        <pt x="2095" y="2783" on="0"/>
        <pt x="2312" y="2766" on="0"/>
        <pt x="2490" y="2737" on="0"/>
        <pt x="2678" y="2686" on="0"/>
        <pt x="2823" y="2617" on="0"/>
        <pt x="2955" y="2518" on="0"/>
        <pt x="2998" y="2456" on="1"/>
        <pt x="3092" y="2322" on="0"/>
        <pt x="3092" y="2134" on="1"/>
        <pt x="3092" y="1888" on="0"/>
        <pt x="2934" y="1727" on="1"/>
        <pt x="2801" y="1591" on="0"/>
        <pt x="2559" y="1543" on="1"/>
        <pt x="2524" y="1536" on="0"/>
        <pt x="2482" y="1532" on="1"/>
        <pt x="2491" y="1531" on="0"/>
        <pt x="2522" y="1528" on="0"/>
        <pt x="2619" y="1510" on="0"/>
        <pt x="2712" y="1484" on="0"/>
        <pt x="2839" y="1432" on="0"/>
        <pt x="2948" y="1366" on="0"/>
        <pt x="3059" y="1263" on="0"/>
        <pt x="3098" y="1202" on="1"/>
        <pt x="3187" y="1064" on="0"/>
        <pt x="3187" y="761" on="0"/>
        <pt x="3118" y="536" on="0"/>
        <pt x="3053" y="430" on="1"/>
        <pt x="2830" y="69" on="0"/>
        <pt x="2336" y="18" on="1"/>
        <pt x="2166" y="0" on="0"/>
        <pt x="1913" y="0" on="1"/>
        <pt x="1081" y="0" on="1"/>
        <pt x="1090" y="131" on="1"/>
        <pt x="1294" y="131" on="1"/>
        <pt x="1401" y="131" on="0"/>
        <pt x="1456" y="169" on="0"/>
        <pt x="1462" y="254" on="1"/>
        <pt x="1552" y="1892" on="0"/>
        <pt x="1589" y="2527" on="0"/>
        <pt x="1589" y="2558" on="0"/>
        <pt x="1586" y="2587" on="0"/>
        <pt x="1572" y="2622" on="0"/>
        <pt x="1558" y="2630" on="1"/>
        <pt x="1523" y="2650" on="0"/>
        <pt x="1368" y="2650" on="0"/>
        <pt x="1166" y="2630" on="0"/>
        <pt x="901" y="2574" on="0"/>
        <pt x="653" y="2486" on="0"/>
        <pt x="408" y="2335" on="0"/>
        <pt x="318" y="2238" on="1"/>
        <pt x="115" y="2023" on="0"/>
        <pt x="115" y="1692" on="1"/>
        <pt x="115" y="1402" on="0"/>
        <pt x="334" y="1284" on="1"/>
        <pt x="450" y="1221" on="0"/>
        <pt x="701" y="1221" on="0"/>
        <pt x="878" y="1298" on="0"/>
        <pt x="932" y="1358" on="1"/>
        <pt x="1044" y="1482" on="0"/>
        <pt x="1044" y="1695" on="0"/>
        <pt x="966" y="1806" on="0"/>
        <pt x="864" y="1806" on="0"/>
        <pt x="812" y="1792" on="0"/>
        <pt x="786" y="1778" on="0"/>
        <pt x="778" y="1778" on="1"/>
        <pt x="730" y="1778" on="0"/>
        <pt x="766" y="1876" on="1"/>
        <pt x="806" y="1970" on="0"/>
        <pt x="1076" y="1970" on="0"/>
        <pt x="1229" y="1785" on="0"/>
        <pt x="1229" y="1518" on="0"/>
        <pt x="1116" y="1298" on="0"/>
        <pt x="1023" y="1226" on="1"/>
        <pt x="825" y="1073" on="0"/>
        <pt x="578" y="1073" on="1"/>
        <pt x="345" y="1073" on="0"/>
        <pt x="179" y="1221" on="1"/>
        <pt x="0" y="1380" on="0"/>
        <pt x="0" y="1970" on="0"/>
      </contour>
      <contour>
        <pt x="1741" y="258" on="1"/>
        <pt x="1741" y="194" on="0"/>
        <pt x="1809" y="131" on="0"/>
        <pt x="1901" y="131" on="1"/>
        <pt x="2036" y="131" on="1"/>
        <pt x="2634" y="131" on="0"/>
        <pt x="2781" y="570" on="1"/>
        <pt x="2826" y="705" on="0"/>
        <pt x="2826" y="979" on="0"/>
        <pt x="2757" y="1168" on="0"/>
        <pt x="2642" y="1298" on="0"/>
        <pt x="2476" y="1397" on="0"/>
        <pt x="2300" y="1455" on="0"/>
        <pt x="2194" y="1473" on="1"/>
        <pt x="2017" y="1503" on="0"/>
        <pt x="1802" y="1503" on="1"/>
        <pt x="1741" y="283" on="1"/>
      </contour>
      <contour>
        <pt x="2138" y="1593" on="1"/>
        <pt x="2187" y="1589" on="1"/>
        <pt x="2466" y="1589" on="0"/>
        <pt x="2628" y="1740" on="1"/>
        <pt x="2761" y="1864" on="0"/>
        <pt x="2761" y="2085" on="1"/>
        <pt x="2761" y="2442" on="0"/>
        <pt x="2408" y="2584" on="1"/>
        <pt x="2226" y="2658" on="0"/>
        <pt x="1999" y="2658" on="1"/>
        <pt x="1928" y="2658" on="0"/>
        <pt x="1867" y="2615" on="0"/>
        <pt x="1864" y="2544" on="1"/>
        <pt x="1815" y="1606" on="1"/>
        <pt x="1940" y="1606" on="0"/>
      </contour>
    </TTGlyph>
    <TTGlyph name="C" xMin="184" yMin="-45" xMax="2519" yMax="2793">
      <contour>
        <pt x="184" y="1149" on="1"/>
        <pt x="184" y="1319" on="0"/>
        <pt x="229" y="1607" on="0"/>
        <pt x="318" y="1890" on="0"/>
        <pt x="456" y="2152" on="0"/>
        <pt x="634" y="2385" on="0"/>
        <pt x="867" y="2577" on="0"/>
        <pt x="1002" y="2646" on="1"/>
        <pt x="1285" y="2793" on="0"/>
        <pt x="1647" y="2793" on="1"/>
        <pt x="1878" y="2793" on="0"/>
        <pt x="2282" y="2674" on="0"/>
        <pt x="2519" y="2476" on="0"/>
        <pt x="2519" y="2363" on="1"/>
        <pt x="2519" y="2319" on="0"/>
        <pt x="2492" y="2242" on="1"/>
        <pt x="2441" y="2093" on="0"/>
        <pt x="2367" y="2093" on="1"/>
        <pt x="2302" y="2093" on="0"/>
        <pt x="2271" y="2226" on="1"/>
        <pt x="2250" y="2318" on="0"/>
        <pt x="2223" y="2412" on="0"/>
        <pt x="2136" y="2509" on="0"/>
        <pt x="2065" y="2556" on="1"/>
        <pt x="1902" y="2662" on="0"/>
        <pt x="1642" y="2662" on="1"/>
        <pt x="1368" y="2662" on="0"/>
        <pt x="1105" y="2500" on="1"/>
        <pt x="850" y="2344" on="0"/>
        <pt x="683" y="2038" on="1"/>
        <pt x="512" y="1724" on="0"/>
        <pt x="512" y="1307" on="1"/>
        <pt x="512" y="1038" on="0"/>
        <pt x="663" y="581" on="0"/>
        <pt x="792" y="426" on="1"/>
        <pt x="1068" y="98" on="0"/>
        <pt x="1466" y="98" on="1"/>
        <pt x="1753" y="98" on="0"/>
        <pt x="2007" y="258" on="1"/>
        <pt x="2145" y="346" on="0"/>
        <pt x="2224" y="444" on="0"/>
        <pt x="2303" y="621" on="0"/>
        <pt x="2306" y="627" on="1"/>
        <pt x="2396" y="627" on="1"/>
        <pt x="2372" y="495" on="0"/>
        <pt x="2322" y="262" on="1"/>
        <pt x="2313" y="224" on="0"/>
        <pt x="2260" y="175" on="0"/>
        <pt x="2152" y="115" on="1"/>
        <pt x="1862" y="-45" on="0"/>
        <pt x="1442" y="-45" on="1"/>
        <pt x="691" y="-45" on="0"/>
        <pt x="370" y="470" on="1"/>
        <pt x="184" y="768" on="0"/>
      </contour>
    </TTGlyph>
    <TTGlyph name="C.001" xMin="184" yMin="-1065" xMax="2830" yMax="2892">
      <contour>
        <pt x="184" y="627" on="1"/>
        <pt x="184" y="1165" on="0"/>
        <pt x="487" y="2039" on="0"/>
        <pt x="758" y="2351" on="1"/>
        <pt x="1223" y="2892" on="0"/>
        <pt x="1892" y="2892" on="1"/>
        <pt x="2276" y="2892" on="0"/>
        <pt x="2548" y="2671" on="1"/>
        <pt x="2830" y="2443" on="0"/>
        <pt x="2830" y="2109" on="1"/>
        <pt x="2830" y="1665" on="0"/>
        <pt x="2499" y="1458" on="1"/>
        <pt x="2314" y="1343" on="0"/>
        <pt x="2085" y="1343" on="1"/>
        <pt x="1870" y="1343" on="0"/>
        <pt x="1716" y="1448" on="1"/>
        <pt x="1556" y="1556" on="0"/>
        <pt x="1556" y="1737" on="1"/>
        <pt x="1556" y="1788" on="0"/>
        <pt x="1606" y="1890" on="0"/>
        <pt x="1636" y="1904" on="1"/>
        <pt x="1704" y="1935" on="0"/>
        <pt x="1704" y="1876" on="1"/>
        <pt x="1704" y="1872" on="0"/>
        <pt x="1675" y="1810" on="0"/>
        <pt x="1675" y="1769" on="1"/>
        <pt x="1675" y="1671" on="0"/>
        <pt x="1862" y="1552" on="0"/>
        <pt x="2079" y="1552" on="0"/>
        <pt x="2237" y="1595" on="0"/>
        <pt x="2387" y="1691" on="0"/>
        <pt x="2444" y="1760" on="1"/>
        <pt x="2572" y="1915" on="0"/>
        <pt x="2572" y="2167" on="1"/>
        <pt x="2572" y="2427" on="0"/>
        <pt x="2366" y="2609" on="1"/>
        <pt x="2162" y="2789" on="0"/>
        <pt x="1880" y="2789" on="1"/>
        <pt x="1673" y="2789" on="0"/>
        <pt x="1434" y="2672" on="1"/>
        <pt x="1206" y="2559" on="0"/>
        <pt x="990" y="2312" on="1"/>
        <pt x="783" y="2076" on="0"/>
        <pt x="648" y="1704" on="1"/>
        <pt x="512" y="1327" on="0"/>
        <pt x="512" y="840" on="1"/>
        <pt x="512" y="211" on="0"/>
        <pt x="783" y="-236" on="1"/>
        <pt x="928" y="-476" on="0"/>
        <pt x="1166" y="-649" on="1"/>
        <pt x="1467" y="-868" on="0"/>
        <pt x="1806" y="-868" on="1"/>
        <pt x="2171" y="-868" on="0"/>
        <pt x="2416" y="-644" on="1"/>
        <pt x="2539" y="-532" on="0"/>
        <pt x="2591" y="-382" on="1"/>
        <pt x="2613" y="-319" on="0"/>
        <pt x="2613" y="-190" on="0"/>
        <pt x="2525" y="-90" on="0"/>
        <pt x="2440" y="-90" on="0"/>
        <pt x="2372" y="-123" on="0"/>
        <pt x="2363" y="-123" on="1"/>
        <pt x="2331" y="-123" on="0"/>
        <pt x="2331" y="-37" on="0"/>
        <pt x="2420" y="29" on="0"/>
        <pt x="2515" y="29" on="0"/>
        <pt x="2605" y="-9" on="0"/>
        <pt x="2644" y="-44" on="1"/>
        <pt x="2732" y="-123" on="0"/>
        <pt x="2732" y="-402" on="0"/>
        <pt x="2621" y="-651" on="0"/>
        <pt x="2422" y="-845" on="0"/>
        <pt x="2291" y="-917" on="1"/>
        <pt x="2022" y="-1065" on="0"/>
        <pt x="1679" y="-1065" on="1"/>
        <pt x="1269" y="-1065" on="0"/>
        <pt x="910" y="-858" on="1"/>
        <pt x="184" y="-442" on="0"/>
      </contour>
    </TTGlyph>
    <TTGlyph name="Cacute" xMin="184" yMin="-45" xMax="2519" yMax="3559">
      <component glyphName="acutecomb.cap" x="2454" y="999" flags="0x1004"/>
      <component glyphName="C" x="0" y="0" flags="0x1004"/>
    </TTGlyph>
    <TTGlyph name="Cacute.001" xMin="184" yMin="-1065" xMax="2830" yMax="3551">
      <component glyphName="acutecomb.cap" x="2695" y="991" flags="0x1004"/>
      <component glyphName="C.001" x="0" y="0" flags="0x1004"/>
    </TTGlyph>
    <TTGlyph name="Ccaron" xMin="184" yMin="-45" xMax="2519" yMax="3543">
      <component glyphName="uni030C.cap" x="2454" y="999" flags="0x1004"/>
      <component glyphName="C" x="0" y="0" flags="0x1004"/>
    </TTGlyph>
    <TTGlyph name="Ccaron.001" xMin="184" yMin="-1065" xMax="2830" yMax="3535">
      <component glyphName="uni030C.cap" x="2695" y="991" flags="0x1004"/>
      <component glyphName="C.001" x="0" y="0" flags="0x1004"/>
    </TTGlyph>
    <TTGlyph name="Ccedilla" xMin="184" yMin="-901" xMax="2519" yMax="2793">
      <contour>
        <pt x="1389" y="-270" on="1"/>
        <pt x="1454" y="-266" on="1"/>
        <pt x="1761" y="-266" on="0"/>
        <pt x="1844" y="-442" on="1"/>
        <pt x="1868" y="-491" on="0"/>
        <pt x="1868" y="-622" on="0"/>
        <pt x="1816" y="-739" on="0"/>
        <pt x="1730" y="-819" on="0"/>
        <pt x="1674" y="-847" on="1"/>
        <pt x="1565" y="-901" on="0"/>
        <pt x="1458" y="-901" on="1"/>
        <pt x="1274" y="-901" on="0"/>
        <pt x="1192" y="-848" on="1"/>
        <pt x="1278" y="-750" on="1"/>
        <pt x="1388" y="-791" on="0"/>
        <pt x="1550" y="-791" on="0"/>
        <pt x="1659" y="-672" on="0"/>
        <pt x="1659" y="-519" on="0"/>
        <pt x="1613" y="-446" on="0"/>
        <pt x="1573" y="-426" on="1"/>
        <pt x="1496" y="-389" on="0"/>
        <pt x="1344" y="-389" on="0"/>
        <pt x="1315" y="-393" on="1"/>
        <pt x="1274" y="-324" on="1"/>
        <pt x="1376" y="-45" on="1"/>
        <pt x="661" y="-22" on="0"/>
        <pt x="359" y="486" on="1"/>
        <pt x="184" y="779" on="0"/>
        <pt x="184" y="1176" on="1"/>
        <pt x="184" y="1796" on="0"/>
        <pt x="545" y="2268" on="1"/>
        <pt x="833" y="2645" on="0"/>
        <pt x="1301" y="2754" on="1"/>
        <pt x="1466" y="2793" on="0"/>
        <pt x="1878" y="2793" on="0"/>
        <pt x="2282" y="2674" on="0"/>
        <pt x="2519" y="2476" on="0"/>
        <pt x="2519" y="2363" on="1"/>
        <pt x="2519" y="2319" on="0"/>
        <pt x="2492" y="2242" on="1"/>
        <pt x="2441" y="2093" on="0"/>
        <pt x="2367" y="2093" on="1"/>
        <pt x="2302" y="2093" on="0"/>
        <pt x="2271" y="2226" on="1"/>
        <pt x="2250" y="2318" on="0"/>
        <pt x="2223" y="2412" on="0"/>
        <pt x="2136" y="2509" on="0"/>
        <pt x="2065" y="2556" on="1"/>
        <pt x="1902" y="2662" on="0"/>
        <pt x="1642" y="2662" on="1"/>
        <pt x="1368" y="2662" on="0"/>
        <pt x="1105" y="2500" on="1"/>
        <pt x="850" y="2344" on="0"/>
        <pt x="683" y="2038" on="1"/>
        <pt x="512" y="1724" on="0"/>
        <pt x="512" y="1307" on="1"/>
        <pt x="512" y="1038" on="0"/>
        <pt x="663" y="581" on="0"/>
        <pt x="792" y="426" on="1"/>
        <pt x="1068" y="98" on="0"/>
        <pt x="1466" y="98" on="1"/>
        <pt x="1753" y="98" on="0"/>
        <pt x="2007" y="258" on="1"/>
        <pt x="2145" y="346" on="0"/>
        <pt x="2224" y="444" on="0"/>
        <pt x="2303" y="621" on="0"/>
        <pt x="2306" y="627" on="1"/>
        <pt x="2396" y="627" on="1"/>
        <pt x="2372" y="495" on="0"/>
        <pt x="2322" y="262" on="1"/>
        <pt x="2313" y="224" on="0"/>
        <pt x="2260" y="175" on="0"/>
        <pt x="2155" y="116" on="1"/>
        <pt x="1878" y="-40" on="0"/>
        <pt x="1466" y="-45" on="1"/>
      </contour>
    </TTGlyph>
    <TTGlyph name="Ccircumflex" xMin="184" yMin="-45" xMax="2519" yMax="3543">
      <component glyphName="uni0302.cap" x="2454" y="999" flags="0x1004"/>
      <component glyphName="C" x="0" y="0" flags="0x1004"/>
    </TTGlyph>
    <TTGlyph name="Ccircumflex.001" xMin="184" yMin="-1065" xMax="2830" yMax="3535">
      <component glyphName="uni0302.cap" x="2695" y="991" flags="0x1004"/>
      <component glyphName="C.001" x="0" y="0" flags="0x1004"/>
    </TTGlyph>
    <TTGlyph name="Cdotaccent" xMin="184" yMin="-45" xMax="2519" yMax="3493">
      <component glyphName="uni0307.cap" x="2454" y="999" flags="0x1004"/>
      <component glyphName="C" x="0" y="0" flags="0x1004"/>
    </TTGlyph>
    <TTGlyph name="Cdotaccent.001" xMin="184" yMin="-1065" xMax="2830" yMax="3485">
      <component glyphName="uni0307.cap" x="2695" y="991" flags="0x1004"/>
      <component glyphName="C.001" x="0" y="0" flags="0x1004"/>
    </TTGlyph>
    <TTGlyph name="D" xMin="90" yMin="0" xMax="2781" yMax="2732">
      <contour>
        <pt x="90" y="0" on="1"/>
        <pt x="98" y="131" on="1"/>
        <pt x="172" y="131" on="1"/>
        <pt x="277" y="131" on="0"/>
        <pt x="326" y="168" on="0"/>
        <pt x="332" y="254" on="1"/>
        <pt x="439" y="1616" on="0"/>
        <pt x="474" y="2050" on="1"/>
        <pt x="512" y="2521" on="0"/>
        <pt x="512" y="2581" on="0"/>
        <pt x="452" y="2601" on="0"/>
        <pt x="328" y="2601" on="1"/>
        <pt x="156" y="2601" on="1"/>
        <pt x="164" y="2732" on="1"/>
        <pt x="1253" y="2732" on="1"/>
        <pt x="1826" y="2732" on="0"/>
        <pt x="2105" y="2624" on="1"/>
        <pt x="2258" y="2564" on="0"/>
        <pt x="2467" y="2390" on="0"/>
        <pt x="2564" y="2253" on="1"/>
        <pt x="2781" y="1944" on="0"/>
        <pt x="2781" y="1528" on="1"/>
        <pt x="2781" y="1238" on="0"/>
        <pt x="2668" y="954" on="1"/>
        <pt x="2498" y="522" on="0"/>
        <pt x="2122" y="261" on="1"/>
        <pt x="1746" y="0" on="0"/>
        <pt x="1151" y="0" on="1"/>
      </contour>
      <contour>
        <pt x="658" y="657" on="0"/>
        <pt x="635" y="320" on="0"/>
        <pt x="635" y="244" on="0"/>
        <pt x="639" y="207" on="0"/>
        <pt x="655" y="176" on="0"/>
        <pt x="671" y="157" on="0"/>
        <pt x="711" y="143" on="0"/>
        <pt x="745" y="136" on="0"/>
        <pt x="780" y="134" on="1"/>
        <pt x="834" y="131" on="0"/>
        <pt x="930" y="131" on="1"/>
        <pt x="1196" y="131" on="1"/>
        <pt x="1781" y="131" on="0"/>
        <pt x="2114" y="501" on="1"/>
        <pt x="2454" y="880" on="0"/>
        <pt x="2454" y="1470" on="1"/>
        <pt x="2454" y="1995" on="0"/>
        <pt x="2150" y="2305" on="1"/>
        <pt x="1858" y="2601" on="0"/>
        <pt x="1331" y="2601" on="1"/>
        <pt x="922" y="2601" on="1"/>
        <pt x="854" y="2601" on="0"/>
        <pt x="814" y="2582" on="0"/>
        <pt x="801" y="2422" on="0"/>
        <pt x="740" y="1683" on="0"/>
        <pt x="703" y="1234" on="0"/>
      </contour>
    </TTGlyph>
    <TTGlyph name="D.001" xMin="41" yMin="0" xMax="4174" yMax="2761">
      <contour>
        <pt x="1901" y="2499" on="1"/>
        <pt x="1901" y="2601" on="0"/>
        <pt x="1510" y="2601" on="0"/>
        <pt x="1108" y="2513" on="0"/>
        <pt x="798" y="2360" on="0"/>
        <pt x="536" y="2155" on="0"/>
        <pt x="355" y="1923" on="0"/>
        <pt x="292" y="1798" on="1"/>
        <pt x="168" y="1556" on="0"/>
        <pt x="168" y="1187" on="0"/>
        <pt x="249" y="944" on="0"/>
        <pt x="324" y="850" on="1"/>
        <pt x="487" y="647" on="0"/>
        <pt x="774" y="647" on="1"/>
        <pt x="1140" y="647" on="0"/>
        <pt x="1250" y="882" on="1"/>
        <pt x="1282" y="949" on="0"/>
        <pt x="1282" y="1099" on="0"/>
        <pt x="1200" y="1188" on="0"/>
        <pt x="1120" y="1188" on="0"/>
        <pt x="1062" y="1147" on="0"/>
        <pt x="1053" y="1147" on="1"/>
        <pt x="1028" y="1147" on="0"/>
        <pt x="1028" y="1277" on="0"/>
        <pt x="1132" y="1376" on="0"/>
        <pt x="1343" y="1376" on="0"/>
        <pt x="1516" y="1168" on="0"/>
        <pt x="1516" y="912" on="0"/>
        <pt x="1385" y="710" on="0"/>
        <pt x="1278" y="645" on="1"/>
        <pt x="1052" y="508" on="0"/>
        <pt x="770" y="508" on="1"/>
        <pt x="352" y="508" on="0"/>
        <pt x="155" y="866" on="1"/>
        <pt x="41" y="1073" on="0"/>
        <pt x="41" y="1339" on="1"/>
        <pt x="41" y="1599" on="0"/>
        <pt x="207" y="1917" on="1"/>
        <pt x="379" y="2247" on="0"/>
        <pt x="764" y="2480" on="1"/>
        <pt x="1035" y="2643" on="0"/>
        <pt x="1370" y="2698" on="1"/>
        <pt x="1701" y="2752" on="0"/>
        <pt x="2408" y="2761" on="0"/>
        <pt x="2935" y="2761" on="0"/>
        <pt x="3347" y="2704" on="0"/>
        <pt x="3651" y="2572" on="0"/>
        <pt x="3858" y="2392" on="0"/>
        <pt x="3957" y="2253" on="1"/>
        <pt x="4174" y="1944" on="0"/>
        <pt x="4174" y="1528" on="1"/>
        <pt x="4174" y="1238" on="0"/>
        <pt x="4062" y="954" on="1"/>
        <pt x="3891" y="522" on="0"/>
        <pt x="3514" y="261" on="1"/>
        <pt x="3139" y="0" on="0"/>
        <pt x="2544" y="0" on="1"/>
        <pt x="1380" y="0" on="1"/>
        <pt x="1389" y="131" on="1"/>
        <pt x="1573" y="131" on="1"/>
        <pt x="1680" y="131" on="0"/>
        <pt x="1735" y="169" on="0"/>
        <pt x="1741" y="254" on="1"/>
        <pt x="1884" y="2310" on="1"/>
        <pt x="1886" y="2337" on="0"/>
        <pt x="1889" y="2384" on="0"/>
        <pt x="1892" y="2418" on="0"/>
        <pt x="1894" y="2446" on="0"/>
        <pt x="1896" y="2465" on="0"/>
        <pt x="1898" y="2479" on="0"/>
        <pt x="1899" y="2487" on="0"/>
        <pt x="1900" y="2493" on="0"/>
        <pt x="1901" y="2496" on="0"/>
        <pt x="1901" y="2498" on="0"/>
      </contour>
      <contour>
        <pt x="2052" y="573" on="1"/>
        <pt x="2036" y="295" on="0"/>
        <pt x="2036" y="247" on="0"/>
        <pt x="2040" y="209" on="0"/>
        <pt x="2056" y="177" on="0"/>
        <pt x="2072" y="158" on="0"/>
        <pt x="2113" y="143" on="0"/>
        <pt x="2147" y="136" on="0"/>
        <pt x="2184" y="134" on="1"/>
        <pt x="2238" y="131" on="0"/>
        <pt x="2335" y="131" on="1"/>
        <pt x="2589" y="131" on="1"/>
        <pt x="3174" y="131" on="0"/>
        <pt x="3506" y="501" on="1"/>
        <pt x="3846" y="879" on="0"/>
        <pt x="3846" y="1470" on="1"/>
        <pt x="3846" y="1942" on="0"/>
        <pt x="3584" y="2260" on="1"/>
        <pt x="3277" y="2634" on="0"/>
        <pt x="2499" y="2634" on="1"/>
        <pt x="2230" y="2634" on="0"/>
        <pt x="2200" y="2574" on="1"/>
        <pt x="2181" y="2536" on="0"/>
        <pt x="2181" y="2486" on="1"/>
        <pt x="2181" y="2426" on="0"/>
        <pt x="2179" y="2408" on="1"/>
      </contour>
    </TTGlyph>
    <TTGlyph name="Dcaron" xMin="90" yMin="0" xMax="2781" yMax="3543">
      <component glyphName="uni030C.cap" x="2355" y="999" flags="0x1004"/>
      <component glyphName="D" x="0" y="0" flags="0x1004"/>
    </TTGlyph>
    <TTGlyph name="Dcaron.001" xMin="41" yMin="0" xMax="4174" yMax="3543">
      <component glyphName="uni030C.cap" x="3473" y="999" flags="0x1004"/>
      <component glyphName="D.001" x="0" y="0" flags="0x1004"/>
    </TTGlyph>
    <TTGlyph name="Dcroat" xMin="90" yMin="0" xMax="2781" yMax="2732">
      <component glyphName="Eth" x="0" y="0" flags="0x1004"/>
    </TTGlyph>
    <TTGlyph name="Dcroat.001" xMin="41" yMin="0" xMax="4174" yMax="2761">
      <component glyphName="Eth.001" x="0" y="0" flags="0x1004"/>
    </TTGlyph>
    <TTGlyph name="E" xMin="66" yMin="0" xMax="2036" yMax="2732">
      <contour>
        <pt x="66" y="0" on="1"/>
        <pt x="74" y="131" on="1"/>
        <pt x="168" y="131" on="1"/>
        <pt x="273" y="131" on="0"/>
        <pt x="299" y="147" on="1"/>
        <pt x="335" y="169" on="0"/>
        <pt x="344" y="254" on="1"/>
        <pt x="489" y="1871" on="0"/>
        <pt x="553" y="2527" on="0"/>
        <pt x="553" y="2581" on="0"/>
        <pt x="503" y="2601" on="0"/>
        <pt x="426" y="2601" on="1"/>
        <pt x="201" y="2601" on="1"/>
        <pt x="201" y="2732" on="1"/>
        <pt x="2036" y="2732" on="1"/>
        <pt x="2036" y="2236" on="1"/>
        <pt x="1946" y="2232" on="1"/>
        <pt x="1942" y="2445" on="1"/>
        <pt x="1940" y="2517" on="0"/>
        <pt x="1867" y="2562" on="0"/>
        <pt x="1762" y="2577" on="0"/>
        <pt x="1663" y="2584" on="1"/>
        <pt x="1525" y="2593" on="0"/>
        <pt x="990" y="2600" on="0"/>
        <pt x="874" y="2601" on="0"/>
        <pt x="834" y="2582" on="0"/>
        <pt x="831" y="2544" on="1"/>
        <pt x="750" y="1630" on="1"/>
        <pt x="1487" y="1630" on="1"/>
        <pt x="1573" y="1630" on="0"/>
        <pt x="1617" y="1664" on="0"/>
        <pt x="1626" y="1737" on="1"/>
        <pt x="1647" y="1937" on="1"/>
        <pt x="1737" y="1933" on="1"/>
        <pt x="1671" y="1094" on="1"/>
        <pt x="1573" y="1098" on="1"/>
        <pt x="1593" y="1374" on="0"/>
        <pt x="1593" y="1402" on="1"/>
        <pt x="1593" y="1470" on="0"/>
        <pt x="1466" y="1470" on="1"/>
        <pt x="733" y="1470" on="1"/>
        <pt x="639" y="381" on="1"/>
        <pt x="631" y="275" on="0"/>
        <pt x="631" y="210" on="0"/>
        <pt x="668" y="188" on="0"/>
        <pt x="729" y="188" on="1"/>
        <pt x="791" y="188" on="1"/>
        <pt x="1681" y="188" on="0"/>
        <pt x="1788" y="238" on="1"/>
        <pt x="1854" y="268" on="0"/>
        <pt x="1925" y="623" on="1"/>
        <pt x="2028" y="602" on="1"/>
        <pt x="1888" y="0" on="1"/>
      </contour>
    </TTGlyph>
    <TTGlyph name="E.001" xMin="143" yMin="-49" xMax="2105" yMax="2822">
      <contour>
        <pt x="1590" y="778" on="1"/>
        <pt x="1590" y="729" on="0"/>
        <pt x="1524" y="729" on="0"/>
        <pt x="1479" y="797" on="0"/>
        <pt x="1479" y="836" on="1"/>
        <pt x="1479" y="945" on="0"/>
        <pt x="1643" y="1069" on="0"/>
        <pt x="1822" y="1069" on="0"/>
        <pt x="1943" y="1026" on="0"/>
        <pt x="1994" y="985" on="1"/>
        <pt x="2105" y="894" on="0"/>
        <pt x="2105" y="570" on="0"/>
        <pt x="1945" y="286" on="0"/>
        <pt x="1808" y="181" on="1"/>
        <pt x="1510" y="-49" on="0"/>
        <pt x="1065" y="-49" on="1"/>
        <pt x="649" y="-49" on="0"/>
        <pt x="393" y="162" on="1"/>
        <pt x="143" y="367" on="0"/>
        <pt x="143" y="729" on="1"/>
        <pt x="143" y="920" on="0"/>
        <pt x="245" y="1142" on="0"/>
        <pt x="328" y="1267" on="0"/>
        <pt x="420" y="1360" on="0"/>
        <pt x="511" y="1437" on="0"/>
        <pt x="552" y="1462" on="1"/>
        <pt x="641" y="1517" on="0"/>
        <pt x="696" y="1540" on="1"/>
        <pt x="425" y="1675" on="0"/>
        <pt x="349" y="1918" on="1"/>
        <pt x="328" y="1985" on="0"/>
        <pt x="328" y="2175" on="0"/>
        <pt x="408" y="2391" on="0"/>
        <pt x="547" y="2556" on="0"/>
        <pt x="731" y="2690" on="0"/>
        <pt x="836" y="2733" on="1"/>
        <pt x="1052" y="2822" on="0"/>
        <pt x="1411" y="2822" on="0"/>
        <pt x="1655" y="2720" on="0"/>
        <pt x="1802" y="2531" on="0"/>
        <pt x="1802" y="2266" on="0"/>
        <pt x="1596" y="2077" on="0"/>
        <pt x="1358" y="2077" on="0"/>
        <pt x="1225" y="2175" on="0"/>
        <pt x="1225" y="2265" on="0"/>
        <pt x="1266" y="2265" on="1"/>
        <pt x="1276" y="2265" on="0"/>
        <pt x="1346" y="2236" on="0"/>
        <pt x="1471" y="2236" on="0"/>
        <pt x="1589" y="2372" on="0"/>
        <pt x="1589" y="2497" on="0"/>
        <pt x="1547" y="2586" on="0"/>
        <pt x="1505" y="2624" on="1"/>
        <pt x="1413" y="2707" on="0"/>
        <pt x="1217" y="2707" on="1"/>
        <pt x="930" y="2707" on="0"/>
        <pt x="740" y="2420" on="1"/>
        <pt x="631" y="2255" on="0"/>
        <pt x="631" y="1994" on="0"/>
        <pt x="678" y="1824" on="0"/>
        <pt x="712" y="1771" on="1"/>
        <pt x="783" y="1661" on="0"/>
        <pt x="860" y="1606" on="1"/>
        <pt x="1028" y="1655" on="0"/>
        <pt x="1147" y="1655" on="1"/>
        <pt x="1425" y="1655" on="0"/>
        <pt x="1425" y="1544" on="1"/>
        <pt x="1425" y="1446" on="0"/>
        <pt x="1155" y="1446" on="1"/>
        <pt x="1008" y="1446" on="0"/>
        <pt x="870" y="1476" on="1"/>
        <pt x="823" y="1487" on="1"/>
        <pt x="751" y="1460" on="0"/>
        <pt x="661" y="1361" on="1"/>
        <pt x="467" y="1146" on="0"/>
        <pt x="467" y="823" on="1"/>
        <pt x="467" y="487" on="0"/>
        <pt x="714" y="277" on="1"/>
        <pt x="900" y="119" on="0"/>
        <pt x="1208" y="119" on="1"/>
        <pt x="1540" y="119" on="0"/>
        <pt x="1780" y="328" on="1"/>
        <pt x="1946" y="471" on="0"/>
        <pt x="1946" y="676" on="1"/>
        <pt x="1946" y="786" on="0"/>
        <pt x="1820" y="926" on="0"/>
        <pt x="1659" y="926" on="0"/>
        <pt x="1589" y="859" on="0"/>
        <pt x="1589" y="815" on="1"/>
      </contour>
    </TTGlyph>
    <TTGlyph name="Eacute" xMin="66" yMin="0" xMax="2036" yMax="3559">
      <component glyphName="acutecomb.cap" x="2052" y="999" flags="0x1004"/>
      <component glyphName="E" x="0" y="0" flags="0x1004"/>
    </TTGlyph>
    <TTGlyph name="Eacute.001" xMin="143" yMin="-49" xMax="2105" yMax="3559">
      <component glyphName="acutecomb.cap" x="1995" y="999" flags="0x1004"/>
      <component glyphName="E.001" x="0" y="0" flags="0x1004"/>
    </TTGlyph>
    <TTGlyph name="Ebreve" xMin="66" yMin="0" xMax="2036" yMax="3543">
      <component glyphName="uni0306.cap" x="2052" y="999" flags="0x1004"/>
      <component glyphName="E" x="0" y="0" flags="0x1004"/>
    </TTGlyph>
    <TTGlyph name="Ebreve.001" xMin="143" yMin="-49" xMax="2105" yMax="3543">
      <component glyphName="uni0306.cap" x="1995" y="999" flags="0x1004"/>
      <component glyphName="E.001" x="0" y="0" flags="0x1004"/>
    </TTGlyph>
    <TTGlyph name="Ecaron" xMin="66" yMin="0" xMax="2036" yMax="3543">
      <component glyphName="uni030C.cap" x="2052" y="999" flags="0x1004"/>
      <component glyphName="E" x="0" y="0" flags="0x1004"/>
    </TTGlyph>
    <TTGlyph name="Ecaron.001" xMin="143" yMin="-49" xMax="2105" yMax="3543">
      <component glyphName="uni030C.cap" x="1995" y="999" flags="0x1004"/>
      <component glyphName="E.001" x="0" y="0" flags="0x1004"/>
    </TTGlyph>
    <TTGlyph name="Ecircumflex" xMin="66" yMin="0" xMax="2036" yMax="3543">
      <component glyphName="uni0302.cap" x="2052" y="999" flags="0x1004"/>
      <component glyphName="E" x="0" y="0" flags="0x1004"/>
    </TTGlyph>
    <TTGlyph name="Ecircumflex.001" xMin="143" yMin="-49" xMax="2105" yMax="3543">
      <component glyphName="uni0302.cap" x="1995" y="999" flags="0x1004"/>
      <component glyphName="E.001" x="0" y="0" flags="0x1004"/>
    </TTGlyph>
    <TTGlyph name="Edieresis" xMin="66" yMin="0" xMax="2036" yMax="3493">
      <contour>
        <pt x="66" y="0" on="1"/>
        <pt x="74" y="131" on="1"/>
        <pt x="168" y="131" on="1"/>
        <pt x="273" y="131" on="0"/>
        <pt x="299" y="147" on="1"/>
        <pt x="335" y="169" on="0"/>
        <pt x="344" y="254" on="1"/>
        <pt x="489" y="1871" on="0"/>
        <pt x="553" y="2527" on="0"/>
        <pt x="553" y="2581" on="0"/>
        <pt x="503" y="2601" on="0"/>
        <pt x="426" y="2601" on="1"/>
        <pt x="201" y="2601" on="1"/>
        <pt x="201" y="2732" on="1"/>
        <pt x="2036" y="2732" on="1"/>
        <pt x="2036" y="2236" on="1"/>
        <pt x="1946" y="2232" on="1"/>
        <pt x="1942" y="2445" on="1"/>
        <pt x="1940" y="2517" on="0"/>
        <pt x="1867" y="2562" on="0"/>
        <pt x="1762" y="2577" on="0"/>
        <pt x="1663" y="2584" on="1"/>
        <pt x="1525" y="2593" on="0"/>
        <pt x="990" y="2600" on="0"/>
        <pt x="874" y="2601" on="0"/>
        <pt x="834" y="2582" on="0"/>
        <pt x="831" y="2544" on="1"/>
        <pt x="750" y="1630" on="1"/>
        <pt x="1487" y="1630" on="1"/>
        <pt x="1573" y="1630" on="0"/>
        <pt x="1617" y="1664" on="0"/>
        <pt x="1626" y="1737" on="1"/>
        <pt x="1647" y="1937" on="1"/>
        <pt x="1737" y="1933" on="1"/>
        <pt x="1671" y="1094" on="1"/>
        <pt x="1573" y="1098" on="1"/>
        <pt x="1593" y="1374" on="0"/>
        <pt x="1593" y="1402" on="1"/>
        <pt x="1593" y="1470" on="0"/>
        <pt x="1466" y="1470" on="1"/>
        <pt x="733" y="1470" on="1"/>
        <pt x="639" y="381" on="1"/>
        <pt x="631" y="275" on="0"/>
        <pt x="631" y="210" on="0"/>
        <pt x="668" y="188" on="0"/>
        <pt x="729" y="188" on="1"/>
        <pt x="791" y="188" on="1"/>
        <pt x="1681" y="188" on="0"/>
        <pt x="1788" y="238" on="1"/>
        <pt x="1854" y="268" on="0"/>
        <pt x="1925" y="623" on="1"/>
        <pt x="2028" y="602" on="1"/>
        <pt x="1888" y="0" on="1"/>
      </contour>
      <contour>
        <pt x="913" y="3137" on="0"/>
        <pt x="782" y="3271" on="0"/>
        <pt x="782" y="3361" on="0"/>
        <pt x="928" y="3493" on="0"/>
        <pt x="1013" y="3493" on="0"/>
        <pt x="1130" y="3349" on="0"/>
        <pt x="1130" y="3262" on="0"/>
        <pt x="992" y="3137" on="0"/>
      </contour>
      <contour>
        <pt x="1516" y="3137" on="0"/>
        <pt x="1385" y="3271" on="0"/>
        <pt x="1385" y="3361" on="0"/>
        <pt x="1528" y="3493" on="0"/>
        <pt x="1612" y="3493" on="0"/>
        <pt x="1733" y="3348" on="0"/>
        <pt x="1733" y="3262" on="0"/>
        <pt x="1595" y="3137" on="0"/>
      </contour>
    </TTGlyph>
    <TTGlyph name="Edieresis.001" xMin="143" yMin="-49" xMax="2105" yMax="3493">
      <component glyphName="uni0308.cap" x="1995" y="999" flags="0x1004"/>
      <component glyphName="E.001" x="0" y="0" flags="0x1004"/>
    </TTGlyph>
    <TTGlyph name="Edotaccent" xMin="66" yMin="0" xMax="2036" yMax="3493">
      <component glyphName="uni0307.cap" x="2052" y="999" flags="0x1004"/>
      <component glyphName="E" x="0" y="0" flags="0x1004"/>
    </TTGlyph>
    <TTGlyph name="Edotaccent.001" xMin="143" yMin="-49" xMax="2105" yMax="3493">
      <component glyphName="uni0307.cap" x="1995" y="999" flags="0x1004"/>
      <component glyphName="E.001" x="0" y="0" flags="0x1004"/>
    </TTGlyph>
    <TTGlyph name="Egrave" xMin="66" yMin="0" xMax="2036" yMax="3559">
      <component glyphName="gravecomb.cap" x="2052" y="999" flags="0x1004"/>
      <component glyphName="E" x="0" y="0" flags="0x1004"/>
    </TTGlyph>
    <TTGlyph name="Egrave.001" xMin="143" yMin="-49" xMax="2105" yMax="3559">
      <component glyphName="gravecomb.cap" x="1995" y="999" flags="0x1004"/>
      <component glyphName="E.001" x="0" y="0" flags="0x1004"/>
    </TTGlyph>
    <TTGlyph name="Emacron" xMin="66" yMin="0" xMax="2036" yMax="3420">
      <component glyphName="uni0304.cap" x="2052" y="999" flags="0x1004"/>
      <component glyphName="E" x="0" y="0" flags="0x1004"/>
    </TTGlyph>
    <TTGlyph name="Emacron.001" xMin="143" yMin="-49" xMax="2105" yMax="3420">
      <component glyphName="uni0304.cap" x="1995" y="999" flags="0x1004"/>
      <component glyphName="E.001" x="0" y="0" flags="0x1004"/>
    </TTGlyph>
    <TTGlyph name="Eogonek" xMin="66" yMin="-1073" xMax="2036" yMax="2732">
      <contour>
        <pt x="1520" y="-881" on="1"/>
        <pt x="1686" y="-881" on="0"/>
        <pt x="1819" y="-758" on="1"/>
        <pt x="1855" y="-831" on="1"/>
        <pt x="1736" y="-980" on="0"/>
        <pt x="1535" y="-1047" on="1"/>
        <pt x="1457" y="-1073" on="0"/>
        <pt x="1295" y="-1073" on="0"/>
        <pt x="1141" y="-1021" on="0"/>
        <pt x="1081" y="-972" on="1"/>
        <pt x="950" y="-867" on="0"/>
        <pt x="950" y="-680" on="1"/>
        <pt x="950" y="-274" on="0"/>
        <pt x="1532" y="0" on="1"/>
        <pt x="66" y="0" on="1"/>
        <pt x="74" y="131" on="1"/>
        <pt x="168" y="131" on="1"/>
        <pt x="273" y="131" on="0"/>
        <pt x="299" y="147" on="1"/>
        <pt x="335" y="169" on="0"/>
        <pt x="344" y="254" on="1"/>
        <pt x="489" y="1871" on="0"/>
        <pt x="553" y="2527" on="0"/>
        <pt x="553" y="2581" on="0"/>
        <pt x="503" y="2601" on="0"/>
        <pt x="426" y="2601" on="1"/>
        <pt x="201" y="2601" on="1"/>
        <pt x="201" y="2732" on="1"/>
        <pt x="2036" y="2732" on="1"/>
        <pt x="2036" y="2236" on="1"/>
        <pt x="1946" y="2232" on="1"/>
        <pt x="1942" y="2445" on="1"/>
        <pt x="1940" y="2517" on="0"/>
        <pt x="1867" y="2562" on="0"/>
        <pt x="1762" y="2577" on="0"/>
        <pt x="1663" y="2584" on="1"/>
        <pt x="1525" y="2593" on="0"/>
        <pt x="990" y="2600" on="0"/>
        <pt x="874" y="2601" on="0"/>
        <pt x="834" y="2582" on="0"/>
        <pt x="831" y="2544" on="1"/>
        <pt x="750" y="1630" on="1"/>
        <pt x="1487" y="1630" on="1"/>
        <pt x="1573" y="1630" on="0"/>
        <pt x="1617" y="1664" on="0"/>
        <pt x="1626" y="1737" on="1"/>
        <pt x="1647" y="1937" on="1"/>
        <pt x="1737" y="1933" on="1"/>
        <pt x="1671" y="1094" on="1"/>
        <pt x="1573" y="1098" on="1"/>
        <pt x="1593" y="1374" on="0"/>
        <pt x="1593" y="1402" on="1"/>
        <pt x="1593" y="1470" on="0"/>
        <pt x="1466" y="1470" on="1"/>
        <pt x="733" y="1470" on="1"/>
        <pt x="639" y="381" on="1"/>
        <pt x="631" y="275" on="0"/>
        <pt x="631" y="210" on="0"/>
        <pt x="668" y="188" on="0"/>
        <pt x="729" y="188" on="1"/>
        <pt x="791" y="188" on="1"/>
        <pt x="1681" y="188" on="0"/>
        <pt x="1788" y="238" on="1"/>
        <pt x="1854" y="268" on="0"/>
        <pt x="1925" y="623" on="1"/>
        <pt x="2028" y="602" on="1"/>
        <pt x="1888" y="0" on="1"/>
        <pt x="1749" y="0" on="1"/>
        <pt x="1658" y="0" on="0"/>
        <pt x="1443" y="-160" on="0"/>
        <pt x="1381" y="-225" on="1"/>
        <pt x="1237" y="-376" on="0"/>
        <pt x="1237" y="-545" on="1"/>
        <pt x="1237" y="-731" on="0"/>
        <pt x="1371" y="-832" on="1"/>
        <pt x="1437" y="-881" on="0"/>
      </contour>
    </TTGlyph>
    <TTGlyph name="Eogonek.001" xMin="143" yMin="-1073" xMax="2105" yMax="2822">
      <contour>
        <pt x="1552" y="41" on="1"/>
        <pt x="1363" y="-49" on="0"/>
        <pt x="1065" y="-49" on="1"/>
        <pt x="649" y="-49" on="0"/>
        <pt x="393" y="162" on="1"/>
        <pt x="143" y="367" on="0"/>
        <pt x="143" y="729" on="1"/>
        <pt x="143" y="920" on="0"/>
        <pt x="245" y="1142" on="0"/>
        <pt x="328" y="1267" on="0"/>
        <pt x="420" y="1360" on="0"/>
        <pt x="511" y="1437" on="0"/>
        <pt x="552" y="1462" on="1"/>
        <pt x="641" y="1517" on="0"/>
        <pt x="696" y="1540" on="1"/>
        <pt x="425" y="1675" on="0"/>
        <pt x="349" y="1918" on="1"/>
        <pt x="328" y="1985" on="0"/>
        <pt x="328" y="2175" on="0"/>
        <pt x="408" y="2391" on="0"/>
        <pt x="547" y="2556" on="0"/>
        <pt x="731" y="2690" on="0"/>
        <pt x="836" y="2733" on="1"/>
        <pt x="1052" y="2822" on="0"/>
        <pt x="1411" y="2822" on="0"/>
        <pt x="1655" y="2720" on="0"/>
        <pt x="1802" y="2531" on="0"/>
        <pt x="1802" y="2266" on="0"/>
        <pt x="1596" y="2077" on="0"/>
        <pt x="1358" y="2077" on="0"/>
        <pt x="1225" y="2175" on="0"/>
        <pt x="1225" y="2265" on="0"/>
        <pt x="1266" y="2265" on="1"/>
        <pt x="1276" y="2265" on="0"/>
        <pt x="1346" y="2236" on="0"/>
        <pt x="1471" y="2236" on="0"/>
        <pt x="1589" y="2372" on="0"/>
        <pt x="1589" y="2497" on="0"/>
        <pt x="1547" y="2586" on="0"/>
        <pt x="1505" y="2624" on="1"/>
        <pt x="1413" y="2707" on="0"/>
        <pt x="1217" y="2707" on="1"/>
        <pt x="930" y="2707" on="0"/>
        <pt x="740" y="2420" on="1"/>
        <pt x="631" y="2255" on="0"/>
        <pt x="631" y="1994" on="0"/>
        <pt x="678" y="1824" on="0"/>
        <pt x="712" y="1771" on="1"/>
        <pt x="783" y="1661" on="0"/>
        <pt x="860" y="1606" on="1"/>
        <pt x="1028" y="1655" on="0"/>
        <pt x="1147" y="1655" on="1"/>
        <pt x="1425" y="1655" on="0"/>
        <pt x="1425" y="1544" on="1"/>
        <pt x="1425" y="1446" on="0"/>
        <pt x="1155" y="1446" on="1"/>
        <pt x="1008" y="1446" on="0"/>
        <pt x="870" y="1476" on="1"/>
        <pt x="823" y="1487" on="1"/>
        <pt x="751" y="1460" on="0"/>
        <pt x="661" y="1361" on="1"/>
        <pt x="467" y="1146" on="0"/>
        <pt x="467" y="823" on="1"/>
        <pt x="467" y="487" on="0"/>
        <pt x="714" y="277" on="1"/>
        <pt x="900" y="119" on="0"/>
        <pt x="1208" y="119" on="1"/>
        <pt x="1540" y="119" on="0"/>
        <pt x="1780" y="328" on="1"/>
        <pt x="1946" y="471" on="0"/>
        <pt x="1946" y="676" on="1"/>
        <pt x="1946" y="786" on="0"/>
        <pt x="1820" y="926" on="0"/>
        <pt x="1659" y="926" on="0"/>
        <pt x="1589" y="859" on="0"/>
        <pt x="1589" y="815" on="1"/>
        <pt x="1590" y="778" on="1"/>
        <pt x="1590" y="729" on="0"/>
        <pt x="1524" y="729" on="0"/>
        <pt x="1479" y="797" on="0"/>
        <pt x="1479" y="836" on="1"/>
        <pt x="1479" y="945" on="0"/>
        <pt x="1643" y="1069" on="0"/>
        <pt x="1822" y="1069" on="0"/>
        <pt x="1943" y="1026" on="0"/>
        <pt x="1994" y="985" on="1"/>
        <pt x="2105" y="894" on="0"/>
        <pt x="2105" y="725" on="1"/>
        <pt x="2105" y="414" on="0"/>
        <pt x="1736" y="84" on="1"/>
        <pt x="1648" y="6" on="0"/>
        <pt x="1510" y="-106" on="1"/>
        <pt x="1233" y="-329" on="0"/>
        <pt x="1233" y="-545" on="1"/>
        <pt x="1233" y="-678" on="0"/>
        <pt x="1395" y="-881" on="0"/>
        <pt x="1524" y="-881" on="1"/>
        <pt x="1638" y="-881" on="0"/>
        <pt x="1686" y="-842" on="1"/>
        <pt x="1779" y="-766" on="0"/>
        <pt x="1794" y="-766" on="1"/>
        <pt x="1823" y="-766" on="0"/>
        <pt x="1823" y="-809" on="0"/>
        <pt x="1784" y="-875" on="0"/>
        <pt x="1704" y="-955" on="0"/>
        <pt x="1652" y="-990" on="1"/>
        <pt x="1530" y="-1073" on="0"/>
        <pt x="1291" y="-1073" on="0"/>
        <pt x="1137" y="-1021" on="0"/>
        <pt x="1077" y="-972" on="1"/>
        <pt x="946" y="-867" on="0"/>
        <pt x="946" y="-680" on="1"/>
        <pt x="946" y="-490" on="0"/>
        <pt x="1097" y="-326" on="1"/>
        <pt x="1247" y="-163" on="0"/>
        <pt x="1536" y="30" on="1"/>
        <pt x="1545" y="36" on="0"/>
      </contour>
    </TTGlyph>
    <TTGlyph name="Eth" xMin="90" yMin="0" xMax="2781" yMax="2732">
      <contour>
        <pt x="426" y="1466" on="1"/>
        <pt x="512" y="2531" on="1"/>
        <pt x="512" y="2581" on="0"/>
        <pt x="452" y="2601" on="0"/>
        <pt x="328" y="2601" on="1"/>
        <pt x="156" y="2601" on="1"/>
        <pt x="164" y="2732" on="1"/>
        <pt x="1253" y="2732" on="1"/>
        <pt x="1826" y="2732" on="0"/>
        <pt x="2105" y="2624" on="1"/>
        <pt x="2258" y="2564" on="0"/>
        <pt x="2467" y="2390" on="0"/>
        <pt x="2564" y="2253" on="1"/>
        <pt x="2781" y="1944" on="0"/>
        <pt x="2781" y="1528" on="1"/>
        <pt x="2781" y="1238" on="0"/>
        <pt x="2668" y="954" on="1"/>
        <pt x="2498" y="522" on="0"/>
        <pt x="2122" y="261" on="1"/>
        <pt x="1746" y="0" on="0"/>
        <pt x="1151" y="0" on="1"/>
        <pt x="90" y="0" on="1"/>
        <pt x="98" y="131" on="1"/>
        <pt x="172" y="131" on="1"/>
        <pt x="277" y="131" on="0"/>
        <pt x="326" y="168" on="0"/>
        <pt x="332" y="254" on="1"/>
        <pt x="414" y="1307" on="1"/>
        <pt x="152" y="1307" on="1"/>
        <pt x="164" y="1466" on="1"/>
      </contour>
      <contour>
        <pt x="651" y="573" on="1"/>
        <pt x="635" y="370" on="0"/>
        <pt x="635" y="244" on="0"/>
        <pt x="639" y="207" on="0"/>
        <pt x="655" y="176" on="0"/>
        <pt x="671" y="157" on="0"/>
        <pt x="711" y="143" on="0"/>
        <pt x="745" y="136" on="0"/>
        <pt x="780" y="134" on="1"/>
        <pt x="834" y="131" on="0"/>
        <pt x="930" y="131" on="1"/>
        <pt x="1196" y="131" on="1"/>
        <pt x="1781" y="131" on="0"/>
        <pt x="2114" y="501" on="1"/>
        <pt x="2454" y="880" on="0"/>
        <pt x="2454" y="1470" on="1"/>
        <pt x="2454" y="1995" on="0"/>
        <pt x="2150" y="2305" on="1"/>
        <pt x="1858" y="2601" on="0"/>
        <pt x="1331" y="2601" on="1"/>
        <pt x="922" y="2601" on="1"/>
        <pt x="844" y="2601" on="0"/>
        <pt x="828" y="2587" on="1"/>
        <pt x="807" y="2568" on="0"/>
        <pt x="807" y="2494" on="1"/>
        <pt x="725" y="1466" on="1"/>
        <pt x="1569" y="1466" on="1"/>
        <pt x="1556" y="1307" on="1"/>
        <pt x="713" y="1307" on="1"/>
      </contour>
    </TTGlyph>
    <TTGlyph name="Eth.001" xMin="41" yMin="0" xMax="4174" yMax="2761">
      <contour>
        <pt x="1901" y="2499" on="1"/>
        <pt x="1901" y="2601" on="0"/>
        <pt x="1510" y="2601" on="0"/>
        <pt x="1108" y="2513" on="0"/>
        <pt x="798" y="2360" on="0"/>
        <pt x="536" y="2155" on="0"/>
        <pt x="355" y="1923" on="0"/>
        <pt x="292" y="1798" on="1"/>
        <pt x="168" y="1556" on="0"/>
        <pt x="168" y="1187" on="0"/>
        <pt x="249" y="944" on="0"/>
        <pt x="324" y="850" on="1"/>
        <pt x="487" y="647" on="0"/>
        <pt x="774" y="647" on="1"/>
        <pt x="1140" y="647" on="0"/>
        <pt x="1250" y="882" on="1"/>
        <pt x="1282" y="949" on="0"/>
        <pt x="1282" y="1099" on="0"/>
        <pt x="1200" y="1188" on="0"/>
        <pt x="1120" y="1188" on="0"/>
        <pt x="1062" y="1147" on="0"/>
        <pt x="1053" y="1147" on="1"/>
        <pt x="1028" y="1147" on="0"/>
        <pt x="1028" y="1277" on="0"/>
        <pt x="1132" y="1376" on="0"/>
        <pt x="1343" y="1376" on="0"/>
        <pt x="1516" y="1168" on="0"/>
        <pt x="1516" y="912" on="0"/>
        <pt x="1385" y="710" on="0"/>
        <pt x="1278" y="645" on="1"/>
        <pt x="1052" y="508" on="0"/>
        <pt x="770" y="508" on="1"/>
        <pt x="352" y="508" on="0"/>
        <pt x="155" y="866" on="1"/>
        <pt x="41" y="1073" on="0"/>
        <pt x="41" y="1339" on="1"/>
        <pt x="41" y="1599" on="0"/>
        <pt x="207" y="1917" on="1"/>
        <pt x="379" y="2247" on="0"/>
        <pt x="764" y="2480" on="1"/>
        <pt x="1035" y="2643" on="0"/>
        <pt x="1370" y="2698" on="1"/>
        <pt x="1701" y="2752" on="0"/>
        <pt x="2408" y="2761" on="0"/>
        <pt x="2935" y="2761" on="0"/>
        <pt x="3347" y="2704" on="0"/>
        <pt x="3651" y="2572" on="0"/>
        <pt x="3858" y="2392" on="0"/>
        <pt x="3957" y="2253" on="1"/>
        <pt x="4174" y="1944" on="0"/>
        <pt x="4174" y="1528" on="1"/>
        <pt x="4174" y="1238" on="0"/>
        <pt x="4062" y="954" on="1"/>
        <pt x="3891" y="522" on="0"/>
        <pt x="3514" y="261" on="1"/>
        <pt x="3139" y="0" on="0"/>
        <pt x="2544" y="0" on="1"/>
        <pt x="1380" y="0" on="1"/>
        <pt x="1389" y="131" on="1"/>
        <pt x="1573" y="131" on="1"/>
        <pt x="1680" y="131" on="0"/>
        <pt x="1735" y="169" on="0"/>
        <pt x="1741" y="254" on="1"/>
        <pt x="1815" y="1307" on="1"/>
        <pt x="1581" y="1307" on="1"/>
        <pt x="1581" y="1466" on="1"/>
        <pt x="1827" y="1466" on="1"/>
        <pt x="1884" y="2310" on="1"/>
        <pt x="1886" y="2337" on="0"/>
        <pt x="1889" y="2384" on="0"/>
        <pt x="1892" y="2418" on="0"/>
        <pt x="1894" y="2446" on="0"/>
        <pt x="1896" y="2465" on="0"/>
        <pt x="1898" y="2479" on="0"/>
        <pt x="1899" y="2487" on="0"/>
        <pt x="1900" y="2493" on="0"/>
        <pt x="1901" y="2496" on="0"/>
        <pt x="1901" y="2498" on="0"/>
      </contour>
      <contour>
        <pt x="2052" y="573" on="1"/>
        <pt x="2036" y="295" on="0"/>
        <pt x="2036" y="247" on="0"/>
        <pt x="2040" y="209" on="0"/>
        <pt x="2056" y="177" on="0"/>
        <pt x="2072" y="158" on="0"/>
        <pt x="2113" y="143" on="0"/>
        <pt x="2147" y="136" on="0"/>
        <pt x="2184" y="134" on="1"/>
        <pt x="2238" y="131" on="0"/>
        <pt x="2335" y="131" on="1"/>
        <pt x="2589" y="131" on="1"/>
        <pt x="3174" y="131" on="0"/>
        <pt x="3506" y="501" on="1"/>
        <pt x="3846" y="879" on="0"/>
        <pt x="3846" y="1470" on="1"/>
        <pt x="3846" y="1942" on="0"/>
        <pt x="3584" y="2260" on="1"/>
        <pt x="3277" y="2634" on="0"/>
        <pt x="2499" y="2634" on="1"/>
        <pt x="2230" y="2634" on="0"/>
        <pt x="2200" y="2574" on="1"/>
        <pt x="2181" y="2536" on="0"/>
        <pt x="2181" y="2486" on="1"/>
        <pt x="2181" y="2426" on="0"/>
        <pt x="2179" y="2408" on="1"/>
        <pt x="2114" y="1466" on="1"/>
        <pt x="2957" y="1466" on="1"/>
        <pt x="2945" y="1307" on="1"/>
        <pt x="2101" y="1307" on="1"/>
      </contour>
    </TTGlyph>
    <TTGlyph name="Euro" xMin="70" yMin="-41" xMax="2220" yMax="2097">
      <contour>
        <pt x="578" y="1032" on="1"/>
        <pt x="582" y="950" on="1"/>
        <pt x="1872" y="950" on="1"/>
        <pt x="1790" y="754" on="1"/>
        <pt x="623" y="754" on="1"/>
        <pt x="739" y="405" on="0"/>
        <pt x="1074" y="242" on="1"/>
        <pt x="1257" y="152" on="0"/>
        <pt x="1529" y="152" on="0"/>
        <pt x="1696" y="184" on="0"/>
        <pt x="1819" y="228" on="0"/>
        <pt x="1943" y="299" on="0"/>
        <pt x="2014" y="348" on="0"/>
        <pt x="2054" y="384" on="1"/>
        <pt x="2130" y="463" on="1"/>
        <pt x="2142" y="459" on="1"/>
        <pt x="2142" y="209" on="1"/>
        <pt x="1833" y="-41" on="0"/>
        <pt x="1454" y="-41" on="1"/>
        <pt x="1060" y="-41" on="0"/>
        <pt x="761" y="210" on="1"/>
        <pt x="524" y="409" on="0"/>
        <pt x="418" y="754" on="1"/>
        <pt x="82" y="754" on="1"/>
        <pt x="160" y="950" on="1"/>
        <pt x="385" y="950" on="1"/>
        <pt x="385" y="1110" on="1"/>
        <pt x="70" y="1110" on="1"/>
        <pt x="147" y="1303" on="1"/>
        <pt x="418" y="1303" on="1"/>
        <pt x="522" y="1659" on="0"/>
        <pt x="799" y="1873" on="1"/>
        <pt x="1090" y="2097" on="0"/>
        <pt x="1430" y="2097" on="1"/>
        <pt x="1667" y="2097" on="0"/>
        <pt x="2036" y="1949" on="0"/>
        <pt x="2220" y="1778" on="1"/>
        <pt x="2190" y="1703" on="0"/>
        <pt x="2130" y="1577" on="1"/>
        <pt x="2057" y="1703" on="0"/>
        <pt x="1854" y="1810" on="1"/>
        <pt x="1674" y="1905" on="0"/>
        <pt x="1446" y="1905" on="1"/>
        <pt x="1148" y="1905" on="0"/>
        <pt x="906" y="1714" on="1"/>
        <pt x="720" y="1566" on="0"/>
        <pt x="623" y="1303" on="1"/>
        <pt x="2019" y="1303" on="1"/>
        <pt x="1942" y="1110" on="1"/>
        <pt x="582" y="1110" on="1"/>
      </contour>
    </TTGlyph>
    <TTGlyph name="F" xMin="78" yMin="0" xMax="2101" yMax="2732">
      <contour>
        <pt x="664" y="229" on="1"/>
        <pt x="664" y="131" on="0"/>
        <pt x="762" y="131" on="1"/>
        <pt x="1032" y="131" on="1"/>
        <pt x="1024" y="0" on="1"/>
        <pt x="78" y="0" on="1"/>
        <pt x="86" y="131" on="1"/>
        <pt x="201" y="131" on="1"/>
        <pt x="308" y="131" on="0"/>
        <pt x="363" y="169" on="0"/>
        <pt x="369" y="254" on="1"/>
        <pt x="433" y="1025" on="0"/>
        <pt x="486" y="1655" on="1"/>
        <pt x="557" y="2485" on="0"/>
        <pt x="557" y="2581" on="0"/>
        <pt x="507" y="2601" on="0"/>
        <pt x="430" y="2601" on="1"/>
        <pt x="205" y="2601" on="1"/>
        <pt x="205" y="2732" on="1"/>
        <pt x="2101" y="2732" on="1"/>
        <pt x="2101" y="2212" on="1"/>
        <pt x="1978" y="2208" on="1"/>
        <pt x="1978" y="2445" on="1"/>
        <pt x="1978" y="2508" on="0"/>
        <pt x="1901" y="2570" on="0"/>
        <pt x="1590" y="2590" on="0"/>
        <pt x="884" y="2601" on="0"/>
        <pt x="843" y="2584" on="0"/>
        <pt x="840" y="2544" on="1"/>
        <pt x="766" y="1630" on="1"/>
        <pt x="1520" y="1630" on="1"/>
        <pt x="1598" y="1630" on="0"/>
        <pt x="1628" y="1650" on="0"/>
        <pt x="1640" y="1683" on="0"/>
        <pt x="1647" y="1737" on="1"/>
        <pt x="1667" y="1937" on="1"/>
        <pt x="1769" y="1933" on="1"/>
        <pt x="1704" y="1069" on="1"/>
        <pt x="1597" y="1069" on="1"/>
        <pt x="1618" y="1359" on="0"/>
        <pt x="1618" y="1396" on="1"/>
        <pt x="1618" y="1470" on="0"/>
        <pt x="1499" y="1470" on="1"/>
        <pt x="754" y="1470" on="1"/>
        <pt x="672" y="381" on="1"/>
        <pt x="664" y="275" on="0"/>
      </contour>
    </TTGlyph>
    <TTGlyph name="G" xMin="184" yMin="-57" xMax="2691" yMax="2798">
      <contour>
        <pt x="274" y="662" on="0"/>
        <pt x="184" y="1037" on="0"/>
        <pt x="184" y="1435" on="0"/>
        <pt x="273" y="1809" on="0"/>
        <pt x="443" y="2156" on="0"/>
        <pt x="706" y="2453" on="0"/>
        <pt x="870" y="2563" on="1"/>
        <pt x="1222" y="2798" on="0"/>
        <pt x="1704" y="2798" on="1"/>
        <pt x="1817" y="2798" on="0"/>
        <pt x="2212" y="2713" on="0"/>
        <pt x="2406" y="2604" on="0"/>
        <pt x="2467" y="2563" on="0"/>
        <pt x="2484" y="2536" on="1"/>
        <pt x="2507" y="2501" on="0"/>
        <pt x="2507" y="2417" on="1"/>
        <pt x="2507" y="2376" on="1"/>
        <pt x="2507" y="2243" on="0"/>
        <pt x="2491" y="2035" on="1"/>
        <pt x="2486" y="1970" on="1"/>
        <pt x="2404" y="1966" on="1"/>
        <pt x="2390" y="2153" on="0"/>
        <pt x="2289" y="2342" on="0"/>
        <pt x="2244" y="2400" on="1"/>
        <pt x="2140" y="2532" on="0"/>
        <pt x="1761" y="2662" on="0"/>
        <pt x="1447" y="2662" on="0"/>
        <pt x="1137" y="2553" on="0"/>
        <pt x="898" y="2364" on="0"/>
        <pt x="704" y="2112" on="0"/>
        <pt x="642" y="1968" on="1"/>
        <pt x="512" y="1668" on="0"/>
        <pt x="512" y="1161" on="0"/>
        <pt x="581" y="806" on="0"/>
        <pt x="698" y="549" on="0"/>
        <pt x="860" y="343" on="0"/>
        <pt x="1037" y="213" on="0"/>
        <pt x="1136" y="170" on="1"/>
        <pt x="1318" y="90" on="0"/>
        <pt x="1772" y="90" on="0"/>
        <pt x="2111" y="339" on="0"/>
        <pt x="2130" y="557" on="1"/>
        <pt x="2175" y="1143" on="1"/>
        <pt x="1667" y="1143" on="1"/>
        <pt x="1675" y="1274" on="1"/>
        <pt x="2691" y="1274" on="1"/>
        <pt x="2683" y="1143" on="1"/>
        <pt x="2454" y="1143" on="1"/>
        <pt x="2363" y="-4" on="1"/>
        <pt x="2290" y="0" on="1"/>
        <pt x="2263" y="156" on="0"/>
        <pt x="2207" y="165" on="1"/>
        <pt x="2182" y="169" on="0"/>
        <pt x="2105" y="116" on="0"/>
        <pt x="2029" y="71" on="0"/>
        <pt x="1885" y="3" on="0"/>
        <pt x="1824" y="-14" on="1"/>
        <pt x="1668" y="-57" on="0"/>
        <pt x="1209" y="-57" on="0"/>
        <pt x="770" y="85" on="0"/>
        <pt x="474" y="328" on="0"/>
      </contour>
    </TTGlyph>
    <TTGlyph name="G.001" xMin="184" yMin="-1077" xMax="2642" yMax="2798">
      <contour>
        <pt x="2085" y="106" on="1"/>
        <pt x="1808" y="-45" on="0"/>
        <pt x="1479" y="-45" on="1"/>
        <pt x="917" y="-45" on="0"/>
        <pt x="581" y="250" on="1"/>
        <pt x="184" y="598" on="0"/>
        <pt x="184" y="1245" on="1"/>
        <pt x="184" y="1627" on="0"/>
        <pt x="358" y="1982" on="1"/>
        <pt x="531" y="2336" on="0"/>
        <pt x="870" y="2563" on="1"/>
        <pt x="1222" y="2798" on="0"/>
        <pt x="1704" y="2798" on="1"/>
        <pt x="1871" y="2798" on="0"/>
        <pt x="2074" y="2748" on="1"/>
        <pt x="2298" y="2693" on="0"/>
        <pt x="2440" y="2608" on="1"/>
        <pt x="2475" y="2587" on="0"/>
        <pt x="2487" y="2574" on="1"/>
        <pt x="2511" y="2546" on="0"/>
        <pt x="2511" y="2449" on="1"/>
        <pt x="2511" y="2282" on="0"/>
        <pt x="2502" y="2018" on="1"/>
        <pt x="2499" y="1929" on="1"/>
        <pt x="2380" y="1933" on="1"/>
        <pt x="2380" y="2077" on="0"/>
        <pt x="2346" y="2260" on="0"/>
        <pt x="2210" y="2486" on="0"/>
        <pt x="1840" y="2662" on="0"/>
        <pt x="1376" y="2662" on="0"/>
        <pt x="938" y="2413" on="0"/>
        <pt x="797" y="2216" on="1"/>
        <pt x="516" y="1822" on="0"/>
        <pt x="516" y="1294" on="1"/>
        <pt x="516" y="879" on="0"/>
        <pt x="698" y="554" on="1"/>
        <pt x="966" y="78" on="0"/>
        <pt x="1511" y="78" on="1"/>
        <pt x="1785" y="78" on="0"/>
        <pt x="1956" y="172" on="1"/>
        <pt x="2027" y="210" on="0"/>
        <pt x="2117" y="364" on="0"/>
        <pt x="2130" y="557" on="1"/>
        <pt x="2175" y="1114" on="1"/>
        <pt x="1647" y="1114" on="1"/>
        <pt x="1651" y="1245" on="1"/>
        <pt x="2642" y="1245" on="1"/>
        <pt x="2634" y="1114" on="1"/>
        <pt x="2454" y="1114" on="1"/>
        <pt x="2411" y="559" on="0"/>
        <pt x="2376" y="207" on="0"/>
        <pt x="2363" y="47" on="0"/>
        <pt x="2332" y="-135" on="0"/>
        <pt x="2324" y="-192" on="0"/>
        <pt x="2284" y="-319" on="0"/>
        <pt x="2273" y="-346" on="0"/>
        <pt x="2245" y="-418" on="1"/>
        <pt x="2163" y="-632" on="0"/>
        <pt x="1997" y="-782" on="1"/>
        <pt x="1671" y="-1077" on="0"/>
        <pt x="1135" y="-1077" on="1"/>
        <pt x="615" y="-1077" on="0"/>
        <pt x="354" y="-834" on="1"/>
        <pt x="213" y="-702" on="0"/>
        <pt x="213" y="-500" on="1"/>
        <pt x="213" y="-277" on="0"/>
        <pt x="408" y="-162" on="1"/>
        <pt x="517" y="-98" on="0"/>
        <pt x="739" y="-98" on="0"/>
        <pt x="872" y="-191" on="0"/>
        <pt x="872" y="-319" on="0"/>
        <pt x="840" y="-319" on="1"/>
        <pt x="816" y="-319" on="0"/>
        <pt x="786" y="-272" on="0"/>
        <pt x="775" y="-258" on="1"/>
        <pt x="749" y="-225" on="0"/>
        <pt x="613" y="-225" on="0"/>
        <pt x="471" y="-379" on="0"/>
        <pt x="471" y="-629" on="0"/>
        <pt x="669" y="-838" on="0"/>
        <pt x="988" y="-954" on="0"/>
        <pt x="1304" y="-954" on="0"/>
        <pt x="1540" y="-888" on="0"/>
        <pt x="1710" y="-784" on="0"/>
        <pt x="1852" y="-630" on="0"/>
        <pt x="1943" y="-482" on="0"/>
        <pt x="2014" y="-297" on="0"/>
        <pt x="2050" y="-163" on="0"/>
        <pt x="2063" y="-84" on="1"/>
        <pt x="2075" y="-8" on="0"/>
      </contour>
    </TTGlyph>
    <TTGlyph name="Gbreve" xMin="184" yMin="-57" xMax="2691" yMax="3543">
      <component glyphName="uni0306.cap" x="2466" y="999" flags="0x1004"/>
      <component glyphName="G" x="0" y="0" flags="0x1004"/>
    </TTGlyph>
    <TTGlyph name="Gbreve.001" xMin="184" yMin="-1077" xMax="2642" yMax="3543">
      <component glyphName="uni0306.cap" x="2466" y="999" flags="0x1004"/>
      <component glyphName="G.001" x="0" y="0" flags="0x1004"/>
    </TTGlyph>
    <TTGlyph name="Gcircumflex" xMin="184" yMin="-57" xMax="2691" yMax="3543">
      <component glyphName="uni0302.cap" x="2466" y="999" flags="0x1004"/>
      <component glyphName="G" x="0" y="0" flags="0x1004"/>
    </TTGlyph>
    <TTGlyph name="Gcircumflex.001" xMin="184" yMin="-1077" xMax="2642" yMax="3543">
      <component glyphName="uni0302.cap" x="2466" y="999" flags="0x1004"/>
      <component glyphName="G.001" x="0" y="0" flags="0x1004"/>
    </TTGlyph>
    <TTGlyph name="Gcommaaccent" xMin="184" yMin="-868" xMax="2691" yMax="2798">
      <component glyphName="uni0326" x="2146" y="90" flags="0x1004"/>
      <component glyphName="G" x="0" y="0" flags="0x1004"/>
    </TTGlyph>
    <TTGlyph name="Gcommaaccent.001" xMin="184" yMin="-1888" xMax="2642" yMax="2798">
      <component glyphName="uni0326" x="2052" y="-930" flags="0x1004"/>
      <component glyphName="G.001" x="0" y="0" flags="0x1004"/>
    </TTGlyph>
    <TTGlyph name="Gdotaccent" xMin="184" yMin="-57" xMax="2691" yMax="3493">
      <component glyphName="uni0307.cap" x="2466" y="999" flags="0x1004"/>
      <component glyphName="G" x="0" y="0" flags="0x1004"/>
    </TTGlyph>
    <TTGlyph name="Gdotaccent.001" xMin="184" yMin="-1077" xMax="2642" yMax="3493">
      <component glyphName="uni0307.cap" x="2466" y="999" flags="0x1004"/>
      <component glyphName="G.001" x="0" y="0" flags="0x1004"/>
    </TTGlyph>
    <TTGlyph name="H" xMin="82" yMin="0" xMax="2806" yMax="2732">
      <contour>
        <pt x="2154" y="1606" on="1"/>
        <pt x="2220" y="2494" on="1"/>
        <pt x="2220" y="2567" on="0"/>
        <pt x="2200" y="2582" on="1"/>
        <pt x="2176" y="2601" on="0"/>
        <pt x="2073" y="2601" on="1"/>
        <pt x="1901" y="2601" on="1"/>
        <pt x="1901" y="2732" on="1"/>
        <pt x="2806" y="2732" on="1"/>
        <pt x="2802" y="2601" on="1"/>
        <pt x="2740" y="2601" on="0"/>
        <pt x="2661" y="2601" on="0"/>
        <pt x="2605" y="2598" on="0"/>
        <pt x="2585" y="2596" on="0"/>
        <pt x="2550" y="2586" on="0"/>
        <pt x="2540" y="2578" on="0"/>
        <pt x="2521" y="2558" on="0"/>
        <pt x="2517" y="2540" on="0"/>
        <pt x="2512" y="2523" on="1"/>
        <pt x="2507" y="2504" on="0"/>
        <pt x="2503" y="2449" on="1"/>
        <pt x="2351" y="336" on="1"/>
        <pt x="2347" y="291" on="0"/>
        <pt x="2347" y="214" on="0"/>
        <pt x="2348" y="191" on="0"/>
        <pt x="2356" y="171" on="0"/>
        <pt x="2360" y="158" on="0"/>
        <pt x="2378" y="147" on="0"/>
        <pt x="2388" y="140" on="0"/>
        <pt x="2403" y="138" on="1"/>
        <pt x="2442" y="131" on="0"/>
        <pt x="2476" y="131" on="1"/>
        <pt x="2540" y="131" on="1"/>
        <pt x="2687" y="131" on="1"/>
        <pt x="2687" y="0" on="1"/>
        <pt x="1704" y="0" on="1"/>
        <pt x="1712" y="131" on="1"/>
        <pt x="1880" y="131" on="1"/>
        <pt x="1999" y="131" on="0"/>
        <pt x="2035" y="167" on="0"/>
        <pt x="2043" y="192" on="1"/>
        <pt x="2055" y="230" on="0"/>
        <pt x="2060" y="319" on="1"/>
        <pt x="2142" y="1446" on="1"/>
        <pt x="741" y="1446" on="1"/>
        <pt x="668" y="373" on="1"/>
        <pt x="666" y="337" on="0"/>
        <pt x="659" y="265" on="0"/>
        <pt x="659" y="222" on="0"/>
        <pt x="665" y="187" on="0"/>
        <pt x="675" y="162" on="0"/>
        <pt x="700" y="146" on="0"/>
        <pt x="723" y="136" on="0"/>
        <pt x="746" y="134" on="1"/>
        <pt x="782" y="131" on="0"/>
        <pt x="848" y="131" on="1"/>
        <pt x="1024" y="131" on="1"/>
        <pt x="1024" y="0" on="1"/>
        <pt x="82" y="0" on="1"/>
        <pt x="90" y="131" on="1"/>
        <pt x="225" y="131" on="1"/>
        <pt x="321" y="131" on="0"/>
        <pt x="351" y="167" on="0"/>
        <pt x="358" y="193" on="1"/>
        <pt x="368" y="229" on="0"/>
        <pt x="373" y="319" on="1"/>
        <pt x="532" y="2494" on="1"/>
        <pt x="532" y="2567" on="0"/>
        <pt x="512" y="2582" on="1"/>
        <pt x="488" y="2601" on="0"/>
        <pt x="385" y="2601" on="1"/>
        <pt x="197" y="2601" on="1"/>
        <pt x="201" y="2732" on="1"/>
        <pt x="1135" y="2732" on="1"/>
        <pt x="1130" y="2601" on="1"/>
        <pt x="1056" y="2601" on="0"/>
        <pt x="965" y="2601" on="0"/>
        <pt x="911" y="2598" on="0"/>
        <pt x="892" y="2596" on="0"/>
        <pt x="857" y="2586" on="0"/>
        <pt x="849" y="2579" on="0"/>
        <pt x="830" y="2557" on="0"/>
        <pt x="828" y="2541" on="0"/>
        <pt x="819" y="2505" on="0"/>
        <pt x="817" y="2476" on="0"/>
        <pt x="815" y="2449" on="1"/>
        <pt x="754" y="1606" on="1"/>
      </contour>
    </TTGlyph>
    <TTGlyph name="Hbar" xMin="82" yMin="0" xMax="2806" yMax="2732">
      <contour>
        <pt x="2195" y="2163" on="1"/>
        <pt x="2220" y="2494" on="1"/>
        <pt x="2220" y="2567" on="0"/>
        <pt x="2200" y="2582" on="1"/>
        <pt x="2176" y="2601" on="0"/>
        <pt x="2073" y="2601" on="1"/>
        <pt x="1901" y="2601" on="1"/>
        <pt x="1901" y="2732" on="1"/>
        <pt x="2806" y="2732" on="1"/>
        <pt x="2802" y="2601" on="1"/>
        <pt x="2740" y="2601" on="0"/>
        <pt x="2661" y="2601" on="0"/>
        <pt x="2605" y="2598" on="0"/>
        <pt x="2585" y="2596" on="0"/>
        <pt x="2550" y="2586" on="0"/>
        <pt x="2540" y="2578" on="0"/>
        <pt x="2521" y="2558" on="0"/>
        <pt x="2517" y="2540" on="0"/>
        <pt x="2512" y="2523" on="1"/>
        <pt x="2507" y="2504" on="0"/>
        <pt x="2503" y="2449" on="1"/>
        <pt x="2482" y="2163" on="1"/>
        <pt x="2757" y="2163" on="1"/>
        <pt x="2744" y="2003" on="1"/>
        <pt x="2470" y="2003" on="1"/>
        <pt x="2351" y="336" on="1"/>
        <pt x="2347" y="291" on="0"/>
        <pt x="2347" y="214" on="0"/>
        <pt x="2348" y="191" on="0"/>
        <pt x="2356" y="171" on="0"/>
        <pt x="2360" y="158" on="0"/>
        <pt x="2378" y="147" on="0"/>
        <pt x="2388" y="140" on="0"/>
        <pt x="2403" y="138" on="1"/>
        <pt x="2442" y="131" on="0"/>
        <pt x="2476" y="131" on="1"/>
        <pt x="2540" y="131" on="1"/>
        <pt x="2687" y="131" on="1"/>
        <pt x="2687" y="0" on="1"/>
        <pt x="1704" y="0" on="1"/>
        <pt x="1712" y="131" on="1"/>
        <pt x="1880" y="131" on="1"/>
        <pt x="1999" y="131" on="0"/>
        <pt x="2035" y="167" on="0"/>
        <pt x="2043" y="192" on="1"/>
        <pt x="2055" y="230" on="0"/>
        <pt x="2060" y="319" on="1"/>
        <pt x="2142" y="1446" on="1"/>
        <pt x="741" y="1446" on="1"/>
        <pt x="668" y="373" on="1"/>
        <pt x="666" y="337" on="0"/>
        <pt x="659" y="265" on="0"/>
        <pt x="659" y="222" on="0"/>
        <pt x="665" y="187" on="0"/>
        <pt x="675" y="162" on="0"/>
        <pt x="700" y="146" on="0"/>
        <pt x="723" y="136" on="0"/>
        <pt x="746" y="134" on="1"/>
        <pt x="782" y="131" on="0"/>
        <pt x="848" y="131" on="1"/>
        <pt x="1024" y="131" on="1"/>
        <pt x="1024" y="0" on="1"/>
        <pt x="82" y="0" on="1"/>
        <pt x="90" y="131" on="1"/>
        <pt x="225" y="131" on="1"/>
        <pt x="321" y="131" on="0"/>
        <pt x="351" y="167" on="0"/>
        <pt x="358" y="193" on="1"/>
        <pt x="368" y="229" on="0"/>
        <pt x="373" y="319" on="1"/>
        <pt x="496" y="2003" on="1"/>
        <pt x="188" y="2003" on="1"/>
        <pt x="201" y="2163" on="1"/>
        <pt x="508" y="2163" on="1"/>
        <pt x="532" y="2494" on="1"/>
        <pt x="532" y="2567" on="0"/>
        <pt x="512" y="2582" on="1"/>
        <pt x="488" y="2601" on="0"/>
        <pt x="385" y="2601" on="1"/>
        <pt x="197" y="2601" on="1"/>
        <pt x="201" y="2732" on="1"/>
        <pt x="1135" y="2732" on="1"/>
        <pt x="1130" y="2601" on="1"/>
        <pt x="1056" y="2601" on="0"/>
        <pt x="965" y="2601" on="0"/>
        <pt x="911" y="2598" on="0"/>
        <pt x="892" y="2596" on="0"/>
        <pt x="857" y="2586" on="0"/>
        <pt x="849" y="2579" on="0"/>
        <pt x="830" y="2557" on="0"/>
        <pt x="828" y="2541" on="0"/>
        <pt x="819" y="2505" on="0"/>
        <pt x="817" y="2476" on="0"/>
        <pt x="815" y="2449" on="1"/>
        <pt x="795" y="2163" on="1"/>
      </contour>
      <contour>
        <pt x="754" y="1606" on="1"/>
        <pt x="2154" y="1606" on="1"/>
        <pt x="2183" y="2003" on="1"/>
        <pt x="782" y="2003" on="1"/>
      </contour>
    </TTGlyph>
    <TTGlyph name="Hcircumflex" xMin="82" yMin="0" xMax="2806" yMax="3543">
      <component glyphName="uni0302.cap" x="2322" y="999" flags="0x1004"/>
      <component glyphName="H" x="0" y="0" flags="0x1004"/>
    </TTGlyph>
    <TTGlyph name="I" xMin="86" yMin="0" xMax="1171" yMax="2732">
      <contour>
        <pt x="86" y="0" on="1"/>
        <pt x="90" y="131" on="1"/>
        <pt x="180" y="131" on="1"/>
        <pt x="307" y="131" on="0"/>
        <pt x="345" y="169" on="0"/>
        <pt x="355" y="192" on="1"/>
        <pt x="369" y="226" on="0"/>
        <pt x="377" y="319" on="1"/>
        <pt x="586" y="2441" on="1"/>
        <pt x="590" y="2474" on="0"/>
        <pt x="590" y="2576" on="0"/>
        <pt x="536" y="2601" on="0"/>
        <pt x="442" y="2601" on="1"/>
        <pt x="250" y="2601" on="1"/>
        <pt x="254" y="2732" on="1"/>
        <pt x="1171" y="2732" on="1"/>
        <pt x="1163" y="2601" on="1"/>
        <pt x="1109" y="2601" on="0"/>
        <pt x="1037" y="2601" on="0"/>
        <pt x="981" y="2598" on="0"/>
        <pt x="960" y="2596" on="0"/>
        <pt x="924" y="2587" on="0"/>
        <pt x="914" y="2578" on="0"/>
        <pt x="893" y="2558" on="0"/>
        <pt x="888" y="2540" on="0"/>
        <pt x="878" y="2506" on="0"/>
        <pt x="875" y="2474" on="0"/>
        <pt x="872" y="2449" on="1"/>
        <pt x="664" y="336" on="1"/>
        <pt x="655" y="235" on="0"/>
        <pt x="655" y="204" on="0"/>
        <pt x="659" y="174" on="0"/>
        <pt x="679" y="150" on="0"/>
        <pt x="702" y="139" on="0"/>
        <pt x="731" y="136" on="1"/>
        <pt x="768" y="131" on="0"/>
        <pt x="872" y="131" on="1"/>
        <pt x="1044" y="131" on="1"/>
        <pt x="1040" y="0" on="1"/>
      </contour>
    </TTGlyph>
    <TTGlyph name="IJ" xMin="86" yMin="-1077" xMax="2453" yMax="2732">
      <component glyphName="J" x="1208" y="0" flags="0x1004"/>
      <component glyphName="I" x="0" y="0" flags="0x1004"/>
    </TTGlyph>
    <TTGlyph name="Iacute" xMin="86" yMin="0" xMax="1171" yMax="3559">
      <component glyphName="acutecomb.cap" x="1528" y="999" flags="0x1004"/>
      <component glyphName="I" x="0" y="0" flags="0x1004"/>
    </TTGlyph>
    <TTGlyph name="Ibreve" xMin="86" yMin="0" xMax="1171" yMax="3543">
      <component glyphName="uni0306.cap" x="1528" y="999" flags="0x1004"/>
      <component glyphName="I" x="0" y="0" flags="0x1004"/>
    </TTGlyph>
    <TTGlyph name="Icircumflex" xMin="86" yMin="0" xMax="1209" yMax="3543">
      <component glyphName="uni0302.cap" x="1528" y="999" flags="0x1004"/>
      <component glyphName="I" x="0" y="0" flags="0x1004"/>
    </TTGlyph>
    <TTGlyph name="Idieresis" xMin="86" yMin="0" xMax="1209" yMax="3493">
      <contour>
        <pt x="86" y="0" on="1"/>
        <pt x="90" y="131" on="1"/>
        <pt x="180" y="131" on="1"/>
        <pt x="307" y="131" on="0"/>
        <pt x="345" y="169" on="0"/>
        <pt x="355" y="192" on="1"/>
        <pt x="369" y="226" on="0"/>
        <pt x="377" y="319" on="1"/>
        <pt x="586" y="2441" on="1"/>
        <pt x="590" y="2474" on="0"/>
        <pt x="590" y="2576" on="0"/>
        <pt x="536" y="2601" on="0"/>
        <pt x="442" y="2601" on="1"/>
        <pt x="250" y="2601" on="1"/>
        <pt x="254" y="2732" on="1"/>
        <pt x="1171" y="2732" on="1"/>
        <pt x="1163" y="2601" on="1"/>
        <pt x="1109" y="2601" on="0"/>
        <pt x="1037" y="2601" on="0"/>
        <pt x="981" y="2598" on="0"/>
        <pt x="960" y="2596" on="0"/>
        <pt x="924" y="2587" on="0"/>
        <pt x="914" y="2578" on="0"/>
        <pt x="893" y="2558" on="0"/>
        <pt x="888" y="2540" on="0"/>
        <pt x="878" y="2506" on="0"/>
        <pt x="875" y="2474" on="0"/>
        <pt x="872" y="2449" on="1"/>
        <pt x="664" y="336" on="1"/>
        <pt x="655" y="235" on="0"/>
        <pt x="655" y="204" on="0"/>
        <pt x="659" y="174" on="0"/>
        <pt x="679" y="150" on="0"/>
        <pt x="702" y="139" on="0"/>
        <pt x="731" y="136" on="1"/>
        <pt x="768" y="131" on="0"/>
        <pt x="872" y="131" on="1"/>
        <pt x="1044" y="131" on="1"/>
        <pt x="1040" y="0" on="1"/>
      </contour>
      <contour>
        <pt x="389" y="3137" on="0"/>
        <pt x="258" y="3271" on="0"/>
        <pt x="258" y="3361" on="0"/>
        <pt x="404" y="3493" on="0"/>
        <pt x="489" y="3493" on="0"/>
        <pt x="606" y="3349" on="0"/>
        <pt x="606" y="3262" on="0"/>
        <pt x="468" y="3137" on="0"/>
      </contour>
      <contour>
        <pt x="992" y="3137" on="0"/>
        <pt x="861" y="3271" on="0"/>
        <pt x="861" y="3361" on="0"/>
        <pt x="1004" y="3493" on="0"/>
        <pt x="1088" y="3493" on="0"/>
        <pt x="1209" y="3348" on="0"/>
        <pt x="1209" y="3262" on="0"/>
        <pt x="1071" y="3137" on="0"/>
      </contour>
    </TTGlyph>
    <TTGlyph name="Idotaccent" xMin="86" yMin="0" xMax="1171" yMax="3493">
      <component glyphName="uni0307.cap" x="1528" y="999" flags="0x1004"/>
      <component glyphName="I" x="0" y="0" flags="0x1004"/>
    </TTGlyph>
    <TTGlyph name="Igrave" xMin="86" yMin="0" xMax="1171" yMax="3559">
      <component glyphName="gravecomb.cap" x="1528" y="999" flags="0x1004"/>
      <component glyphName="I" x="0" y="0" flags="0x1004"/>
    </TTGlyph>
    <TTGlyph name="Imacron" xMin="86" yMin="0" xMax="1225" yMax="3420">
      <component glyphName="uni0304.cap" x="1528" y="999" flags="0x1004"/>
      <component glyphName="I" x="0" y="0" flags="0x1004"/>
    </TTGlyph>
    <TTGlyph name="Iogonek" xMin="86" yMin="-1065" xMax="1171" yMax="2732">
      <contour>
        <pt x="523" y="-833" on="0"/>
        <pt x="634" y="-881" on="0"/>
        <pt x="824" y="-881" on="0"/>
        <pt x="922" y="-799" on="1"/>
        <pt x="958" y="-856" on="1"/>
        <pt x="902" y="-946" on="0"/>
        <pt x="693" y="-1065" on="0"/>
        <pt x="500" y="-1065" on="0"/>
        <pt x="379" y="-1037" on="0"/>
        <pt x="268" y="-974" on="0"/>
        <pt x="226" y="-928" on="1"/>
        <pt x="135" y="-827" on="0"/>
        <pt x="135" y="-659" on="1"/>
        <pt x="135" y="-497" on="0"/>
        <pt x="194" y="-387" on="1"/>
        <pt x="282" y="-224" on="0"/>
        <pt x="463" y="0" on="1"/>
        <pt x="86" y="0" on="1"/>
        <pt x="90" y="131" on="1"/>
        <pt x="180" y="131" on="1"/>
        <pt x="307" y="131" on="0"/>
        <pt x="345" y="169" on="0"/>
        <pt x="355" y="192" on="1"/>
        <pt x="369" y="226" on="0"/>
        <pt x="377" y="319" on="1"/>
        <pt x="586" y="2441" on="1"/>
        <pt x="590" y="2474" on="0"/>
        <pt x="590" y="2576" on="0"/>
        <pt x="536" y="2601" on="0"/>
        <pt x="442" y="2601" on="1"/>
        <pt x="250" y="2601" on="1"/>
        <pt x="254" y="2732" on="1"/>
        <pt x="1171" y="2732" on="1"/>
        <pt x="1163" y="2601" on="1"/>
        <pt x="1109" y="2601" on="0"/>
        <pt x="1037" y="2601" on="0"/>
        <pt x="981" y="2598" on="0"/>
        <pt x="960" y="2596" on="0"/>
        <pt x="924" y="2587" on="0"/>
        <pt x="914" y="2578" on="0"/>
        <pt x="893" y="2558" on="0"/>
        <pt x="888" y="2540" on="0"/>
        <pt x="878" y="2506" on="0"/>
        <pt x="875" y="2474" on="0"/>
        <pt x="872" y="2449" on="1"/>
        <pt x="664" y="336" on="1"/>
        <pt x="655" y="235" on="0"/>
        <pt x="655" y="204" on="0"/>
        <pt x="659" y="174" on="0"/>
        <pt x="679" y="150" on="0"/>
        <pt x="702" y="139" on="0"/>
        <pt x="731" y="136" on="1"/>
        <pt x="768" y="131" on="0"/>
        <pt x="872" y="131" on="1"/>
        <pt x="1044" y="131" on="1"/>
        <pt x="1040" y="0" on="1"/>
        <pt x="582" y="0" on="1"/>
        <pt x="480" y="-144" on="0"/>
        <pt x="393" y="-363" on="0"/>
        <pt x="393" y="-551" on="0"/>
        <pt x="410" y="-654" on="0"/>
        <pt x="454" y="-757" on="0"/>
      </contour>
    </TTGlyph>
    <TTGlyph name="Itilde" xMin="86" yMin="0" xMax="1245" yMax="3543">
      <component glyphName="tildecomb.cap" x="1528" y="999" flags="0x1004"/>
      <component glyphName="I" x="0" y="0" flags="0x1004"/>
    </TTGlyph>
    <TTGlyph name="J" xMin="-426" yMin="-1077" xMax="1245" yMax="2732">
      <contour>
        <pt x="-231" y="-1077" on="0"/>
        <pt x="-426" y="-922" on="0"/>
        <pt x="-426" y="-685" on="0"/>
        <pt x="-307" y="-549" on="0"/>
        <pt x="-238" y="-549" on="1"/>
        <pt x="-198" y="-549" on="0"/>
        <pt x="-167" y="-575" on="0"/>
        <pt x="-156" y="-583" on="0"/>
        <pt x="-141" y="-607" on="0"/>
        <pt x="-134" y="-617" on="0"/>
        <pt x="-121" y="-647" on="0"/>
        <pt x="-117" y="-656" on="0"/>
        <pt x="-104" y="-692" on="0"/>
        <pt x="-82" y="-744" on="1"/>
        <pt x="-21" y="-881" on="0"/>
        <pt x="90" y="-881" on="1"/>
        <pt x="205" y="-881" on="0"/>
        <pt x="279" y="-782" on="1"/>
        <pt x="308" y="-744" on="0"/>
        <pt x="335" y="-640" on="0"/>
        <pt x="429" y="-14" on="0"/>
        <pt x="459" y="336" on="1"/>
        <pt x="659" y="2441" on="1"/>
        <pt x="664" y="2482" on="0"/>
        <pt x="664" y="2576" on="0"/>
        <pt x="610" y="2601" on="0"/>
        <pt x="516" y="2601" on="1"/>
        <pt x="213" y="2601" on="1"/>
        <pt x="213" y="2732" on="1"/>
        <pt x="1245" y="2732" on="1"/>
        <pt x="1245" y="2601" on="1"/>
        <pt x="1106" y="2601" on="1"/>
        <pt x="1005" y="2601" on="0"/>
        <pt x="972" y="2570" on="0"/>
        <pt x="964" y="2552" on="1"/>
        <pt x="952" y="2523" on="0"/>
        <pt x="946" y="2449" on="1"/>
        <pt x="680" y="-332" on="1"/>
        <pt x="659" y="-556" on="0"/>
        <pt x="579" y="-699" on="0"/>
        <pt x="492" y="-812" on="0"/>
        <pt x="364" y="-932" on="0"/>
        <pt x="293" y="-976" on="1"/>
        <pt x="130" y="-1077" on="0"/>
      </contour>
    </TTGlyph>
    <TTGlyph name="Jcircumflex" xMin="-426" yMin="-1077" xMax="1245" yMax="3560">
      <component glyphName="uni0302.cap" x="1548" y="1016" flags="0x1004"/>
      <component glyphName="J" x="0" y="0" flags="0x1004"/>
    </TTGlyph>
    <TTGlyph name="K" xMin="90" yMin="0" xMax="2978" yMax="2732">
      <contour>
        <pt x="90" y="0" on="1"/>
        <pt x="90" y="131" on="1"/>
        <pt x="180" y="131" on="1"/>
        <pt x="308" y="131" on="0"/>
        <pt x="344" y="169" on="0"/>
        <pt x="354" y="192" on="1"/>
        <pt x="367" y="226" on="0"/>
        <pt x="373" y="319" on="1"/>
        <pt x="545" y="2441" on="1"/>
        <pt x="549" y="2474" on="0"/>
        <pt x="549" y="2576" on="0"/>
        <pt x="495" y="2601" on="0"/>
        <pt x="401" y="2601" on="1"/>
        <pt x="250" y="2601" on="1"/>
        <pt x="250" y="2732" on="1"/>
        <pt x="1135" y="2732" on="1"/>
        <pt x="1130" y="2601" on="1"/>
        <pt x="1072" y="2601" on="0"/>
        <pt x="996" y="2601" on="0"/>
        <pt x="939" y="2598" on="0"/>
        <pt x="918" y="2596" on="0"/>
        <pt x="881" y="2587" on="0"/>
        <pt x="871" y="2578" on="0"/>
        <pt x="850" y="2559" on="0"/>
        <pt x="846" y="2539" on="0"/>
        <pt x="841" y="2523" on="1"/>
        <pt x="836" y="2505" on="0"/>
        <pt x="831" y="2449" on="1"/>
        <pt x="737" y="1286" on="1"/>
        <pt x="2175" y="2433" on="1"/>
        <pt x="2201" y="2454" on="0"/>
        <pt x="2261" y="2500" on="0"/>
        <pt x="2291" y="2524" on="0"/>
        <pt x="2306" y="2539" on="0"/>
        <pt x="2314" y="2547" on="1"/>
        <pt x="2327" y="2561" on="0"/>
        <pt x="2327" y="2572" on="1"/>
        <pt x="2327" y="2601" on="0"/>
        <pt x="2212" y="2601" on="1"/>
        <pt x="2085" y="2601" on="1"/>
        <pt x="2085" y="2732" on="1"/>
        <pt x="2978" y="2732" on="1"/>
        <pt x="2970" y="2601" on="1"/>
        <pt x="2798" y="2601" on="1"/>
        <pt x="2705" y="2601" on="0"/>
        <pt x="2602" y="2552" on="0"/>
        <pt x="2557" y="2521" on="1"/>
        <pt x="2462" y="2456" on="0"/>
        <pt x="2306" y="2335" on="1"/>
        <pt x="1278" y="1540" on="1"/>
        <pt x="2301" y="131" on="0"/>
        <pt x="2576" y="131" on="1"/>
        <pt x="2802" y="131" on="1"/>
        <pt x="2793" y="0" on="1"/>
        <pt x="2089" y="0" on="1"/>
        <pt x="1639" y="531" on="0"/>
        <pt x="1053" y="1372" on="1"/>
        <pt x="725" y="1122" on="1"/>
        <pt x="659" y="336" on="1"/>
        <pt x="655" y="291" on="0"/>
        <pt x="655" y="204" on="0"/>
        <pt x="659" y="174" on="0"/>
        <pt x="679" y="150" on="0"/>
        <pt x="702" y="139" on="0"/>
        <pt x="731" y="136" on="1"/>
        <pt x="768" y="131" on="0"/>
        <pt x="872" y="131" on="1"/>
        <pt x="1044" y="131" on="1"/>
        <pt x="1044" y="0" on="1"/>
      </contour>
    </TTGlyph>
    <TTGlyph name="Kcommaaccent" xMin="90" yMin="-946" xMax="2978" yMax="2732">
      <component glyphName="uni0326" x="2265" y="12" flags="0x1004"/>
      <component glyphName="K" x="0" y="0" flags="0x1004"/>
    </TTGlyph>
    <TTGlyph name="L" xMin="82" yMin="0" xMax="2060" yMax="2732">
      <contour>
        <pt x="2060" y="582" on="1"/>
        <pt x="1896" y="0" on="1"/>
        <pt x="82" y="0" on="1"/>
        <pt x="86" y="131" on="1"/>
        <pt x="205" y="131" on="1"/>
        <pt x="312" y="131" on="0"/>
        <pt x="367" y="169" on="0"/>
        <pt x="373" y="254" on="1"/>
        <pt x="532" y="2504" on="0"/>
        <pt x="532" y="2537" on="1"/>
        <pt x="532" y="2601" on="0"/>
        <pt x="373" y="2601" on="1"/>
        <pt x="172" y="2601" on="1"/>
        <pt x="180" y="2732" on="1"/>
        <pt x="1143" y="2732" on="1"/>
        <pt x="1143" y="2601" on="1"/>
        <pt x="954" y="2601" on="1"/>
        <pt x="856" y="2601" on="0"/>
        <pt x="839" y="2572" on="1"/>
        <pt x="818" y="2537" on="0"/>
        <pt x="812" y="2433" on="0"/>
        <pt x="664" y="270" on="0"/>
        <pt x="664" y="234" on="1"/>
        <pt x="664" y="160" on="0"/>
        <pt x="1032" y="160" on="0"/>
        <pt x="1738" y="219" on="0"/>
        <pt x="1833" y="251" on="0"/>
        <pt x="1873" y="337" on="0"/>
        <pt x="1943" y="573" on="0"/>
        <pt x="1954" y="610" on="1"/>
      </contour>
    </TTGlyph>
    <TTGlyph name="L.CAT" xMin="82" yMin="0" xMax="2060" yMax="2732">
      <component glyphName="L" x="0" y="0" flags="0x1004"/>
    </TTGlyph>
    <TTGlyph name="Lacute" xMin="82" yMin="0" xMax="2060" yMax="3559">
      <component glyphName="acutecomb.cap" x="1487" y="999" flags="0x1004"/>
      <component glyphName="L" x="0" y="0" flags="0x1004"/>
    </TTGlyph>
    <TTGlyph name="Lcaron" xMin="82" yMin="0" xMax="2060" yMax="2732">
      <component glyphName="uni0315" x="2351" y="0" flags="0x1004"/>
      <component glyphName="L" x="0" y="0" flags="0x1004"/>
    </TTGlyph>
    <TTGlyph name="Lcommaaccent" xMin="82" yMin="-811" xMax="2060" yMax="2732">
      <component glyphName="uni0326" x="1802" y="147" flags="0x1004"/>
      <component glyphName="L" x="0" y="0" flags="0x1004"/>
    </TTGlyph>
    <TTGlyph name="Ldot" xMin="82" yMin="0" xMax="2060" yMax="2732">
      <component glyphName="periodcentered" x="1274" y="0" flags="0x1004"/>
      <component glyphName="L" x="0" y="0" flags="0x1004"/>
    </TTGlyph>
    <TTGlyph name="Lslash" xMin="82" yMin="0" xMax="2060" yMax="2732">
      <contour>
        <pt x="2060" y="582" on="1"/>
        <pt x="1896" y="0" on="1"/>
        <pt x="82" y="0" on="1"/>
        <pt x="86" y="131" on="1"/>
        <pt x="205" y="131" on="1"/>
        <pt x="312" y="131" on="0"/>
        <pt x="367" y="169" on="0"/>
        <pt x="373" y="254" on="1"/>
        <pt x="434" y="1151" on="1"/>
        <pt x="168" y="1077" on="1"/>
        <pt x="180" y="1241" on="1"/>
        <pt x="446" y="1311" on="1"/>
        <pt x="528" y="2458" on="1"/>
        <pt x="539" y="2555" on="0"/>
        <pt x="481" y="2601" on="0"/>
        <pt x="373" y="2601" on="1"/>
        <pt x="172" y="2601" on="1"/>
        <pt x="180" y="2732" on="1"/>
        <pt x="1143" y="2732" on="1"/>
        <pt x="1143" y="2601" on="1"/>
        <pt x="954" y="2601" on="1"/>
        <pt x="856" y="2601" on="0"/>
        <pt x="839" y="2572" on="1"/>
        <pt x="818" y="2537" on="0"/>
        <pt x="812" y="2433" on="0"/>
        <pt x="811" y="2421" on="1"/>
        <pt x="741" y="1393" on="1"/>
        <pt x="1626" y="1634" on="1"/>
        <pt x="1606" y="1454" on="1"/>
        <pt x="729" y="1229" on="1"/>
        <pt x="664" y="283" on="1"/>
        <pt x="664" y="258" on="1"/>
        <pt x="664" y="199" on="0"/>
        <pt x="726" y="160" on="0"/>
        <pt x="1032" y="160" on="0"/>
        <pt x="1738" y="219" on="0"/>
        <pt x="1833" y="251" on="0"/>
        <pt x="1873" y="337" on="0"/>
        <pt x="1943" y="573" on="0"/>
        <pt x="1954" y="610" on="1"/>
      </contour>
    </TTGlyph>
    <TTGlyph name="M" xMin="123" yMin="-63" xMax="3338" yMax="2732">
      <contour>
        <pt x="2999" y="2305" on="1"/>
        <pt x="2998" y="2290" on="1"/>
        <pt x="2879" y="308" on="0"/>
        <pt x="2879" y="230" on="0"/>
        <pt x="2894" y="175" on="0"/>
        <pt x="2912" y="147" on="0"/>
        <pt x="2932" y="140" on="1"/>
        <pt x="2958" y="131" on="0"/>
        <pt x="3006" y="131" on="1"/>
        <pt x="3199" y="131" on="1"/>
        <pt x="3199" y="0" on="1"/>
        <pt x="2245" y="0" on="1"/>
        <pt x="2253" y="131" on="1"/>
        <pt x="2421" y="131" on="1"/>
        <pt x="2528" y="131" on="0"/>
        <pt x="2583" y="169" on="0"/>
        <pt x="2589" y="254" on="1"/>
        <pt x="2707" y="2236" on="1"/>
        <pt x="1626" y="49" on="1"/>
        <pt x="1620" y="37" on="0"/>
        <pt x="1603" y="2" on="0"/>
        <pt x="1594" y="-16" on="0"/>
        <pt x="1581" y="-41" on="0"/>
        <pt x="1572" y="-53" on="0"/>
        <pt x="1566" y="-59" on="1"/>
        <pt x="1537" y="-92" on="0"/>
        <pt x="1518" y="-62" on="1"/>
        <pt x="1488" y="-13" on="0"/>
        <pt x="1470" y="49" on="1"/>
        <pt x="709" y="2208" on="1"/>
        <pt x="557" y="238" on="0"/>
        <pt x="557" y="165" on="0"/>
        <pt x="606" y="131" on="0"/>
        <pt x="680" y="131" on="1"/>
        <pt x="897" y="131" on="1"/>
        <pt x="897" y="0" on="1"/>
        <pt x="123" y="0" on="1"/>
        <pt x="131" y="131" on="1"/>
        <pt x="221" y="131" on="1"/>
        <pt x="344" y="131" on="0"/>
        <pt x="381" y="166" on="0"/>
        <pt x="390" y="190" on="1"/>
        <pt x="400" y="217" on="0"/>
        <pt x="410" y="307" on="1"/>
        <pt x="606" y="2449" on="1"/>
        <pt x="569" y="2548" on="1"/>
        <pt x="557" y="2580" on="0"/>
        <pt x="511" y="2601" on="0"/>
        <pt x="459" y="2601" on="1"/>
        <pt x="131" y="2601" on="1"/>
        <pt x="139" y="2732" on="1"/>
        <pt x="836" y="2732" on="1"/>
        <pt x="1647" y="410" on="1"/>
        <pt x="2806" y="2732" on="1"/>
        <pt x="3338" y="2732" on="1"/>
        <pt x="3338" y="2601" on="1"/>
        <pt x="3170" y="2601" on="1"/>
        <pt x="3086" y="2601" on="0"/>
        <pt x="3028" y="2571" on="0"/>
        <pt x="3022" y="2538" on="1"/>
        <pt x="2999" y="2400" on="0"/>
      </contour>
    </TTGlyph>
    <TTGlyph name="M.001" xMin="61" yMin="-63" xMax="3334" yMax="2732">
      <contour>
        <pt x="128" y="-16" on="0"/>
        <pt x="61" y="59" on="0"/>
        <pt x="61" y="150" on="0"/>
        <pt x="95" y="209" on="0"/>
        <pt x="123" y="209" on="0"/>
        <pt x="158" y="193" on="0"/>
        <pt x="234" y="193" on="0"/>
        <pt x="307" y="262" on="0"/>
        <pt x="358" y="364" on="0"/>
        <pt x="401" y="509" on="0"/>
        <pt x="427" y="634" on="0"/>
        <pt x="438" y="706" on="1"/>
        <pt x="451" y="791" on="0"/>
        <pt x="459" y="881" on="1"/>
        <pt x="598" y="2458" on="1"/>
        <pt x="565" y="2548" on="1"/>
        <pt x="553" y="2580" on="0"/>
        <pt x="507" y="2601" on="0"/>
        <pt x="455" y="2601" on="1"/>
        <pt x="127" y="2601" on="1"/>
        <pt x="135" y="2732" on="1"/>
        <pt x="831" y="2732" on="1"/>
        <pt x="1642" y="410" on="1"/>
        <pt x="2802" y="2732" on="1"/>
        <pt x="3334" y="2732" on="1"/>
        <pt x="3334" y="2601" on="1"/>
        <pt x="3166" y="2601" on="1"/>
        <pt x="3049" y="2601" on="0"/>
        <pt x="3006" y="2523" on="0"/>
        <pt x="2994" y="2290" on="1"/>
        <pt x="2875" y="308" on="0"/>
        <pt x="2875" y="230" on="0"/>
        <pt x="2890" y="175" on="0"/>
        <pt x="2908" y="147" on="0"/>
        <pt x="2928" y="140" on="1"/>
        <pt x="2954" y="131" on="0"/>
        <pt x="3002" y="131" on="1"/>
        <pt x="3195" y="131" on="1"/>
        <pt x="3195" y="0" on="1"/>
        <pt x="2241" y="0" on="1"/>
        <pt x="2245" y="131" on="1"/>
        <pt x="2417" y="131" on="1"/>
        <pt x="2524" y="131" on="0"/>
        <pt x="2579" y="169" on="0"/>
        <pt x="2585" y="254" on="1"/>
        <pt x="2703" y="2236" on="1"/>
        <pt x="1622" y="49" on="1"/>
        <pt x="1616" y="37" on="0"/>
        <pt x="1599" y="2" on="0"/>
        <pt x="1590" y="-16" on="0"/>
        <pt x="1577" y="-41" on="0"/>
        <pt x="1568" y="-53" on="0"/>
        <pt x="1562" y="-59" on="1"/>
        <pt x="1533" y="-92" on="0"/>
        <pt x="1514" y="-62" on="1"/>
        <pt x="1484" y="-13" on="0"/>
        <pt x="1466" y="49" on="1"/>
        <pt x="713" y="2195" on="1"/>
        <pt x="594" y="831" on="1"/>
        <pt x="565" y="525" on="0"/>
        <pt x="505" y="296" on="0"/>
        <pt x="444" y="144" on="0"/>
        <pt x="408" y="96" on="1"/>
        <pt x="324" y="-16" on="0"/>
      </contour>
    </TTGlyph>
    <TTGlyph name="M.002" xMin="0" yMin="-889" xMax="3973" yMax="2916">
      <contour>
        <pt x="3858" y="2818" on="1"/>
        <pt x="3695" y="270" on="1"/>
        <pt x="3695" y="169" on="0"/>
        <pt x="3722" y="153" on="1"/>
        <pt x="3756" y="131" on="0"/>
        <pt x="3813" y="131" on="1"/>
        <pt x="3973" y="131" on="1"/>
        <pt x="3973" y="0" on="1"/>
        <pt x="3076" y="0" on="1"/>
        <pt x="3084" y="131" on="1"/>
        <pt x="3236" y="131" on="1"/>
        <pt x="3343" y="131" on="0"/>
        <pt x="3398" y="169" on="0"/>
        <pt x="3404" y="254" on="1"/>
        <pt x="3531" y="2175" on="1"/>
        <pt x="2425" y="90" on="1"/>
        <pt x="2358" y="-33" on="0"/>
        <pt x="2295" y="-33" on="0"/>
        <pt x="2273" y="49" on="1"/>
        <pt x="1659" y="2130" on="1"/>
        <pt x="1626" y="1778" on="1"/>
        <pt x="1449" y="587" on="0"/>
        <pt x="1319" y="123" on="1"/>
        <pt x="1182" y="-381" on="0"/>
        <pt x="942" y="-643" on="1"/>
        <pt x="714" y="-889" on="0"/>
        <pt x="463" y="-889" on="1"/>
        <pt x="325" y="-889" on="0"/>
        <pt x="143" y="-731" on="0"/>
        <pt x="143" y="-514" on="0"/>
        <pt x="257" y="-381" on="0"/>
        <pt x="322" y="-381" on="1"/>
        <pt x="446" y="-381" on="0"/>
        <pt x="446" y="-442" on="1"/>
        <pt x="446" y="-465" on="0"/>
        <pt x="379" y="-476" on="0"/>
        <pt x="328" y="-505" on="0"/>
        <pt x="328" y="-605" on="0"/>
        <pt x="432" y="-688" on="0"/>
        <pt x="591" y="-688" on="0"/>
        <pt x="759" y="-597" on="0"/>
        <pt x="830" y="-522" on="1"/>
        <pt x="976" y="-371" on="0"/>
        <pt x="1153" y="23" on="0"/>
        <pt x="1326" y="693" on="0"/>
        <pt x="1444" y="1359" on="0"/>
        <pt x="1535" y="1967" on="0"/>
        <pt x="1586" y="2347" on="0"/>
        <pt x="1589" y="2347" on="1"/>
        <pt x="1532" y="2585" on="1"/>
        <pt x="1462" y="2556" on="0"/>
        <pt x="1308" y="2556" on="0"/>
        <pt x="1186" y="2580" on="0"/>
        <pt x="1137" y="2595" on="1"/>
        <pt x="1010" y="2634" on="0"/>
        <pt x="632" y="2634" on="0"/>
        <pt x="468" y="2590" on="0"/>
        <pt x="323" y="2504" on="0"/>
        <pt x="266" y="2447" on="1"/>
        <pt x="143" y="2324" on="0"/>
        <pt x="143" y="1976" on="0"/>
        <pt x="404" y="1729" on="0"/>
        <pt x="745" y="1729" on="0"/>
        <pt x="979" y="1916" on="0"/>
        <pt x="979" y="2062" on="0"/>
        <pt x="918" y="2130" on="0"/>
        <pt x="872" y="2130" on="1"/>
        <pt x="818" y="2119" on="0"/>
        <pt x="805" y="2161" on="0"/>
        <pt x="856" y="2224" on="0"/>
        <pt x="966" y="2224" on="0"/>
        <pt x="1045" y="2196" on="0"/>
        <pt x="1080" y="2169" on="1"/>
        <pt x="1159" y="2109" on="0"/>
        <pt x="1159" y="1890" on="0"/>
        <pt x="996" y="1713" on="0"/>
        <pt x="746" y="1610" on="0"/>
        <pt x="484" y="1610" on="0"/>
        <pt x="249" y="1716" on="0"/>
        <pt x="170" y="1803" on="1"/>
        <pt x="0" y="1990" on="0"/>
        <pt x="0" y="2232" on="1"/>
        <pt x="0" y="2629" on="0"/>
        <pt x="334" y="2792" on="1"/>
        <pt x="494" y="2871" on="0"/>
        <pt x="750" y="2871" on="0"/>
        <pt x="934" y="2824" on="0"/>
        <pt x="1082" y="2756" on="0"/>
        <pt x="1152" y="2722" on="1"/>
        <pt x="1319" y="2642" on="0"/>
        <pt x="1421" y="2642" on="1"/>
        <pt x="1471" y="2642" on="0"/>
        <pt x="1507" y="2654" on="1"/>
        <pt x="1454" y="2851" on="0"/>
        <pt x="1454" y="2867" on="1"/>
        <pt x="1454" y="2916" on="0"/>
        <pt x="1532" y="2916" on="1"/>
        <pt x="1614" y="2916" on="1"/>
        <pt x="1672" y="2916" on="0"/>
        <pt x="1703" y="2883" on="0"/>
        <pt x="1730" y="2787" on="0"/>
        <pt x="1733" y="2777" on="1"/>
        <pt x="2449" y="410" on="1"/>
        <pt x="2937" y="1318" on="0"/>
        <pt x="3648" y="2689" on="0"/>
        <pt x="3760" y="2875" on="0"/>
        <pt x="3801" y="2875" on="1"/>
        <pt x="3858" y="2875" on="0"/>
      </contour>
    </TTGlyph>
    <TTGlyph name="N" xMin="123" yMin="-70" xMax="3023" yMax="2732">
      <contour>
        <pt x="717" y="2277" on="1"/>
        <pt x="565" y="465" on="0"/>
        <pt x="565" y="209" on="1"/>
        <pt x="565" y="135" on="0"/>
        <pt x="652" y="132" on="1"/>
        <pt x="664" y="131" on="0"/>
        <pt x="688" y="131" on="1"/>
        <pt x="913" y="131" on="1"/>
        <pt x="909" y="0" on="1"/>
        <pt x="131" y="0" on="1"/>
        <pt x="139" y="131" on="1"/>
        <pt x="229" y="131" on="1"/>
        <pt x="353" y="131" on="0"/>
        <pt x="388" y="166" on="0"/>
        <pt x="396" y="189" on="1"/>
        <pt x="409" y="222" on="0"/>
        <pt x="414" y="307" on="1"/>
        <pt x="594" y="2413" on="1"/>
        <pt x="572" y="2439" on="0"/>
        <pt x="509" y="2516" on="0"/>
        <pt x="485" y="2545" on="0"/>
        <pt x="440" y="2581" on="0"/>
        <pt x="418" y="2590" on="0"/>
        <pt x="355" y="2601" on="0"/>
        <pt x="329" y="2601" on="1"/>
        <pt x="123" y="2601" on="1"/>
        <pt x="131" y="2732" on="1"/>
        <pt x="762" y="2732" on="1"/>
        <pt x="2396" y="426" on="1"/>
        <pt x="2540" y="1901" on="1"/>
        <pt x="2549" y="1986" on="0"/>
        <pt x="2567" y="2146" on="1"/>
        <pt x="2601" y="2448" on="0"/>
        <pt x="2601" y="2566" on="0"/>
        <pt x="2548" y="2601" on="0"/>
        <pt x="2462" y="2601" on="1"/>
        <pt x="2261" y="2601" on="1"/>
        <pt x="2265" y="2732" on="1"/>
        <pt x="3023" y="2732" on="1"/>
        <pt x="3015" y="2601" on="1"/>
        <pt x="2912" y="2601" on="1"/>
        <pt x="2795" y="2601" on="0"/>
        <pt x="2763" y="2558" on="0"/>
        <pt x="2753" y="2540" on="0"/>
        <pt x="2749" y="2520" on="1"/>
        <pt x="2728" y="2415" on="0"/>
        <pt x="2691" y="1999" on="1"/>
        <pt x="2490" y="29" on="1"/>
        <pt x="2482" y="-56" on="0"/>
        <pt x="2456" y="-70" on="0"/>
        <pt x="2418" y="-70" on="0"/>
        <pt x="2389" y="-48" on="0"/>
        <pt x="2351" y="4" on="1"/>
      </contour>
    </TTGlyph>
    <TTGlyph name="N.001" xMin="115" yMin="-512" xMax="3334" yMax="2732">
      <contour>
        <pt x="156" y="209" on="1"/>
        <pt x="266" y="184" on="1"/>
        <pt x="406" y="184" on="0"/>
        <pt x="478" y="478" on="1"/>
        <pt x="502" y="578" on="0"/>
        <pt x="516" y="733" on="1"/>
        <pt x="688" y="2404" on="1"/>
        <pt x="618" y="2490" on="1"/>
        <pt x="555" y="2568" on="0"/>
        <pt x="463" y="2601" on="0"/>
        <pt x="319" y="2601" on="1"/>
        <pt x="115" y="2601" on="1"/>
        <pt x="123" y="2732" on="1"/>
        <pt x="836" y="2732" on="1"/>
        <pt x="2474" y="418" on="1"/>
        <pt x="2658" y="2396" on="1"/>
        <pt x="2662" y="2433" on="0"/>
        <pt x="2662" y="2520" on="0"/>
        <pt x="2650" y="2561" on="0"/>
        <pt x="2631" y="2587" on="0"/>
        <pt x="2604" y="2592" on="1"/>
        <pt x="2562" y="2601" on="0"/>
        <pt x="2470" y="2601" on="1"/>
        <pt x="2335" y="2601" on="1"/>
        <pt x="2339" y="2732" on="1"/>
        <pt x="3097" y="2732" on="1"/>
        <pt x="3088" y="2601" on="1"/>
        <pt x="2974" y="2601" on="1"/>
        <pt x="2892" y="2601" on="0"/>
        <pt x="2873" y="2576" on="1"/>
        <pt x="2848" y="2542" on="0"/>
        <pt x="2834" y="2421" on="1"/>
        <pt x="2572" y="283" on="1"/>
        <pt x="2891" y="-167" on="0"/>
        <pt x="3068" y="-266" on="1"/>
        <pt x="3126" y="-298" on="0"/>
        <pt x="3283" y="-365" on="0"/>
        <pt x="3334" y="-405" on="0"/>
        <pt x="3334" y="-480" on="0"/>
        <pt x="3277" y="-512" on="0"/>
        <pt x="3039" y="-512" on="0"/>
        <pt x="2798" y="-410" on="0"/>
        <pt x="2574" y="-193" on="0"/>
        <pt x="2433" y="4" on="1"/>
        <pt x="803" y="2269" on="1"/>
        <pt x="668" y="831" on="1"/>
        <pt x="587" y="-16" on="0"/>
        <pt x="287" y="-16" on="1"/>
        <pt x="209" y="-16" on="0"/>
        <pt x="115" y="71" on="0"/>
        <pt x="115" y="209" on="0"/>
      </contour>
    </TTGlyph>
    <TTGlyph name="Nacute" xMin="123" yMin="-70" xMax="3023" yMax="3559">
      <component glyphName="acutecomb.cap" x="2425" y="999" flags="0x1004"/>
      <component glyphName="N" x="0" y="0" flags="0x1004"/>
    </TTGlyph>
    <TTGlyph name="Nacute.001" xMin="115" yMin="-512" xMax="3334" yMax="3559">
      <component glyphName="acutecomb.cap" x="2519" y="999" flags="0x1004"/>
      <component glyphName="N.001" x="0" y="0" flags="0x1004"/>
    </TTGlyph>
    <TTGlyph name="Ncaron" xMin="123" yMin="-70" xMax="3023" yMax="3543">
      <component glyphName="uni030C.cap" x="2425" y="999" flags="0x1004"/>
      <component glyphName="N" x="0" y="0" flags="0x1004"/>
    </TTGlyph>
    <TTGlyph name="Ncaron.001" xMin="115" yMin="-512" xMax="3334" yMax="3543">
      <component glyphName="uni030C.cap" x="2519" y="999" flags="0x1004"/>
      <component glyphName="N.001" x="0" y="0" flags="0x1004"/>
    </TTGlyph>
    <TTGlyph name="Ncommaaccent" xMin="123" yMin="-958" xMax="3023" yMax="2732">
      <component glyphName="uni0326" x="2322" y="0" flags="0x1004"/>
      <component glyphName="N" x="0" y="0" flags="0x1004"/>
    </TTGlyph>
    <TTGlyph name="Ncommaaccent.001" xMin="115" yMin="-958" xMax="3334" yMax="2732">
      <component glyphName="uni0326" x="2294" y="0" flags="0x1004"/>
      <component glyphName="N.001" x="0" y="0" flags="0x1004"/>
    </TTGlyph>
    <TTGlyph name="Ntilde" xMin="123" yMin="-70" xMax="3023" yMax="3543">
      <component glyphName="tildecomb.cap" x="2425" y="999" flags="0x1004"/>
      <component glyphName="N" x="0" y="0" flags="0x1004"/>
    </TTGlyph>
    <TTGlyph name="Ntilde.001" xMin="115" yMin="-512" xMax="3334" yMax="3543">
      <component glyphName="tildecomb.cap" x="2519" y="999" flags="0x1004"/>
      <component glyphName="N.001" x="0" y="0" flags="0x1004"/>
    </TTGlyph>
    <TTGlyph name="O" xMin="184" yMin="-66" xMax="2777" yMax="2810">
      <contour>
        <pt x="184" y="1219" on="1"/>
        <pt x="184" y="1437" on="0"/>
        <pt x="277" y="1848" on="0"/>
        <pt x="449" y="2199" on="0"/>
        <pt x="703" y="2491" on="0"/>
        <pt x="858" y="2594" on="1"/>
        <pt x="1185" y="2810" on="0"/>
        <pt x="1606" y="2810" on="1"/>
        <pt x="2091" y="2810" on="0"/>
        <pt x="2402" y="2518" on="1"/>
        <pt x="2777" y="2166" on="0"/>
        <pt x="2777" y="1540" on="1"/>
        <pt x="2777" y="1025" on="0"/>
        <pt x="2501" y="585" on="1"/>
        <pt x="2320" y="296" on="0"/>
        <pt x="2021" y="118" on="1"/>
        <pt x="1713" y="-66" on="0"/>
        <pt x="1315" y="-66" on="1"/>
        <pt x="655" y="-66" on="0"/>
        <pt x="346" y="490" on="1"/>
        <pt x="184" y="782" on="0"/>
      </contour>
      <contour>
        <pt x="520" y="1292" on="1"/>
        <pt x="520" y="1062" on="0"/>
        <pt x="617" y="657" on="0"/>
        <pt x="784" y="373" on="0"/>
        <pt x="897" y="274" on="1"/>
        <pt x="1116" y="82" on="0"/>
        <pt x="1405" y="82" on="1"/>
        <pt x="1660" y="82" on="0"/>
        <pt x="1898" y="244" on="1"/>
        <pt x="2132" y="403" on="0"/>
        <pt x="2284" y="722" on="1"/>
        <pt x="2441" y="1050" on="0"/>
        <pt x="2441" y="1507" on="1"/>
        <pt x="2441" y="2175" on="0"/>
        <pt x="2066" y="2494" on="1"/>
        <pt x="1847" y="2679" on="0"/>
        <pt x="1561" y="2679" on="1"/>
        <pt x="1305" y="2679" on="0"/>
        <pt x="1066" y="2523" on="1"/>
        <pt x="830" y="2370" on="0"/>
        <pt x="677" y="2061" on="1"/>
        <pt x="520" y="1745" on="0"/>
      </contour>
    </TTGlyph>
    <TTGlyph name="OE" xMin="184" yMin="-41" xMax="3690" yMax="2769">
      <contour>
        <pt x="2733" y="2599" on="1"/>
        <pt x="2597" y="2601" on="1"/>
        <pt x="2529" y="2601" on="0"/>
        <pt x="2489" y="2582" on="0"/>
        <pt x="2486" y="2544" on="1"/>
        <pt x="2404" y="1630" on="1"/>
        <pt x="3142" y="1630" on="1"/>
        <pt x="3228" y="1630" on="0"/>
        <pt x="3272" y="1664" on="0"/>
        <pt x="3281" y="1737" on="1"/>
        <pt x="3301" y="1937" on="1"/>
        <pt x="3391" y="1933" on="1"/>
        <pt x="3326" y="1094" on="1"/>
        <pt x="3228" y="1098" on="1"/>
        <pt x="3248" y="1374" on="0"/>
        <pt x="3248" y="1402" on="1"/>
        <pt x="3248" y="1470" on="0"/>
        <pt x="3121" y="1470" on="1"/>
        <pt x="2388" y="1470" on="1"/>
        <pt x="2294" y="381" on="1"/>
        <pt x="2286" y="275" on="0"/>
        <pt x="2286" y="210" on="0"/>
        <pt x="2323" y="188" on="0"/>
        <pt x="2384" y="188" on="1"/>
        <pt x="2445" y="188" on="1"/>
        <pt x="3195" y="188" on="0"/>
        <pt x="3386" y="219" on="0"/>
        <pt x="3437" y="232" on="0"/>
        <pt x="3457" y="248" on="1"/>
        <pt x="3484" y="268" on="0"/>
        <pt x="3511" y="344" on="0"/>
        <pt x="3537" y="436" on="0"/>
        <pt x="3544" y="468" on="1"/>
        <pt x="3572" y="583" on="0"/>
        <pt x="3580" y="623" on="1"/>
        <pt x="3682" y="602" on="1"/>
        <pt x="3543" y="0" on="1"/>
        <pt x="2208" y="0" on="1"/>
        <pt x="2113" y="0" on="0"/>
        <pt x="1558" y="-41" on="0"/>
        <pt x="1252" y="-41" on="0"/>
        <pt x="993" y="1" on="0"/>
        <pt x="748" y="95" on="0"/>
        <pt x="542" y="235" on="0"/>
        <pt x="370" y="439" on="0"/>
        <pt x="310" y="566" on="1"/>
        <pt x="184" y="833" on="0"/>
        <pt x="184" y="1217" on="1"/>
        <pt x="184" y="1890" on="0"/>
        <pt x="576" y="2324" on="1"/>
        <pt x="976" y="2769" on="0"/>
        <pt x="1606" y="2769" on="1"/>
        <pt x="2388" y="2732" on="1"/>
        <pt x="3690" y="2732" on="1"/>
        <pt x="3690" y="2236" on="1"/>
        <pt x="3600" y="2232" on="1"/>
        <pt x="3596" y="2445" on="1"/>
        <pt x="3594" y="2517" on="0"/>
        <pt x="3521" y="2562" on="0"/>
        <pt x="3418" y="2577" on="0"/>
        <pt x="3318" y="2584" on="1"/>
        <pt x="3174" y="2593" on="0"/>
      </contour>
      <contour>
        <pt x="2200" y="2458" on="1"/>
        <pt x="2200" y="2638" on="0"/>
        <pt x="1692" y="2638" on="1"/>
        <pt x="1626" y="2638" on="1"/>
        <pt x="1287" y="2638" on="0"/>
        <pt x="784" y="2300" on="0"/>
        <pt x="520" y="1698" on="0"/>
        <pt x="520" y="1047" on="0"/>
        <pt x="621" y="638" on="0"/>
        <pt x="796" y="366" on="0"/>
        <pt x="920" y="276" on="1"/>
        <pt x="1151" y="106" on="0"/>
        <pt x="1483" y="106" on="1"/>
        <pt x="1587" y="106" on="0"/>
        <pt x="1723" y="127" on="1"/>
        <pt x="1991" y="168" on="0"/>
        <pt x="1999" y="254" on="1"/>
        <pt x="2183" y="2269" on="1"/>
        <pt x="2184" y="2286" on="0"/>
        <pt x="2200" y="2425" on="0"/>
      </contour>
    </TTGlyph>
    <TTGlyph name="Oacute" xMin="184" yMin="-66" xMax="2777" yMax="3559">
      <component glyphName="acutecomb.cap" x="2408" y="999" flags="0x1004"/>
      <component glyphName="O" x="0" y="0" flags="0x1004"/>
    </TTGlyph>
    <TTGlyph name="Obreve" xMin="184" yMin="-66" xMax="2777" yMax="3543">
      <component glyphName="uni0306.cap" x="2408" y="999" flags="0x1004"/>
      <component glyphName="O" x="0" y="0" flags="0x1004"/>
    </TTGlyph>
    <TTGlyph name="Ocircumflex" xMin="184" yMin="-66" xMax="2777" yMax="3543">
      <component glyphName="uni0302.cap" x="2408" y="999" flags="0x1004"/>
      <component glyphName="O" x="0" y="0" flags="0x1004"/>
    </TTGlyph>
    <TTGlyph name="Odieresis" xMin="184" yMin="-66" xMax="2777" yMax="3493">
      <contour>
        <pt x="184" y="1219" on="1"/>
        <pt x="184" y="1437" on="0"/>
        <pt x="277" y="1848" on="0"/>
        <pt x="449" y="2199" on="0"/>
        <pt x="703" y="2491" on="0"/>
        <pt x="858" y="2594" on="1"/>
        <pt x="1185" y="2810" on="0"/>
        <pt x="1606" y="2810" on="1"/>
        <pt x="2091" y="2810" on="0"/>
        <pt x="2402" y="2518" on="1"/>
        <pt x="2777" y="2166" on="0"/>
        <pt x="2777" y="1540" on="1"/>
        <pt x="2777" y="1025" on="0"/>
        <pt x="2501" y="585" on="1"/>
        <pt x="2320" y="296" on="0"/>
        <pt x="2021" y="118" on="1"/>
        <pt x="1713" y="-66" on="0"/>
        <pt x="1315" y="-66" on="1"/>
        <pt x="655" y="-66" on="0"/>
        <pt x="346" y="490" on="1"/>
        <pt x="184" y="782" on="0"/>
      </contour>
      <contour>
        <pt x="520" y="1292" on="1"/>
        <pt x="520" y="1062" on="0"/>
        <pt x="617" y="657" on="0"/>
        <pt x="784" y="373" on="0"/>
        <pt x="897" y="274" on="1"/>
        <pt x="1116" y="82" on="0"/>
        <pt x="1405" y="82" on="1"/>
        <pt x="1660" y="82" on="0"/>
        <pt x="1898" y="244" on="1"/>
        <pt x="2132" y="403" on="0"/>
        <pt x="2284" y="722" on="1"/>
        <pt x="2441" y="1050" on="0"/>
        <pt x="2441" y="1507" on="1"/>
        <pt x="2441" y="2175" on="0"/>
        <pt x="2066" y="2494" on="1"/>
        <pt x="1847" y="2679" on="0"/>
        <pt x="1561" y="2679" on="1"/>
        <pt x="1305" y="2679" on="0"/>
        <pt x="1066" y="2523" on="1"/>
        <pt x="830" y="2370" on="0"/>
        <pt x="677" y="2061" on="1"/>
        <pt x="520" y="1745" on="0"/>
      </contour>
      <contour>
        <pt x="1269" y="3137" on="0"/>
        <pt x="1138" y="3271" on="0"/>
        <pt x="1138" y="3361" on="0"/>
        <pt x="1284" y="3493" on="0"/>
        <pt x="1369" y="3493" on="0"/>
        <pt x="1486" y="3349" on="0"/>
        <pt x="1486" y="3262" on="0"/>
        <pt x="1348" y="3137" on="0"/>
      </contour>
      <contour>
        <pt x="1872" y="3137" on="0"/>
        <pt x="1741" y="3271" on="0"/>
        <pt x="1741" y="3361" on="0"/>
        <pt x="1884" y="3493" on="0"/>
        <pt x="1968" y="3493" on="0"/>
        <pt x="2089" y="3348" on="0"/>
        <pt x="2089" y="3262" on="0"/>
        <pt x="1951" y="3137" on="0"/>
      </contour>
    </TTGlyph>
    <TTGlyph name="Ograve" xMin="184" yMin="-66" xMax="2777" yMax="3559">
      <component glyphName="gravecomb.cap" x="2408" y="999" flags="0x1004"/>
      <component glyphName="O" x="0" y="0" flags="0x1004"/>
    </TTGlyph>
    <TTGlyph name="Ohungarumlaut" xMin="184" yMin="-66" xMax="2777" yMax="3559">
      <component glyphName="uni030B.cap" x="2408" y="999" flags="0x1004"/>
      <component glyphName="O" x="0" y="0" flags="0x1004"/>
    </TTGlyph>
    <TTGlyph name="Omacron" xMin="184" yMin="-66" xMax="2777" yMax="3420">
      <component glyphName="uni0304.cap" x="2408" y="999" flags="0x1004"/>
      <component glyphName="O" x="0" y="0" flags="0x1004"/>
    </TTGlyph>
    <TTGlyph name="Oslash" xMin="184" yMin="-369" xMax="2777" yMax="2957">
      <contour>
        <pt x="184" y="1217" on="1"/>
        <pt x="184" y="1894" on="0"/>
        <pt x="576" y="2345" on="1"/>
        <pt x="980" y="2810" on="0"/>
        <pt x="1606" y="2810" on="1"/>
        <pt x="1906" y="2810" on="0"/>
        <pt x="2142" y="2695" on="1"/>
        <pt x="2294" y="2957" on="1"/>
        <pt x="2425" y="2884" on="1"/>
        <pt x="2273" y="2621" on="1"/>
        <pt x="2606" y="2396" on="0"/>
        <pt x="2723" y="1962" on="1"/>
        <pt x="2777" y="1761" on="0"/>
        <pt x="2777" y="1374" on="0"/>
        <pt x="2716" y="1043" on="0"/>
        <pt x="2590" y="727" on="0"/>
        <pt x="2412" y="443" on="0"/>
        <pt x="2166" y="204" on="0"/>
        <pt x="2021" y="118" on="1"/>
        <pt x="1713" y="-66" on="0"/>
        <pt x="1315" y="-66" on="1"/>
        <pt x="1023" y="-66" on="0"/>
        <pt x="791" y="53" on="1"/>
        <pt x="545" y="-369" on="1"/>
        <pt x="414" y="-295" on="1"/>
        <pt x="659" y="131" on="1"/>
        <pt x="437" y="289" on="0"/>
        <pt x="184" y="836" on="0"/>
      </contour>
      <contour>
        <pt x="520" y="1303" on="1"/>
        <pt x="520" y="707" on="0"/>
        <pt x="799" y="373" on="1"/>
        <pt x="2040" y="2515" on="1"/>
        <pt x="1829" y="2679" on="0"/>
        <pt x="1561" y="2679" on="1"/>
        <pt x="1305" y="2679" on="0"/>
        <pt x="1066" y="2523" on="1"/>
        <pt x="830" y="2370" on="0"/>
        <pt x="677" y="2061" on="1"/>
        <pt x="520" y="1745" on="0"/>
      </contour>
      <contour>
        <pt x="909" y="262" on="1"/>
        <pt x="1124" y="82" on="0"/>
        <pt x="1405" y="82" on="1"/>
        <pt x="1660" y="82" on="0"/>
        <pt x="1898" y="244" on="1"/>
        <pt x="2132" y="403" on="0"/>
        <pt x="2284" y="722" on="1"/>
        <pt x="2441" y="1050" on="0"/>
        <pt x="2441" y="1507" on="1"/>
        <pt x="2441" y="2094" on="0"/>
        <pt x="2150" y="2413" on="1"/>
      </contour>
    </TTGlyph>
    <TTGlyph name="Otilde" xMin="184" yMin="-66" xMax="2777" yMax="3543">
      <component glyphName="tildecomb.cap" x="2408" y="999" flags="0x1004"/>
      <component glyphName="O" x="0" y="0" flags="0x1004"/>
    </TTGlyph>
    <TTGlyph name="P" xMin="82" yMin="0" xMax="2195" yMax="2732">
      <contour>
        <pt x="635" y="365" on="1"/>
        <pt x="627" y="233" on="1"/>
        <pt x="627" y="179" on="0"/>
        <pt x="665" y="131" on="0"/>
        <pt x="713" y="131" on="1"/>
        <pt x="1036" y="131" on="1"/>
        <pt x="1028" y="0" on="1"/>
        <pt x="82" y="0" on="1"/>
        <pt x="82" y="131" on="1"/>
        <pt x="172" y="131" on="1"/>
        <pt x="279" y="131" on="0"/>
        <pt x="334" y="169" on="0"/>
        <pt x="340" y="254" on="1"/>
        <pt x="447" y="1472" on="0"/>
        <pt x="541" y="2524" on="0"/>
        <pt x="541" y="2581" on="0"/>
        <pt x="468" y="2601" on="0"/>
        <pt x="340" y="2601" on="1"/>
        <pt x="221" y="2601" on="1"/>
        <pt x="225" y="2732" on="1"/>
        <pt x="1217" y="2732" on="1"/>
        <pt x="1698" y="2732" on="0"/>
        <pt x="2195" y="2374" on="0"/>
        <pt x="2195" y="2032" on="1"/>
        <pt x="2195" y="1556" on="0"/>
        <pt x="1738" y="1288" on="1"/>
        <pt x="1460" y="1126" on="0"/>
        <pt x="1110" y="1126" on="1"/>
        <pt x="921" y="1126" on="0"/>
        <pt x="759" y="1156" on="1"/>
        <pt x="705" y="1167" on="1"/>
      </contour>
      <contour>
        <pt x="721" y="1278" on="1"/>
        <pt x="811" y="1257" on="0"/>
        <pt x="1136" y="1257" on="0"/>
        <pt x="1386" y="1316" on="0"/>
        <pt x="1559" y="1413" on="0"/>
        <pt x="1694" y="1544" on="0"/>
        <pt x="1773" y="1677" on="0"/>
        <pt x="1799" y="1749" on="1"/>
        <pt x="1843" y="1871" on="0"/>
        <pt x="1843" y="2075" on="0"/>
        <pt x="1803" y="2233" on="0"/>
        <pt x="1737" y="2350" on="0"/>
        <pt x="1637" y="2444" on="0"/>
        <pt x="1532" y="2508" on="0"/>
        <pt x="1397" y="2555" on="0"/>
        <pt x="1277" y="2581" on="0"/>
        <pt x="1206" y="2589" on="1"/>
        <pt x="1098" y="2601" on="0"/>
        <pt x="879" y="2601" on="0"/>
        <pt x="829" y="2572" on="0"/>
        <pt x="823" y="2507" on="1"/>
      </contour>
    </TTGlyph>
    <TTGlyph name="P.001" xMin="0" yMin="0" xMax="3125" yMax="2732">
      <contour>
        <pt x="831" y="1573" on="1"/>
        <pt x="804" y="1573" on="0"/>
        <pt x="760" y="1552" on="0"/>
        <pt x="727" y="1552" on="0"/>
        <pt x="696" y="1610" on="0"/>
        <pt x="696" y="1691" on="0"/>
        <pt x="789" y="1774" on="0"/>
        <pt x="913" y="1774" on="0"/>
        <pt x="993" y="1737" on="0"/>
        <pt x="1043" y="1678" on="0"/>
        <pt x="1060" y="1640" on="1"/>
        <pt x="1090" y="1570" on="0"/>
        <pt x="1090" y="1399" on="0"/>
        <pt x="1013" y="1232" on="0"/>
        <pt x="946" y="1169" on="1"/>
        <pt x="799" y="1032" on="0"/>
        <pt x="398" y="1032" on="0"/>
        <pt x="266" y="1119" on="1"/>
        <pt x="0" y="1294" on="0"/>
        <pt x="0" y="1675" on="1"/>
        <pt x="0" y="2158" on="0"/>
        <pt x="408" y="2445" on="1"/>
        <pt x="716" y="2662" on="0"/>
        <pt x="1169" y="2718" on="1"/>
        <pt x="1283" y="2732" on="0"/>
        <pt x="1384" y="2732" on="1"/>
        <pt x="2138" y="2732" on="1"/>
        <pt x="2943" y="2732" on="0"/>
        <pt x="3094" y="2242" on="1"/>
        <pt x="3124" y="2142" on="0"/>
        <pt x="3125" y="1865" on="0"/>
        <pt x="3010" y="1581" on="0"/>
        <pt x="2806" y="1365" on="0"/>
        <pt x="2672" y="1286" on="1"/>
        <pt x="2397" y="1126" on="0"/>
        <pt x="2048" y="1126" on="1"/>
        <pt x="1858" y="1126" on="0"/>
        <pt x="1693" y="1156" on="1"/>
        <pt x="1638" y="1167" on="1"/>
        <pt x="1577" y="365" on="1"/>
        <pt x="1573" y="233" on="1"/>
        <pt x="1573" y="179" on="0"/>
        <pt x="1611" y="131" on="0"/>
        <pt x="1659" y="131" on="1"/>
        <pt x="1987" y="131" on="1"/>
        <pt x="1982" y="0" on="1"/>
        <pt x="954" y="0" on="1"/>
        <pt x="954" y="131" on="1"/>
        <pt x="1118" y="131" on="1"/>
        <pt x="1224" y="131" on="0"/>
        <pt x="1276" y="169" on="0"/>
        <pt x="1282" y="254" on="1"/>
        <pt x="1415" y="1942" on="0"/>
        <pt x="1466" y="2529" on="0"/>
        <pt x="1466" y="2535" on="1"/>
        <pt x="1466" y="2579" on="0"/>
        <pt x="1391" y="2601" on="0"/>
        <pt x="1169" y="2601" on="0"/>
        <pt x="960" y="2564" on="0"/>
        <pt x="738" y="2486" on="0"/>
        <pt x="528" y="2377" on="0"/>
        <pt x="341" y="2220" on="0"/>
        <pt x="271" y="2128" on="1"/>
        <pt x="119" y="1928" on="0"/>
        <pt x="119" y="1671" on="1"/>
        <pt x="119" y="1375" on="0"/>
        <pt x="338" y="1232" on="1"/>
        <pt x="450" y="1159" on="0"/>
        <pt x="665" y="1159" on="0"/>
        <pt x="812" y="1209" on="0"/>
        <pt x="851" y="1252" on="1"/>
        <pt x="926" y="1333" on="0"/>
        <pt x="926" y="1573" on="0"/>
      </contour>
      <contour>
        <pt x="1655" y="1278" on="1"/>
        <pt x="1745" y="1257" on="0"/>
        <pt x="2070" y="1257" on="0"/>
        <pt x="2320" y="1316" on="0"/>
        <pt x="2491" y="1413" on="0"/>
        <pt x="2626" y="1544" on="0"/>
        <pt x="2704" y="1677" on="0"/>
        <pt x="2730" y="1749" on="1"/>
        <pt x="2813" y="1984" on="0"/>
        <pt x="2738" y="2196" on="1"/>
        <pt x="2609" y="2565" on="0"/>
        <pt x="2038" y="2597" on="1"/>
        <pt x="1967" y="2601" on="0"/>
        <pt x="1811" y="2601" on="0"/>
        <pt x="1752" y="2581" on="0"/>
        <pt x="1749" y="2544" on="1"/>
      </contour>
    </TTGlyph>
    <TTGlyph name="Q" xMin="82" yMin="-860" xMax="3129" yMax="2810">
      <contour>
        <pt x="3129" y="-563" on="1"/>
        <pt x="3129" y="-610" on="0"/>
        <pt x="3030" y="-745" on="0"/>
        <pt x="2785" y="-860" on="0"/>
        <pt x="2476" y="-860" on="0"/>
        <pt x="2032" y="-710" on="0"/>
        <pt x="1835" y="-587" on="1"/>
        <pt x="1453" y="-349" on="0"/>
        <pt x="1136" y="-129" on="1"/>
        <pt x="1032" y="-57" on="1"/>
        <pt x="877" y="-86" on="0"/>
        <pt x="610" y="-86" on="0"/>
        <pt x="396" y="-61" on="0"/>
        <pt x="300" y="-38" on="1"/>
        <pt x="82" y="14" on="0"/>
        <pt x="82" y="115" on="1"/>
        <pt x="82" y="144" on="0"/>
        <pt x="123" y="193" on="0"/>
        <pt x="167" y="193" on="0"/>
        <pt x="222" y="166" on="0"/>
        <pt x="306" y="127" on="0"/>
        <pt x="362" y="108" on="1"/>
        <pt x="497" y="61" on="0"/>
        <pt x="949" y="61" on="0"/>
        <pt x="1372" y="157" on="0"/>
        <pt x="1704" y="328" on="0"/>
        <pt x="1982" y="562" on="0"/>
        <pt x="2178" y="838" on="0"/>
        <pt x="2246" y="991" on="1"/>
        <pt x="2380" y="1289" on="0"/>
        <pt x="2380" y="1614" on="1"/>
        <pt x="2380" y="2097" on="0"/>
        <pt x="2111" y="2379" on="1"/>
        <pt x="1905" y="2595" on="0"/>
        <pt x="1604" y="2648" on="1"/>
        <pt x="1527" y="2662" on="0"/>
        <pt x="1301" y="2662" on="0"/>
        <pt x="1007" y="2536" on="0"/>
        <pt x="785" y="2317" on="0"/>
        <pt x="651" y="1997" on="0"/>
        <pt x="651" y="1716" on="0"/>
        <pt x="689" y="1531" on="0"/>
        <pt x="778" y="1357" on="0"/>
        <pt x="843" y="1292" on="1"/>
        <pt x="986" y="1151" on="0"/>
        <pt x="1229" y="1151" on="1"/>
        <pt x="1372" y="1151" on="0"/>
        <pt x="1442" y="1213" on="1"/>
        <pt x="1472" y="1239" on="0"/>
        <pt x="1493" y="1265" on="1"/>
        <pt x="1543" y="1327" on="0"/>
        <pt x="1565" y="1327" on="1"/>
        <pt x="1610" y="1327" on="0"/>
        <pt x="1610" y="1234" on="0"/>
        <pt x="1531" y="1126" on="0"/>
        <pt x="1465" y="1078" on="1"/>
        <pt x="1309" y="963" on="0"/>
        <pt x="949" y="963" on="0"/>
        <pt x="688" y="1059" on="0"/>
        <pt x="475" y="1235" on="0"/>
        <pt x="344" y="1515" on="0"/>
        <pt x="344" y="1792" on="0"/>
        <pt x="391" y="2016" on="0"/>
        <pt x="490" y="2238" on="0"/>
        <pt x="631" y="2439" on="0"/>
        <pt x="829" y="2611" on="0"/>
        <pt x="946" y="2674" on="1"/>
        <pt x="1196" y="2810" on="0"/>
        <pt x="1524" y="2810" on="1"/>
        <pt x="1923" y="2810" on="0"/>
        <pt x="2238" y="2602" on="1"/>
        <pt x="2578" y="2378" on="0"/>
        <pt x="2677" y="1958" on="1"/>
        <pt x="2712" y="1809" on="0"/>
        <pt x="2712" y="1437" on="0"/>
        <pt x="2624" y="1063" on="0"/>
        <pt x="2476" y="777" on="0"/>
        <pt x="2284" y="525" on="0"/>
        <pt x="2071" y="344" on="0"/>
        <pt x="1858" y="194" on="0"/>
        <pt x="1762" y="147" on="1"/>
        <pt x="1556" y="46" on="0"/>
        <pt x="1474" y="22" on="1"/>
        <pt x="1430" y="8" on="1"/>
        <pt x="1888" y="-290" on="0"/>
        <pt x="2348" y="-482" on="1"/>
        <pt x="2635" y="-602" on="0"/>
        <pt x="2806" y="-602" on="1"/>
        <pt x="2936" y="-602" on="0"/>
        <pt x="2976" y="-572" on="1"/>
        <pt x="3129" y="-462" on="0"/>
      </contour>
    </TTGlyph>
    <TTGlyph name="R" xMin="78" yMin="0" xMax="2572" yMax="2732">
      <contour>
        <pt x="655" y="205" on="1"/>
        <pt x="655" y="131" on="0"/>
        <pt x="745" y="131" on="1"/>
        <pt x="1090" y="131" on="1"/>
        <pt x="1081" y="0" on="1"/>
        <pt x="78" y="0" on="1"/>
        <pt x="82" y="131" on="1"/>
        <pt x="201" y="131" on="1"/>
        <pt x="308" y="131" on="0"/>
        <pt x="363" y="169" on="0"/>
        <pt x="369" y="254" on="1"/>
        <pt x="451" y="1426" on="0"/>
        <pt x="528" y="2523" on="0"/>
        <pt x="528" y="2548" on="0"/>
        <pt x="523" y="2570" on="0"/>
        <pt x="503" y="2587" on="0"/>
        <pt x="479" y="2595" on="0"/>
        <pt x="452" y="2598" on="1"/>
        <pt x="413" y="2601" on="0"/>
        <pt x="315" y="2601" on="1"/>
        <pt x="193" y="2601" on="1"/>
        <pt x="193" y="2732" on="1"/>
        <pt x="1200" y="2732" on="1"/>
        <pt x="1878" y="2732" on="0"/>
        <pt x="2077" y="2286" on="1"/>
        <pt x="2138" y="2149" on="0"/>
        <pt x="2138" y="1942" on="0"/>
        <pt x="2125" y="1841" on="0"/>
        <pt x="2084" y="1716" on="0"/>
        <pt x="2019" y="1605" on="0"/>
        <pt x="1906" y="1490" on="0"/>
        <pt x="1832" y="1444" on="1"/>
        <pt x="1663" y="1341" on="0"/>
        <pt x="1409" y="1303" on="1"/>
        <pt x="2130" y="303" on="1"/>
        <pt x="2225" y="172" on="0"/>
        <pt x="2341" y="131" on="0"/>
        <pt x="2388" y="131" on="1"/>
        <pt x="2572" y="131" on="1"/>
        <pt x="2564" y="0" on="1"/>
        <pt x="1892" y="0" on="1"/>
        <pt x="1708" y="231" on="0"/>
        <pt x="1421" y="729" on="0"/>
        <pt x="1170" y="1175" on="0"/>
        <pt x="1110" y="1278" on="1"/>
        <pt x="1053" y="1278" on="1"/>
        <pt x="900" y="1278" on="0"/>
        <pt x="774" y="1300" on="1"/>
        <pt x="729" y="1307" on="1"/>
        <pt x="659" y="283" on="1"/>
      </contour>
      <contour>
        <pt x="737" y="1409" on="1"/>
        <pt x="848" y="1393" on="0"/>
        <pt x="1026" y="1393" on="1"/>
        <pt x="1413" y="1393" on="0"/>
        <pt x="1585" y="1528" on="1"/>
        <pt x="1682" y="1604" on="0"/>
        <pt x="1794" y="1846" on="0"/>
        <pt x="1794" y="2104" on="0"/>
        <pt x="1683" y="2330" on="0"/>
        <pt x="1579" y="2416" on="1"/>
        <pt x="1355" y="2601" on="0"/>
        <pt x="950" y="2601" on="1"/>
        <pt x="877" y="2601" on="0"/>
        <pt x="818" y="2581" on="0"/>
        <pt x="815" y="2544" on="1"/>
      </contour>
    </TTGlyph>
    <TTGlyph name="R.001" xMin="0" yMin="-745" xMax="4252" yMax="2765">
      <contour>
        <pt x="905" y="1581" on="1"/>
        <pt x="823" y="1561" on="1"/>
        <pt x="800" y="1561" on="0"/>
        <pt x="770" y="1611" on="0"/>
        <pt x="770" y="1693" on="0"/>
        <pt x="858" y="1778" on="0"/>
        <pt x="987" y="1778" on="0"/>
        <pt x="1069" y="1740" on="0"/>
        <pt x="1120" y="1680" on="0"/>
        <pt x="1138" y="1642" on="1"/>
        <pt x="1171" y="1571" on="0"/>
        <pt x="1171" y="1404" on="0"/>
        <pt x="1110" y="1254" on="0"/>
        <pt x="1003" y="1146" on="0"/>
        <pt x="930" y="1108" on="1"/>
        <pt x="788" y="1032" on="0"/>
        <pt x="422" y="1032" on="0"/>
        <pt x="147" y="1205" on="0"/>
        <pt x="0" y="1497" on="0"/>
        <pt x="0" y="1753" on="0"/>
        <pt x="22" y="1901" on="0"/>
        <pt x="80" y="2073" on="0"/>
        <pt x="172" y="2228" on="0"/>
        <pt x="325" y="2387" on="0"/>
        <pt x="522" y="2520" on="0"/>
        <pt x="803" y="2637" on="0"/>
        <pt x="972" y="2678" on="1"/>
        <pt x="1337" y="2765" on="0"/>
        <pt x="1843" y="2765" on="1"/>
        <pt x="2228" y="2765" on="0"/>
        <pt x="2561" y="2697" on="0"/>
        <pt x="2743" y="2636" on="0"/>
        <pt x="2885" y="2553" on="0"/>
        <pt x="3010" y="2437" on="0"/>
        <pt x="3050" y="2365" on="1"/>
        <pt x="3138" y="2209" on="0"/>
        <pt x="3138" y="1995" on="1"/>
        <pt x="3138" y="1532" on="0"/>
        <pt x="2648" y="1361" on="1"/>
        <pt x="2540" y="1323" on="0"/>
        <pt x="2408" y="1303" on="1"/>
        <pt x="2740" y="713" on="1"/>
        <pt x="2787" y="631" on="0"/>
        <pt x="2976" y="303" on="0"/>
        <pt x="3091" y="105" on="0"/>
        <pt x="3187" y="-53" on="0"/>
        <pt x="3297" y="-218" on="0"/>
        <pt x="3383" y="-322" on="0"/>
        <pt x="3484" y="-425" on="0"/>
        <pt x="3578" y="-483" on="0"/>
        <pt x="3634" y="-506" on="1"/>
        <pt x="3734" y="-549" on="0"/>
        <pt x="3964" y="-549" on="0"/>
        <pt x="4102" y="-512" on="0"/>
        <pt x="4189" y="-469" on="0"/>
        <pt x="4219" y="-464" on="0"/>
        <pt x="4252" y="-504" on="0"/>
        <pt x="4252" y="-552" on="0"/>
        <pt x="4183" y="-625" on="0"/>
        <pt x="4120" y="-660" on="1"/>
        <pt x="3968" y="-745" on="0"/>
        <pt x="3707" y="-745" on="1"/>
        <pt x="3342" y="-745" on="0"/>
        <pt x="3146" y="-549" on="1"/>
        <pt x="3033" y="-439" on="0"/>
        <pt x="2775" y="-23" on="0"/>
        <pt x="2533" y="428" on="0"/>
        <pt x="2236" y="1064" on="0"/>
        <pt x="2109" y="1278" on="1"/>
        <pt x="2052" y="1278" on="1"/>
        <pt x="1898" y="1278" on="0"/>
        <pt x="1774" y="1300" on="1"/>
        <pt x="1729" y="1307" on="1"/>
        <pt x="1659" y="283" on="1"/>
        <pt x="1655" y="205" on="1"/>
        <pt x="1655" y="131" on="0"/>
        <pt x="1745" y="131" on="1"/>
        <pt x="2060" y="131" on="1"/>
        <pt x="2056" y="0" on="1"/>
        <pt x="1036" y="0" on="1"/>
        <pt x="1040" y="131" on="1"/>
        <pt x="1200" y="131" on="1"/>
        <pt x="1307" y="131" on="0"/>
        <pt x="1362" y="169" on="0"/>
        <pt x="1368" y="254" on="1"/>
        <pt x="1471" y="1726" on="0"/>
        <pt x="1498" y="2112" on="1"/>
        <pt x="1528" y="2525" on="0"/>
        <pt x="1528" y="2554" on="1"/>
        <pt x="1528" y="2613" on="0"/>
        <pt x="1318" y="2613" on="0"/>
        <pt x="1111" y="2589" on="0"/>
        <pt x="857" y="2527" on="0"/>
        <pt x="617" y="2434" on="0"/>
        <pt x="387" y="2282" on="0"/>
        <pt x="302" y="2188" on="1"/>
        <pt x="111" y="1979" on="0"/>
        <pt x="111" y="1671" on="1"/>
        <pt x="111" y="1377" on="0"/>
        <pt x="351" y="1235" on="1"/>
        <pt x="473" y="1163" on="0"/>
        <pt x="694" y="1163" on="0"/>
        <pt x="857" y="1212" on="0"/>
        <pt x="904" y="1253" on="1"/>
        <pt x="999" y="1336" on="0"/>
        <pt x="999" y="1581" on="0"/>
      </contour>
      <contour>
        <pt x="1737" y="1409" on="1"/>
        <pt x="1848" y="1393" on="0"/>
        <pt x="2026" y="1393" on="1"/>
        <pt x="2413" y="1393" on="0"/>
        <pt x="2585" y="1528" on="1"/>
        <pt x="2682" y="1603" on="0"/>
        <pt x="2793" y="1846" on="0"/>
        <pt x="2793" y="2116" on="0"/>
        <pt x="2683" y="2350" on="0"/>
        <pt x="2578" y="2435" on="1"/>
        <pt x="2358" y="2613" on="0"/>
        <pt x="1950" y="2613" on="1"/>
        <pt x="1820" y="2613" on="0"/>
        <pt x="1815" y="2544" on="1"/>
      </contour>
    </TTGlyph>
    <TTGlyph name="Racute" xMin="78" yMin="0" xMax="2572" yMax="3559">
      <component glyphName="acutecomb.cap" x="1987" y="999" flags="0x1004"/>
      <component glyphName="R" x="0" y="0" flags="0x1004"/>
    </TTGlyph>
    <TTGlyph name="Racute.001" xMin="0" yMin="-745" xMax="4252" yMax="3559">
      <component glyphName="acutecomb.cap" x="2986" y="999" flags="0x1004"/>
      <component glyphName="R.001" x="0" y="0" flags="0x1004"/>
    </TTGlyph>
    <TTGlyph name="Rcaron" xMin="78" yMin="0" xMax="2572" yMax="3543">
      <component glyphName="uni030C.cap" x="1987" y="999" flags="0x1004"/>
      <component glyphName="R" x="0" y="0" flags="0x1004"/>
    </TTGlyph>
    <TTGlyph name="Rcaron.001" xMin="0" yMin="-745" xMax="4252" yMax="3543">
      <component glyphName="uni030C.cap" x="2986" y="999" flags="0x1004"/>
      <component glyphName="R.001" x="0" y="0" flags="0x1004"/>
    </TTGlyph>
    <TTGlyph name="Rcommaaccent" xMin="78" yMin="-966" xMax="2572" yMax="2732">
      <component glyphName="uni0326" x="2093" y="-8" flags="0x1004"/>
      <component glyphName="R" x="0" y="0" flags="0x1004"/>
    </TTGlyph>
    <TTGlyph name="Rcommaaccent.001" xMin="0" yMin="-966" xMax="4252" yMax="2765">
      <component glyphName="uni0326" x="3011" y="-8" flags="0x1004"/>
      <component glyphName="R.001" x="0" y="0" flags="0x1004"/>
    </TTGlyph>
    <TTGlyph name="S" xMin="41" yMin="-164" xMax="1712" yMax="2814">
      <contour>
        <pt x="156" y="-164" on="1"/>
        <pt x="107" y="342" on="0"/>
        <pt x="41" y="717" on="1"/>
        <pt x="156" y="737" on="1"/>
        <pt x="197" y="459" on="1"/>
        <pt x="212" y="357" on="0"/>
        <pt x="317" y="229" on="0"/>
        <pt x="622" y="98" on="0"/>
        <pt x="928" y="98" on="0"/>
        <pt x="1135" y="186" on="0"/>
        <pt x="1202" y="261" on="1"/>
        <pt x="1343" y="417" on="0"/>
        <pt x="1343" y="639" on="1"/>
        <pt x="1343" y="912" on="0"/>
        <pt x="1026" y="1168" on="1"/>
        <pt x="915" y="1258" on="0"/>
        <pt x="844" y="1319" on="1"/>
        <pt x="643" y="1491" on="1"/>
        <pt x="401" y="1696" on="0"/>
        <pt x="319" y="1954" on="1"/>
        <pt x="287" y="2054" on="0"/>
        <pt x="287" y="2277" on="0"/>
        <pt x="400" y="2509" on="0"/>
        <pt x="498" y="2596" on="1"/>
        <pt x="714" y="2789" on="0"/>
        <pt x="1036" y="2789" on="1"/>
        <pt x="1202" y="2789" on="0"/>
        <pt x="1488" y="2703" on="0"/>
        <pt x="1509" y="2703" on="1"/>
        <pt x="1556" y="2703" on="0"/>
        <pt x="1556" y="2785" on="1"/>
        <pt x="1556" y="2814" on="1"/>
        <pt x="1667" y="2814" on="1"/>
        <pt x="1712" y="2175" on="1"/>
        <pt x="1597" y="2167" on="1"/>
        <pt x="1581" y="2388" on="1"/>
        <pt x="1443" y="2541" on="0"/>
        <pt x="1211" y="2608" on="1"/>
        <pt x="1118" y="2634" on="0"/>
        <pt x="895" y="2634" on="0"/>
        <pt x="694" y="2549" on="0"/>
        <pt x="573" y="2370" on="0"/>
        <pt x="573" y="2201" on="0"/>
        <pt x="588" y="2116" on="0"/>
        <pt x="609" y="2045" on="0"/>
        <pt x="654" y="1966" on="0"/>
        <pt x="689" y="1909" on="0"/>
        <pt x="757" y="1832" on="0"/>
        <pt x="800" y="1786" on="0"/>
        <pt x="887" y="1708" on="0"/>
        <pt x="932" y="1668" on="0"/>
        <pt x="1031" y="1584" on="0"/>
        <pt x="1053" y="1565" on="1"/>
        <pt x="1196" y="1442" on="1"/>
        <pt x="1227" y="1422" on="0"/>
        <pt x="1383" y="1280" on="0"/>
        <pt x="1502" y="1141" on="0"/>
        <pt x="1540" y="1076" on="1"/>
        <pt x="1634" y="914" on="0"/>
        <pt x="1634" y="737" on="1"/>
        <pt x="1634" y="501" on="0"/>
        <pt x="1478" y="286" on="1"/>
        <pt x="1235" y="-45" on="0"/>
        <pt x="770" y="-45" on="1"/>
        <pt x="593" y="-45" on="0"/>
        <pt x="517" y="-24" on="1"/>
        <pt x="371" y="16" on="0"/>
        <pt x="284" y="16" on="0"/>
        <pt x="262" y="-3" on="0"/>
        <pt x="262" y="-33" on="1"/>
        <pt x="270" y="-160" on="1"/>
      </contour>
    </TTGlyph>
    <TTGlyph name="Sacute" xMin="41" yMin="-164" xMax="1712" yMax="3559">
      <component glyphName="acutecomb.cap" x="1835" y="999" flags="0x1004"/>
      <component glyphName="S" x="0" y="0" flags="0x1004"/>
    </TTGlyph>
    <TTGlyph name="Scaron" xMin="41" yMin="-164" xMax="1712" yMax="3543">
      <component glyphName="uni030C.cap" x="1835" y="999" flags="0x1004"/>
      <component glyphName="S" x="0" y="0" flags="0x1004"/>
    </TTGlyph>
    <TTGlyph name="Scedilla" xMin="41" yMin="-901" xMax="1712" yMax="2814">
      <contour>
        <pt x="156" y="-164" on="1"/>
        <pt x="107" y="342" on="0"/>
        <pt x="41" y="717" on="1"/>
        <pt x="156" y="737" on="1"/>
        <pt x="197" y="459" on="1"/>
        <pt x="212" y="357" on="0"/>
        <pt x="317" y="229" on="0"/>
        <pt x="622" y="98" on="0"/>
        <pt x="928" y="98" on="0"/>
        <pt x="1135" y="186" on="0"/>
        <pt x="1202" y="261" on="1"/>
        <pt x="1343" y="417" on="0"/>
        <pt x="1343" y="639" on="1"/>
        <pt x="1343" y="912" on="0"/>
        <pt x="1026" y="1168" on="1"/>
        <pt x="915" y="1258" on="0"/>
        <pt x="844" y="1319" on="1"/>
        <pt x="643" y="1491" on="1"/>
        <pt x="401" y="1696" on="0"/>
        <pt x="319" y="1954" on="1"/>
        <pt x="287" y="2054" on="0"/>
        <pt x="287" y="2277" on="0"/>
        <pt x="400" y="2509" on="0"/>
        <pt x="498" y="2596" on="1"/>
        <pt x="714" y="2789" on="0"/>
        <pt x="1036" y="2789" on="1"/>
        <pt x="1202" y="2789" on="0"/>
        <pt x="1488" y="2703" on="0"/>
        <pt x="1509" y="2703" on="1"/>
        <pt x="1556" y="2703" on="0"/>
        <pt x="1556" y="2785" on="1"/>
        <pt x="1556" y="2814" on="1"/>
        <pt x="1667" y="2814" on="1"/>
        <pt x="1712" y="2175" on="1"/>
        <pt x="1597" y="2167" on="1"/>
        <pt x="1581" y="2388" on="1"/>
        <pt x="1443" y="2541" on="0"/>
        <pt x="1211" y="2608" on="1"/>
        <pt x="1118" y="2634" on="0"/>
        <pt x="895" y="2634" on="0"/>
        <pt x="694" y="2549" on="0"/>
        <pt x="573" y="2370" on="0"/>
        <pt x="573" y="2201" on="0"/>
        <pt x="588" y="2116" on="0"/>
        <pt x="609" y="2045" on="0"/>
        <pt x="654" y="1966" on="0"/>
        <pt x="689" y="1909" on="0"/>
        <pt x="757" y="1832" on="0"/>
        <pt x="800" y="1786" on="0"/>
        <pt x="887" y="1708" on="0"/>
        <pt x="932" y="1668" on="0"/>
        <pt x="1031" y="1584" on="0"/>
        <pt x="1053" y="1565" on="1"/>
        <pt x="1196" y="1442" on="1"/>
        <pt x="1227" y="1422" on="0"/>
        <pt x="1383" y="1280" on="0"/>
        <pt x="1502" y="1141" on="0"/>
        <pt x="1540" y="1076" on="1"/>
        <pt x="1634" y="914" on="0"/>
        <pt x="1634" y="641" on="0"/>
        <pt x="1576" y="442" on="0"/>
        <pt x="1454" y="248" on="0"/>
        <pt x="1368" y="170" on="1"/>
        <pt x="1179" y="-3" on="0"/>
        <pt x="889" y="-37" on="1"/>
        <pt x="811" y="-270" on="1"/>
        <pt x="877" y="-266" on="1"/>
        <pt x="1040" y="-266" on="0"/>
        <pt x="1130" y="-314" on="1"/>
        <pt x="1290" y="-398" on="0"/>
        <pt x="1290" y="-553" on="1"/>
        <pt x="1290" y="-751" on="0"/>
        <pt x="1096" y="-847" on="1"/>
        <pt x="987" y="-901" on="0"/>
        <pt x="880" y="-901" on="1"/>
        <pt x="696" y="-901" on="0"/>
        <pt x="614" y="-848" on="1"/>
        <pt x="700" y="-750" on="1"/>
        <pt x="811" y="-791" on="0"/>
        <pt x="973" y="-791" on="0"/>
        <pt x="1081" y="-672" on="0"/>
        <pt x="1081" y="-519" on="0"/>
        <pt x="1035" y="-446" on="0"/>
        <pt x="995" y="-426" on="1"/>
        <pt x="918" y="-389" on="0"/>
        <pt x="766" y="-389" on="0"/>
        <pt x="737" y="-393" on="1"/>
        <pt x="696" y="-324" on="1"/>
        <pt x="799" y="-45" on="1"/>
        <pt x="770" y="-45" on="1"/>
        <pt x="593" y="-45" on="0"/>
        <pt x="517" y="-24" on="1"/>
        <pt x="371" y="16" on="0"/>
        <pt x="284" y="16" on="0"/>
        <pt x="262" y="-3" on="0"/>
        <pt x="262" y="-33" on="1"/>
        <pt x="270" y="-160" on="1"/>
      </contour>
    </TTGlyph>
    <TTGlyph name="Scircumflex" xMin="41" yMin="-164" xMax="1712" yMax="3543">
      <component glyphName="uni0302.cap" x="1835" y="999" flags="0x1004"/>
      <component glyphName="S" x="0" y="0" flags="0x1004"/>
    </TTGlyph>
    <TTGlyph name="T" xMin="41" yMin="0" xMax="2507" yMax="2732">
      <contour>
        <pt x="1143" y="2417" on="1"/>
        <pt x="1147" y="2486" on="1"/>
        <pt x="1147" y="2525" on="0"/>
        <pt x="1071" y="2552" on="0"/>
        <pt x="971" y="2552" on="1"/>
        <pt x="459" y="2552" on="1"/>
        <pt x="311" y="2552" on="0"/>
        <pt x="270" y="2476" on="1"/>
        <pt x="237" y="2414" on="0"/>
        <pt x="189" y="2082" on="0"/>
        <pt x="188" y="2077" on="1"/>
        <pt x="41" y="2081" on="1"/>
        <pt x="111" y="2499" on="0"/>
        <pt x="143" y="2732" on="1"/>
        <pt x="2507" y="2732" on="1"/>
        <pt x="2424" y="2159" on="0"/>
        <pt x="2417" y="2085" on="1"/>
        <pt x="2269" y="2089" on="1"/>
        <pt x="2310" y="2371" on="0"/>
        <pt x="2310" y="2465" on="0"/>
        <pt x="2303" y="2503" on="0"/>
        <pt x="2282" y="2529" on="0"/>
        <pt x="2260" y="2543" on="0"/>
        <pt x="2235" y="2546" on="1"/>
        <pt x="2196" y="2552" on="0"/>
        <pt x="2126" y="2552" on="1"/>
        <pt x="1655" y="2552" on="1"/>
        <pt x="1494" y="2552" on="0"/>
        <pt x="1436" y="2523" on="0"/>
        <pt x="1430" y="2437" on="1"/>
        <pt x="1286" y="324" on="1"/>
        <pt x="1282" y="246" on="1"/>
        <pt x="1282" y="167" on="0"/>
        <pt x="1303" y="148" on="0"/>
        <pt x="1316" y="141" on="1"/>
        <pt x="1335" y="131" on="0"/>
        <pt x="1397" y="131" on="1"/>
        <pt x="1667" y="131" on="1"/>
        <pt x="1659" y="0" on="1"/>
        <pt x="606" y="0" on="1"/>
        <pt x="606" y="131" on="1"/>
        <pt x="823" y="131" on="1"/>
        <pt x="930" y="131" on="0"/>
        <pt x="985" y="169" on="0"/>
        <pt x="991" y="254" on="1"/>
      </contour>
    </TTGlyph>
    <TTGlyph name="T.001" xMin="8" yMin="0" xMax="2658" yMax="2904">
      <contour>
        <pt x="713" y="1892" on="1"/>
        <pt x="709" y="1929" on="1"/>
        <pt x="709" y="1947" on="0"/>
        <pt x="721" y="1955" on="1"/>
        <pt x="751" y="1975" on="0"/>
        <pt x="807" y="1881" on="0"/>
        <pt x="807" y="1750" on="0"/>
        <pt x="757" y="1655" on="0"/>
        <pt x="683" y="1599" on="0"/>
        <pt x="636" y="1580" on="1"/>
        <pt x="553" y="1548" on="0"/>
        <pt x="335" y="1548" on="0"/>
        <pt x="228" y="1626" on="1"/>
        <pt x="8" y="1785" on="0"/>
        <pt x="8" y="2122" on="1"/>
        <pt x="8" y="2327" on="0"/>
        <pt x="206" y="2673" on="0"/>
        <pt x="504" y="2818" on="0"/>
        <pt x="717" y="2818" on="1"/>
        <pt x="792" y="2818" on="0"/>
        <pt x="2252" y="2691" on="0"/>
        <pt x="2430" y="2691" on="0"/>
        <pt x="2468" y="2699" on="0"/>
        <pt x="2486" y="2710" on="1"/>
        <pt x="2523" y="2731" on="0"/>
        <pt x="2523" y="2802" on="1"/>
        <pt x="2519" y="2855" on="1"/>
        <pt x="2519" y="2904" on="0"/>
        <pt x="2606" y="2904" on="0"/>
        <pt x="2658" y="2814" on="0"/>
        <pt x="2658" y="2675" on="0"/>
        <pt x="2536" y="2532" on="0"/>
        <pt x="2424" y="2482" on="0"/>
        <pt x="2248" y="2482" on="0"/>
        <pt x="1623" y="2544" on="0"/>
        <pt x="1542" y="2544" on="0"/>
        <pt x="1514" y="2504" on="0"/>
        <pt x="1511" y="2437" on="1"/>
        <pt x="1368" y="324" on="1"/>
        <pt x="1364" y="246" on="1"/>
        <pt x="1364" y="167" on="0"/>
        <pt x="1385" y="148" on="0"/>
        <pt x="1398" y="141" on="1"/>
        <pt x="1417" y="131" on="0"/>
        <pt x="1479" y="131" on="1"/>
        <pt x="1749" y="131" on="1"/>
        <pt x="1741" y="0" on="1"/>
        <pt x="688" y="0" on="1"/>
        <pt x="688" y="131" on="1"/>
        <pt x="905" y="131" on="1"/>
        <pt x="1012" y="131" on="0"/>
        <pt x="1067" y="169" on="0"/>
        <pt x="1073" y="254" on="1"/>
        <pt x="1225" y="2417" on="1"/>
        <pt x="1225" y="2417" on="0"/>
        <pt x="1233" y="2511" on="1"/>
        <pt x="1233" y="2563" on="0"/>
        <pt x="1200" y="2568" on="1"/>
        <pt x="920" y="2609" on="0"/>
        <pt x="545" y="2609" on="1"/>
        <pt x="298" y="2609" on="0"/>
        <pt x="175" y="2385" on="1"/>
        <pt x="111" y="2268" on="0"/>
        <pt x="111" y="2085" on="0"/>
        <pt x="163" y="1947" on="0"/>
        <pt x="210" y="1888" on="1"/>
        <pt x="317" y="1757" on="0"/>
        <pt x="504" y="1757" on="1"/>
        <pt x="664" y="1757" on="0"/>
        <pt x="706" y="1860" on="1"/>
        <pt x="713" y="1878" on="0"/>
      </contour>
    </TTGlyph>
    <TTGlyph name="T.002" xMin="82" yMin="-94" xMax="2626" yMax="2867">
      <contour>
        <pt x="881" y="2122" on="0"/>
        <pt x="1047" y="2122" on="0"/>
        <pt x="1184" y="1963" on="0"/>
        <pt x="1184" y="1742" on="0"/>
        <pt x="1108" y="1652" on="1"/>
        <pt x="952" y="1470" on="0"/>
        <pt x="647" y="1470" on="1"/>
        <pt x="430" y="1470" on="0"/>
        <pt x="260" y="1638" on="1"/>
        <pt x="82" y="1815" on="0"/>
        <pt x="82" y="2109" on="1"/>
        <pt x="82" y="2227" on="0"/>
        <pt x="200" y="2510" on="0"/>
        <pt x="311" y="2630" on="1"/>
        <pt x="519" y="2851" on="0"/>
        <pt x="1004" y="2851" on="1"/>
        <pt x="1297" y="2851" on="0"/>
        <pt x="1505" y="2796" on="1"/>
        <pt x="1902" y="2691" on="0"/>
        <pt x="2208" y="2691" on="1"/>
        <pt x="2352" y="2691" on="0"/>
        <pt x="2470" y="2779" on="0"/>
        <pt x="2521" y="2831" on="0"/>
        <pt x="2558" y="2867" on="0"/>
        <pt x="2586" y="2867" on="0"/>
        <pt x="2626" y="2830" on="0"/>
        <pt x="2626" y="2793" on="0"/>
        <pt x="2598" y="2737" on="1"/>
        <pt x="2503" y="2546" on="0"/>
        <pt x="2426" y="2167" on="0"/>
        <pt x="2375" y="1731" on="0"/>
        <pt x="2344" y="1364" on="0"/>
        <pt x="2324" y="1180" on="1"/>
        <pt x="2280" y="771" on="0"/>
        <pt x="2060" y="298" on="0"/>
        <pt x="1594" y="-94" on="0"/>
        <pt x="1266" y="-94" on="1"/>
        <pt x="956" y="-94" on="0"/>
        <pt x="735" y="82" on="1"/>
        <pt x="504" y="267" on="0"/>
        <pt x="504" y="586" on="1"/>
        <pt x="504" y="958" on="0"/>
        <pt x="834" y="1160" on="1"/>
        <pt x="1032" y="1282" on="0"/>
        <pt x="1290" y="1282" on="1"/>
        <pt x="1533" y="1282" on="0"/>
        <pt x="1641" y="1106" on="1"/>
        <pt x="1696" y="1016" on="0"/>
        <pt x="1696" y="810" on="0"/>
        <pt x="1579" y="664" on="0"/>
        <pt x="1437" y="664" on="0"/>
        <pt x="1356" y="735" on="0"/>
        <pt x="1356" y="803" on="0"/>
        <pt x="1389" y="803" on="1"/>
        <pt x="1462" y="786" on="1"/>
        <pt x="1513" y="786" on="0"/>
        <pt x="1581" y="877" on="0"/>
        <pt x="1581" y="975" on="0"/>
        <pt x="1551" y="1048" on="0"/>
        <pt x="1519" y="1084" on="1"/>
        <pt x="1447" y="1163" on="0"/>
        <pt x="1162" y="1163" on="0"/>
        <pt x="951" y="1059" on="0"/>
        <pt x="886" y="975" on="1"/>
        <pt x="750" y="801" on="0"/>
        <pt x="750" y="586" on="1"/>
        <pt x="750" y="327" on="0"/>
        <pt x="934" y="163" on="1"/>
        <pt x="1059" y="53" on="0"/>
        <pt x="1353" y="53" on="0"/>
        <pt x="1558" y="141" on="0"/>
        <pt x="1708" y="288" on="0"/>
        <pt x="1768" y="390" on="1"/>
        <pt x="1881" y="578" on="0"/>
        <pt x="2009" y="1254" on="0"/>
        <pt x="2134" y="1838" on="0"/>
        <pt x="2188" y="2034" on="1"/>
        <pt x="2270" y="2337" on="0"/>
        <pt x="2372" y="2597" on="1"/>
        <pt x="2172" y="2540" on="0"/>
        <pt x="1781" y="2540" on="0"/>
        <pt x="1198" y="2589" on="0"/>
        <pt x="957" y="2589" on="0"/>
        <pt x="756" y="2556" on="0"/>
        <pt x="569" y="2494" on="0"/>
        <pt x="407" y="2399" on="0"/>
        <pt x="346" y="2340" on="1"/>
        <pt x="217" y="2214" on="0"/>
        <pt x="217" y="2044" on="1"/>
        <pt x="217" y="1735" on="0"/>
        <pt x="483" y="1631" on="1"/>
        <pt x="557" y="1602" on="0"/>
        <pt x="711" y="1602" on="0"/>
        <pt x="840" y="1653" on="0"/>
        <pt x="921" y="1728" on="0"/>
        <pt x="950" y="1773" on="1"/>
        <pt x="1004" y="1857" on="0"/>
        <pt x="1004" y="1976" on="0"/>
        <pt x="952" y="2035" on="0"/>
        <pt x="921" y="2055" on="0"/>
        <pt x="910" y="2060" on="1"/>
        <pt x="881" y="2072" on="0"/>
      </contour>
    </TTGlyph>
    <TTGlyph name="Tbar" xMin="41" yMin="0" xMax="2507" yMax="2732">
      <contour>
        <pt x="1143" y="2417" on="1"/>
        <pt x="1147" y="2486" on="1"/>
        <pt x="1147" y="2525" on="0"/>
        <pt x="1071" y="2552" on="0"/>
        <pt x="971" y="2552" on="1"/>
        <pt x="459" y="2552" on="1"/>
        <pt x="311" y="2552" on="0"/>
        <pt x="270" y="2476" on="1"/>
        <pt x="237" y="2414" on="0"/>
        <pt x="189" y="2082" on="0"/>
        <pt x="188" y="2077" on="1"/>
        <pt x="41" y="2081" on="1"/>
        <pt x="111" y="2499" on="0"/>
        <pt x="143" y="2732" on="1"/>
        <pt x="2507" y="2732" on="1"/>
        <pt x="2424" y="2159" on="0"/>
        <pt x="2417" y="2085" on="1"/>
        <pt x="2269" y="2089" on="1"/>
        <pt x="2310" y="2371" on="0"/>
        <pt x="2310" y="2465" on="0"/>
        <pt x="2303" y="2503" on="0"/>
        <pt x="2282" y="2529" on="0"/>
        <pt x="2260" y="2543" on="0"/>
        <pt x="2235" y="2546" on="1"/>
        <pt x="2196" y="2552" on="0"/>
        <pt x="2126" y="2552" on="1"/>
        <pt x="1655" y="2552" on="1"/>
        <pt x="1494" y="2552" on="0"/>
        <pt x="1436" y="2523" on="0"/>
        <pt x="1430" y="2437" on="1"/>
        <pt x="1364" y="1442" on="1"/>
        <pt x="1974" y="1442" on="1"/>
        <pt x="1962" y="1282" on="1"/>
        <pt x="1352" y="1282" on="1"/>
        <pt x="1286" y="324" on="1"/>
        <pt x="1282" y="246" on="1"/>
        <pt x="1282" y="167" on="0"/>
        <pt x="1303" y="148" on="0"/>
        <pt x="1316" y="141" on="1"/>
        <pt x="1335" y="131" on="0"/>
        <pt x="1397" y="131" on="1"/>
        <pt x="1667" y="131" on="1"/>
        <pt x="1659" y="0" on="1"/>
        <pt x="606" y="0" on="1"/>
        <pt x="606" y="131" on="1"/>
        <pt x="823" y="131" on="1"/>
        <pt x="939" y="131" on="0"/>
        <pt x="985" y="175" on="0"/>
        <pt x="994" y="295" on="0"/>
        <pt x="995" y="303" on="1"/>
        <pt x="1065" y="1282" on="1"/>
        <pt x="459" y="1282" on="1"/>
        <pt x="471" y="1442" on="1"/>
        <pt x="1073" y="1442" on="1"/>
      </contour>
    </TTGlyph>
    <TTGlyph name="Tbar.001" xMin="8" yMin="0" xMax="2658" yMax="2904">
      <contour>
        <pt x="713" y="1892" on="1"/>
        <pt x="709" y="1929" on="1"/>
        <pt x="709" y="1947" on="0"/>
        <pt x="721" y="1955" on="1"/>
        <pt x="751" y="1975" on="0"/>
        <pt x="807" y="1881" on="0"/>
        <pt x="807" y="1750" on="0"/>
        <pt x="757" y="1655" on="0"/>
        <pt x="683" y="1599" on="0"/>
        <pt x="636" y="1580" on="1"/>
        <pt x="553" y="1548" on="0"/>
        <pt x="335" y="1548" on="0"/>
        <pt x="228" y="1626" on="1"/>
        <pt x="8" y="1785" on="0"/>
        <pt x="8" y="2122" on="1"/>
        <pt x="8" y="2327" on="0"/>
        <pt x="206" y="2673" on="0"/>
        <pt x="504" y="2818" on="0"/>
        <pt x="717" y="2818" on="1"/>
        <pt x="792" y="2818" on="0"/>
        <pt x="2252" y="2691" on="0"/>
        <pt x="2430" y="2691" on="0"/>
        <pt x="2468" y="2699" on="0"/>
        <pt x="2486" y="2710" on="1"/>
        <pt x="2523" y="2731" on="0"/>
        <pt x="2523" y="2802" on="1"/>
        <pt x="2519" y="2855" on="1"/>
        <pt x="2519" y="2904" on="0"/>
        <pt x="2606" y="2904" on="0"/>
        <pt x="2658" y="2814" on="0"/>
        <pt x="2658" y="2675" on="0"/>
        <pt x="2536" y="2532" on="0"/>
        <pt x="2424" y="2482" on="0"/>
        <pt x="2248" y="2482" on="0"/>
        <pt x="1623" y="2544" on="0"/>
        <pt x="1542" y="2544" on="0"/>
        <pt x="1514" y="2504" on="0"/>
        <pt x="1511" y="2437" on="1"/>
        <pt x="1446" y="1442" on="1"/>
        <pt x="2056" y="1442" on="1"/>
        <pt x="2044" y="1282" on="1"/>
        <pt x="1434" y="1282" on="1"/>
        <pt x="1368" y="324" on="1"/>
        <pt x="1364" y="246" on="1"/>
        <pt x="1364" y="167" on="0"/>
        <pt x="1385" y="148" on="0"/>
        <pt x="1398" y="141" on="1"/>
        <pt x="1417" y="131" on="0"/>
        <pt x="1479" y="131" on="1"/>
        <pt x="1749" y="131" on="1"/>
        <pt x="1741" y="0" on="1"/>
        <pt x="688" y="0" on="1"/>
        <pt x="688" y="131" on="1"/>
        <pt x="905" y="131" on="1"/>
        <pt x="1012" y="131" on="0"/>
        <pt x="1067" y="169" on="0"/>
        <pt x="1073" y="254" on="1"/>
        <pt x="1147" y="1282" on="1"/>
        <pt x="561" y="1282" on="1"/>
        <pt x="573" y="1442" on="1"/>
        <pt x="1155" y="1442" on="1"/>
        <pt x="1225" y="2417" on="1"/>
        <pt x="1225" y="2417" on="0"/>
        <pt x="1233" y="2511" on="1"/>
        <pt x="1233" y="2563" on="0"/>
        <pt x="1200" y="2568" on="1"/>
        <pt x="920" y="2609" on="0"/>
        <pt x="545" y="2609" on="1"/>
        <pt x="298" y="2609" on="0"/>
        <pt x="175" y="2385" on="1"/>
        <pt x="111" y="2268" on="0"/>
        <pt x="111" y="2085" on="0"/>
        <pt x="163" y="1947" on="0"/>
        <pt x="210" y="1888" on="1"/>
        <pt x="317" y="1757" on="0"/>
        <pt x="504" y="1757" on="1"/>
        <pt x="664" y="1757" on="0"/>
        <pt x="706" y="1860" on="1"/>
        <pt x="713" y="1878" on="0"/>
      </contour>
    </TTGlyph>
    <TTGlyph name="Tcaron" xMin="41" yMin="0" xMax="2507" yMax="3543">
      <component glyphName="uni030C.cap" x="2114" y="999" flags="0x1004"/>
      <component glyphName="T" x="0" y="0" flags="0x1004"/>
    </TTGlyph>
    <TTGlyph name="Tcaron.001" xMin="8" yMin="0" xMax="2658" yMax="3543">
      <component glyphName="uni030C.cap" x="2216" y="999" flags="0x1004"/>
      <component glyphName="T.001" x="0" y="0" flags="0x1004"/>
    </TTGlyph>
    <TTGlyph name="Tcaron.002" xMin="82" yMin="-94" xMax="2626" yMax="3543">
      <component glyphName="uni030C.cap" x="2408" y="999" flags="0x1004"/>
      <component glyphName="T.002" x="0" y="0" flags="0x1004"/>
    </TTGlyph>
    <TTGlyph name="Thorn" xMin="82" yMin="0" xMax="2150" yMax="2732">
      <contour>
        <pt x="373" y="319" on="1"/>
        <pt x="532" y="2494" on="1"/>
        <pt x="532" y="2567" on="0"/>
        <pt x="512" y="2582" on="1"/>
        <pt x="488" y="2601" on="0"/>
        <pt x="385" y="2601" on="1"/>
        <pt x="197" y="2601" on="1"/>
        <pt x="201" y="2732" on="1"/>
        <pt x="1135" y="2732" on="1"/>
        <pt x="1130" y="2601" on="1"/>
        <pt x="1056" y="2601" on="0"/>
        <pt x="965" y="2601" on="0"/>
        <pt x="911" y="2598" on="0"/>
        <pt x="892" y="2596" on="0"/>
        <pt x="857" y="2586" on="0"/>
        <pt x="849" y="2579" on="0"/>
        <pt x="830" y="2557" on="0"/>
        <pt x="828" y="2541" on="0"/>
        <pt x="819" y="2505" on="0"/>
        <pt x="817" y="2476" on="0"/>
        <pt x="815" y="2449" on="1"/>
        <pt x="795" y="2179" on="1"/>
        <pt x="1171" y="2179" on="1"/>
        <pt x="1652" y="2179" on="0"/>
        <pt x="2150" y="1821" on="0"/>
        <pt x="2150" y="1479" on="1"/>
        <pt x="2150" y="1003" on="0"/>
        <pt x="1693" y="736" on="1"/>
        <pt x="1415" y="573" on="0"/>
        <pt x="1065" y="573" on="1"/>
        <pt x="860" y="573" on="0"/>
        <pt x="684" y="610" on="1"/>
        <pt x="668" y="373" on="1"/>
        <pt x="666" y="337" on="0"/>
        <pt x="659" y="265" on="0"/>
        <pt x="659" y="222" on="0"/>
        <pt x="665" y="187" on="0"/>
        <pt x="675" y="162" on="0"/>
        <pt x="700" y="146" on="0"/>
        <pt x="723" y="136" on="0"/>
        <pt x="746" y="134" on="1"/>
        <pt x="782" y="131" on="0"/>
        <pt x="848" y="131" on="1"/>
        <pt x="1024" y="131" on="1"/>
        <pt x="1024" y="0" on="1"/>
        <pt x="82" y="0" on="1"/>
        <pt x="90" y="131" on="1"/>
        <pt x="225" y="131" on="1"/>
        <pt x="321" y="131" on="0"/>
        <pt x="351" y="167" on="0"/>
        <pt x="358" y="193" on="1"/>
        <pt x="368" y="229" on="0"/>
      </contour>
      <contour>
        <pt x="692" y="721" on="1"/>
        <pt x="824" y="705" on="0"/>
        <pt x="1091" y="705" on="0"/>
        <pt x="1341" y="764" on="0"/>
        <pt x="1514" y="861" on="0"/>
        <pt x="1649" y="992" on="0"/>
        <pt x="1728" y="1125" on="0"/>
        <pt x="1754" y="1197" on="1"/>
        <pt x="1798" y="1319" on="0"/>
        <pt x="1798" y="1523" on="0"/>
        <pt x="1758" y="1681" on="0"/>
        <pt x="1692" y="1797" on="0"/>
        <pt x="1592" y="1892" on="0"/>
        <pt x="1487" y="1955" on="0"/>
        <pt x="1352" y="2002" on="0"/>
        <pt x="1232" y="2028" on="0"/>
        <pt x="1160" y="2036" on="1"/>
        <pt x="1053" y="2048" on="0"/>
        <pt x="833" y="2048" on="0"/>
        <pt x="785" y="2018" on="0"/>
        <pt x="782" y="1958" on="1"/>
      </contour>
    </TTGlyph>
    <TTGlyph name="U" xMin="123" yMin="-90" xMax="2740" yMax="2732">
      <contour>
        <pt x="2036" y="-78" on="1"/>
        <pt x="1974" y="-78" on="0"/>
        <pt x="1974" y="12" on="1"/>
        <pt x="1974" y="28" on="0"/>
        <pt x="1976" y="60" on="1"/>
        <pt x="1984" y="254" on="0"/>
        <pt x="1991" y="438" on="1"/>
        <pt x="1964" y="360" on="0"/>
        <pt x="1888" y="252" on="1"/>
        <pt x="1649" y="-90" on="0"/>
        <pt x="1139" y="-90" on="1"/>
        <pt x="650" y="-90" on="0"/>
        <pt x="484" y="90" on="1"/>
        <pt x="397" y="184" on="0"/>
        <pt x="373" y="287" on="1"/>
        <pt x="336" y="453" on="0"/>
        <pt x="336" y="751" on="0"/>
        <pt x="467" y="2418" on="0"/>
        <pt x="467" y="2533" on="0"/>
        <pt x="448" y="2586" on="0"/>
        <pt x="404" y="2601" on="0"/>
        <pt x="348" y="2601" on="1"/>
        <pt x="123" y="2601" on="1"/>
        <pt x="127" y="2732" on="1"/>
        <pt x="1114" y="2732" on="1"/>
        <pt x="1106" y="2601" on="1"/>
        <pt x="913" y="2601" on="1"/>
        <pt x="800" y="2601" on="0"/>
        <pt x="783" y="2546" on="1"/>
        <pt x="775" y="2520" on="0"/>
        <pt x="770" y="2474" on="1"/>
        <pt x="639" y="831" on="0"/>
        <pt x="639" y="559" on="0"/>
        <pt x="665" y="412" on="0"/>
        <pt x="738" y="263" on="0"/>
        <pt x="796" y="210" on="1"/>
        <pt x="926" y="90" on="0"/>
        <pt x="1171" y="90" on="1"/>
        <pt x="1642" y="90" on="0"/>
        <pt x="1872" y="459" on="1"/>
        <pt x="1960" y="600" on="0"/>
        <pt x="2006" y="843" on="0"/>
        <pt x="2013" y="894" on="1"/>
        <pt x="2028" y="1005" on="0"/>
        <pt x="2028" y="1081" on="1"/>
        <pt x="2130" y="2400" on="1"/>
        <pt x="2134" y="2433" on="0"/>
        <pt x="2134" y="2567" on="0"/>
        <pt x="2075" y="2601" on="0"/>
        <pt x="1974" y="2601" on="1"/>
        <pt x="1765" y="2601" on="1"/>
        <pt x="1769" y="2732" on="1"/>
        <pt x="2740" y="2732" on="1"/>
        <pt x="2740" y="2601" on="1"/>
        <pt x="2560" y="2601" on="1"/>
        <pt x="2468" y="2601" on="0"/>
        <pt x="2449" y="2547" on="1"/>
        <pt x="2440" y="2521" on="0"/>
        <pt x="2395" y="1878" on="0"/>
        <pt x="2325" y="958" on="0"/>
        <pt x="2310" y="792" on="1"/>
        <pt x="2281" y="456" on="0"/>
        <pt x="2281" y="245" on="0"/>
        <pt x="2314" y="193" on="0"/>
        <pt x="2392" y="193" on="0"/>
        <pt x="2601" y="307" on="1"/>
        <pt x="2646" y="205" on="1"/>
        <pt x="2470" y="105" on="0"/>
        <pt x="2083" y="-78" on="0"/>
      </contour>
    </TTGlyph>
    <TTGlyph name="Uacute" xMin="123" yMin="-90" xMax="2740" yMax="3559">
      <component glyphName="acutecomb.cap" x="2277" y="999" flags="0x1004"/>
      <component glyphName="U" x="0" y="0" flags="0x1004"/>
    </TTGlyph>
    <TTGlyph name="Ubreve" xMin="123" yMin="-90" xMax="2740" yMax="3543">
      <component glyphName="uni0306.cap" x="2277" y="999" flags="0x1004"/>
      <component glyphName="U" x="0" y="0" flags="0x1004"/>
    </TTGlyph>
    <TTGlyph name="Ucircumflex" xMin="123" yMin="-90" xMax="2740" yMax="3543">
      <component glyphName="uni0302.cap" x="2277" y="999" flags="0x1004"/>
      <component glyphName="U" x="0" y="0" flags="0x1004"/>
    </TTGlyph>
    <TTGlyph name="Udieresis" xMin="123" yMin="-90" xMax="2740" yMax="3493">
      <contour>
        <pt x="2036" y="-78" on="1"/>
        <pt x="1974" y="-78" on="0"/>
        <pt x="1974" y="12" on="1"/>
        <pt x="1974" y="28" on="0"/>
        <pt x="1976" y="60" on="1"/>
        <pt x="1984" y="254" on="0"/>
        <pt x="1991" y="438" on="1"/>
        <pt x="1964" y="360" on="0"/>
        <pt x="1888" y="252" on="1"/>
        <pt x="1649" y="-90" on="0"/>
        <pt x="1139" y="-90" on="1"/>
        <pt x="650" y="-90" on="0"/>
        <pt x="484" y="90" on="1"/>
        <pt x="397" y="184" on="0"/>
        <pt x="373" y="287" on="1"/>
        <pt x="336" y="453" on="0"/>
        <pt x="336" y="751" on="0"/>
        <pt x="467" y="2418" on="0"/>
        <pt x="467" y="2533" on="0"/>
        <pt x="448" y="2586" on="0"/>
        <pt x="404" y="2601" on="0"/>
        <pt x="348" y="2601" on="1"/>
        <pt x="123" y="2601" on="1"/>
        <pt x="127" y="2732" on="1"/>
        <pt x="1114" y="2732" on="1"/>
        <pt x="1106" y="2601" on="1"/>
        <pt x="913" y="2601" on="1"/>
        <pt x="800" y="2601" on="0"/>
        <pt x="783" y="2546" on="1"/>
        <pt x="775" y="2520" on="0"/>
        <pt x="770" y="2474" on="1"/>
        <pt x="639" y="831" on="0"/>
        <pt x="639" y="559" on="0"/>
        <pt x="665" y="412" on="0"/>
        <pt x="738" y="263" on="0"/>
        <pt x="796" y="210" on="1"/>
        <pt x="926" y="90" on="0"/>
        <pt x="1171" y="90" on="1"/>
        <pt x="1642" y="90" on="0"/>
        <pt x="1872" y="459" on="1"/>
        <pt x="1960" y="600" on="0"/>
        <pt x="2006" y="843" on="0"/>
        <pt x="2013" y="894" on="1"/>
        <pt x="2028" y="1005" on="0"/>
        <pt x="2028" y="1081" on="1"/>
        <pt x="2130" y="2400" on="1"/>
        <pt x="2134" y="2433" on="0"/>
        <pt x="2134" y="2567" on="0"/>
        <pt x="2075" y="2601" on="0"/>
        <pt x="1974" y="2601" on="1"/>
        <pt x="1765" y="2601" on="1"/>
        <pt x="1769" y="2732" on="1"/>
        <pt x="2740" y="2732" on="1"/>
        <pt x="2740" y="2601" on="1"/>
        <pt x="2560" y="2601" on="1"/>
        <pt x="2468" y="2601" on="0"/>
        <pt x="2449" y="2547" on="1"/>
        <pt x="2440" y="2521" on="0"/>
        <pt x="2395" y="1878" on="0"/>
        <pt x="2325" y="958" on="0"/>
        <pt x="2310" y="792" on="1"/>
        <pt x="2281" y="456" on="0"/>
        <pt x="2281" y="245" on="0"/>
        <pt x="2314" y="193" on="0"/>
        <pt x="2392" y="193" on="0"/>
        <pt x="2601" y="307" on="1"/>
        <pt x="2646" y="205" on="1"/>
        <pt x="2470" y="105" on="0"/>
        <pt x="2083" y="-78" on="0"/>
      </contour>
      <contour>
        <pt x="1138" y="3137" on="0"/>
        <pt x="1007" y="3271" on="0"/>
        <pt x="1007" y="3361" on="0"/>
        <pt x="1153" y="3493" on="0"/>
        <pt x="1238" y="3493" on="0"/>
        <pt x="1355" y="3349" on="0"/>
        <pt x="1355" y="3262" on="0"/>
        <pt x="1217" y="3137" on="0"/>
      </contour>
      <contour>
        <pt x="1741" y="3137" on="0"/>
        <pt x="1610" y="3271" on="0"/>
        <pt x="1610" y="3361" on="0"/>
        <pt x="1753" y="3493" on="0"/>
        <pt x="1837" y="3493" on="0"/>
        <pt x="1958" y="3348" on="0"/>
        <pt x="1958" y="3262" on="0"/>
        <pt x="1820" y="3137" on="0"/>
      </contour>
    </TTGlyph>
    <TTGlyph name="Ugrave" xMin="123" yMin="-90" xMax="2740" yMax="3559">
      <component glyphName="gravecomb.cap" x="2277" y="999" flags="0x1004"/>
      <component glyphName="U" x="0" y="0" flags="0x1004"/>
    </TTGlyph>
    <TTGlyph name="Uhungarumlaut" xMin="123" yMin="-90" xMax="2740" yMax="3559">
      <component glyphName="uni030B.cap" x="2277" y="999" flags="0x1004"/>
      <component glyphName="U" x="0" y="0" flags="0x1004"/>
    </TTGlyph>
    <TTGlyph name="Umacron" xMin="123" yMin="-90" xMax="2740" yMax="3420">
      <component glyphName="uni0304.cap" x="2277" y="999" flags="0x1004"/>
      <component glyphName="U" x="0" y="0" flags="0x1004"/>
    </TTGlyph>
    <TTGlyph name="Uogonek" xMin="123" yMin="-1073" xMax="2740" yMax="2732">
      <contour>
        <pt x="1815" y="-598" on="1"/>
        <pt x="1815" y="-881" on="0"/>
        <pt x="2063" y="-881" on="1"/>
        <pt x="2198" y="-881" on="0"/>
        <pt x="2331" y="-758" on="1"/>
        <pt x="2367" y="-831" on="1"/>
        <pt x="2248" y="-980" on="0"/>
        <pt x="2047" y="-1047" on="1"/>
        <pt x="1969" y="-1073" on="0"/>
        <pt x="1892" y="-1073" on="1"/>
        <pt x="1716" y="-1073" on="0"/>
        <pt x="1528" y="-869" on="0"/>
        <pt x="1528" y="-713" on="1"/>
        <pt x="1528" y="-495" on="0"/>
        <pt x="1819" y="-181" on="1"/>
        <pt x="1922" y="-70" on="0"/>
        <pt x="1960" y="5" on="0"/>
        <pt x="1968" y="56" on="1"/>
        <pt x="1979" y="128" on="0"/>
        <pt x="1991" y="410" on="0"/>
        <pt x="1991" y="438" on="1"/>
        <pt x="1964" y="360" on="0"/>
        <pt x="1888" y="252" on="1"/>
        <pt x="1649" y="-90" on="0"/>
        <pt x="1139" y="-90" on="1"/>
        <pt x="650" y="-90" on="0"/>
        <pt x="484" y="90" on="1"/>
        <pt x="397" y="184" on="0"/>
        <pt x="373" y="287" on="1"/>
        <pt x="336" y="453" on="0"/>
        <pt x="336" y="751" on="0"/>
        <pt x="467" y="2418" on="0"/>
        <pt x="467" y="2533" on="0"/>
        <pt x="448" y="2586" on="0"/>
        <pt x="404" y="2601" on="0"/>
        <pt x="348" y="2601" on="1"/>
        <pt x="123" y="2601" on="1"/>
        <pt x="127" y="2732" on="1"/>
        <pt x="1114" y="2732" on="1"/>
        <pt x="1106" y="2601" on="1"/>
        <pt x="913" y="2601" on="1"/>
        <pt x="800" y="2601" on="0"/>
        <pt x="783" y="2546" on="1"/>
        <pt x="775" y="2520" on="0"/>
        <pt x="770" y="2474" on="1"/>
        <pt x="639" y="831" on="0"/>
        <pt x="639" y="559" on="0"/>
        <pt x="665" y="412" on="0"/>
        <pt x="738" y="263" on="0"/>
        <pt x="796" y="210" on="1"/>
        <pt x="926" y="90" on="0"/>
        <pt x="1171" y="90" on="1"/>
        <pt x="1642" y="90" on="0"/>
        <pt x="1872" y="459" on="1"/>
        <pt x="1960" y="600" on="0"/>
        <pt x="2006" y="843" on="0"/>
        <pt x="2013" y="894" on="1"/>
        <pt x="2028" y="1005" on="0"/>
        <pt x="2028" y="1081" on="1"/>
        <pt x="2130" y="2400" on="1"/>
        <pt x="2134" y="2433" on="0"/>
        <pt x="2134" y="2567" on="0"/>
        <pt x="2075" y="2601" on="0"/>
        <pt x="1974" y="2601" on="1"/>
        <pt x="1765" y="2601" on="1"/>
        <pt x="1769" y="2732" on="1"/>
        <pt x="2740" y="2732" on="1"/>
        <pt x="2740" y="2601" on="1"/>
        <pt x="2560" y="2601" on="1"/>
        <pt x="2468" y="2601" on="0"/>
        <pt x="2449" y="2547" on="1"/>
        <pt x="2440" y="2521" on="0"/>
        <pt x="2395" y="1878" on="0"/>
        <pt x="2325" y="958" on="0"/>
        <pt x="2310" y="792" on="1"/>
        <pt x="2281" y="456" on="0"/>
        <pt x="2281" y="245" on="0"/>
        <pt x="2314" y="193" on="0"/>
        <pt x="2392" y="193" on="0"/>
        <pt x="2601" y="307" on="1"/>
        <pt x="2646" y="205" on="1"/>
        <pt x="2449" y="94" on="0"/>
        <pt x="2192" y="-27" on="0"/>
        <pt x="2121" y="-70" on="0"/>
        <pt x="1952" y="-217" on="0"/>
        <pt x="1815" y="-486" on="0"/>
      </contour>
    </TTGlyph>
    <TTGlyph name="Uring" xMin="123" yMin="-90" xMax="2740" yMax="3584">
      <component glyphName="uni030A.cap" x="2277" y="999" flags="0x1004"/>
      <component glyphName="U" x="0" y="0" flags="0x1004"/>
    </TTGlyph>
    <TTGlyph name="Utilde" xMin="123" yMin="-90" xMax="2740" yMax="3543">
      <component glyphName="tildecomb.cap" x="2277" y="999" flags="0x1004"/>
      <component glyphName="U" x="0" y="0" flags="0x1004"/>
    </TTGlyph>
    <TTGlyph name="V" xMin="41" yMin="-61" xMax="2552" yMax="2732">
      <contour>
        <pt x="41" y="2601" on="1"/>
        <pt x="45" y="2732" on="1"/>
        <pt x="999" y="2732" on="1"/>
        <pt x="999" y="2601" on="1"/>
        <pt x="811" y="2601" on="1"/>
        <pt x="744" y="2601" on="0"/>
        <pt x="696" y="2581" on="0"/>
        <pt x="696" y="2528" on="0"/>
        <pt x="725" y="2408" on="1"/>
        <pt x="1217" y="467" on="1"/>
        <pt x="2056" y="2458" on="1"/>
        <pt x="2068" y="2483" on="0"/>
        <pt x="2068" y="2574" on="0"/>
        <pt x="1982" y="2601" on="0"/>
        <pt x="1876" y="2601" on="1"/>
        <pt x="1741" y="2601" on="1"/>
        <pt x="1741" y="2732" on="1"/>
        <pt x="2552" y="2732" on="1"/>
        <pt x="2544" y="2601" on="1"/>
        <pt x="2454" y="2601" on="1"/>
        <pt x="2353" y="2601" on="0"/>
        <pt x="2307" y="2538" on="1"/>
        <pt x="2267" y="2483" on="0"/>
        <pt x="2214" y="2358" on="0"/>
        <pt x="2167" y="2251" on="0"/>
        <pt x="2150" y="2212" on="1"/>
        <pt x="1139" y="-61" on="1"/>
        <pt x="1049" y="-61" on="1"/>
        <pt x="406" y="2335" on="1"/>
        <pt x="390" y="2393" on="0"/>
        <pt x="375" y="2452" on="0"/>
        <pt x="351" y="2521" on="0"/>
        <pt x="340" y="2549" on="0"/>
        <pt x="313" y="2583" on="0"/>
        <pt x="298" y="2590" on="0"/>
        <pt x="259" y="2601" on="0"/>
        <pt x="244" y="2601" on="1"/>
      </contour>
    </TTGlyph>
    <TTGlyph name="W" xMin="41" yMin="-61" xMax="4047" yMax="2732">
      <contour>
        <pt x="3555" y="2540" on="1"/>
        <pt x="3555" y="2601" on="0"/>
        <pt x="3445" y="2601" on="1"/>
        <pt x="3203" y="2601" on="1"/>
        <pt x="3203" y="2732" on="1"/>
        <pt x="4047" y="2732" on="1"/>
        <pt x="4039" y="2601" on="1"/>
        <pt x="3928" y="2601" on="1"/>
        <pt x="3828" y="2601" on="0"/>
        <pt x="3764" y="2532" on="0"/>
        <pt x="3647" y="2262" on="0"/>
        <pt x="3625" y="2212" on="1"/>
        <pt x="2630" y="-61" on="1"/>
        <pt x="2540" y="-61" on="1"/>
        <pt x="2015" y="1954" on="1"/>
        <pt x="1130" y="-61" on="1"/>
        <pt x="1040" y="-61" on="1"/>
        <pt x="397" y="2335" on="1"/>
        <pt x="381" y="2394" on="0"/>
        <pt x="366" y="2451" on="0"/>
        <pt x="342" y="2522" on="0"/>
        <pt x="331" y="2548" on="0"/>
        <pt x="304" y="2583" on="0"/>
        <pt x="289" y="2590" on="0"/>
        <pt x="251" y="2601" on="0"/>
        <pt x="236" y="2601" on="1"/>
        <pt x="41" y="2601" on="1"/>
        <pt x="45" y="2732" on="1"/>
        <pt x="1008" y="2732" on="1"/>
        <pt x="999" y="2601" on="1"/>
        <pt x="791" y="2601" on="1"/>
        <pt x="724" y="2601" on="0"/>
        <pt x="676" y="2581" on="0"/>
        <pt x="676" y="2528" on="0"/>
        <pt x="705" y="2408" on="1"/>
        <pt x="1208" y="467" on="1"/>
        <pt x="1946" y="2212" on="1"/>
        <pt x="1917" y="2339" on="1"/>
        <pt x="1874" y="2532" on="0"/>
        <pt x="1830" y="2568" on="1"/>
        <pt x="1794" y="2598" on="0"/>
        <pt x="1731" y="2601" on="0"/>
        <pt x="1704" y="2601" on="1"/>
        <pt x="1544" y="2601" on="1"/>
        <pt x="1548" y="2732" on="1"/>
        <pt x="2523" y="2732" on="1"/>
        <pt x="2515" y="2601" on="1"/>
        <pt x="2302" y="2601" on="1"/>
        <pt x="2235" y="2601" on="0"/>
        <pt x="2187" y="2581" on="0"/>
        <pt x="2187" y="2528" on="0"/>
        <pt x="2216" y="2408" on="1"/>
        <pt x="2707" y="467" on="1"/>
        <pt x="3523" y="2425" on="1"/>
        <pt x="3555" y="2507" on="0"/>
      </contour>
    </TTGlyph>
    <TTGlyph name="Wcircumflex" xMin="41" yMin="-61" xMax="4047" yMax="3543">
      <component glyphName="uni0302.cap" x="2834" y="999" flags="0x1004"/>
      <component glyphName="W" x="0" y="0" flags="0x1004"/>
    </TTGlyph>
    <TTGlyph name="X" xMin="61" yMin="9" xMax="2867" yMax="2777">
      <contour>
        <pt x="113" y="19" on="1"/>
        <pt x="61" y="79" on="0"/>
        <pt x="61" y="234" on="0"/>
        <pt x="145" y="344" on="0"/>
        <pt x="233" y="344" on="0"/>
        <pt x="246" y="317" on="0"/>
        <pt x="247" y="278" on="0"/>
        <pt x="250" y="259" on="1"/>
        <pt x="259" y="213" on="0"/>
        <pt x="422" y="213" on="0"/>
        <pt x="625" y="338" on="0"/>
        <pt x="819" y="537" on="0"/>
        <pt x="1015" y="778" on="0"/>
        <pt x="1097" y="898" on="1"/>
        <pt x="1271" y="1154" on="0"/>
        <pt x="1344" y="1280" on="1"/>
        <pt x="1380" y="1343" on="1"/>
        <pt x="1356" y="1395" on="0"/>
        <pt x="1269" y="1588" on="0"/>
        <pt x="1203" y="1731" on="0"/>
        <pt x="1109" y="1930" on="0"/>
        <pt x="1030" y="2080" on="0"/>
        <pt x="934" y="2248" on="0"/>
        <pt x="847" y="2367" on="0"/>
        <pt x="801" y="2418" on="1"/>
        <pt x="709" y="2519" on="0"/>
        <pt x="548" y="2519" on="0"/>
        <pt x="418" y="2361" on="0"/>
        <pt x="418" y="2094" on="0"/>
        <pt x="483" y="1966" on="1"/>
        <pt x="499" y="1935" on="0"/>
        <pt x="486" y="1884" on="0"/>
        <pt x="426" y="1884" on="0"/>
        <pt x="406" y="1921" on="1"/>
        <pt x="307" y="2089" on="0"/>
        <pt x="307" y="2415" on="0"/>
        <pt x="408" y="2640" on="0"/>
        <pt x="591" y="2773" on="0"/>
        <pt x="836" y="2773" on="0"/>
        <pt x="1105" y="2569" on="0"/>
        <pt x="1376" y="2087" on="0"/>
        <pt x="1581" y="1642" on="1"/>
        <pt x="1846" y="2078" on="0"/>
        <pt x="1983" y="2261" on="1"/>
        <pt x="2369" y="2777" on="0"/>
        <pt x="2683" y="2777" on="1"/>
        <pt x="2773" y="2777" on="0"/>
        <pt x="2867" y="2691" on="0"/>
        <pt x="2867" y="2577" on="0"/>
        <pt x="2791" y="2499" on="0"/>
        <pt x="2707" y="2499" on="0"/>
        <pt x="2686" y="2526" on="0"/>
        <pt x="2680" y="2542" on="1"/>
        <pt x="2666" y="2585" on="0"/>
        <pt x="2547" y="2585" on="0"/>
        <pt x="2375" y="2463" on="0"/>
        <pt x="2199" y="2268" on="0"/>
        <pt x="2015" y="2032" on="0"/>
        <pt x="1935" y="1914" on="1"/>
        <pt x="1763" y="1660" on="0"/>
        <pt x="1692" y="1540" on="1"/>
        <pt x="1655" y="1479" on="1"/>
        <pt x="2047" y="653" on="0"/>
        <pt x="2187" y="385" on="1"/>
        <pt x="2281" y="209" on="0"/>
        <pt x="2380" y="209" on="1"/>
        <pt x="2446" y="209" on="0"/>
        <pt x="2508" y="290" on="1"/>
        <pt x="2573" y="375" on="0"/>
        <pt x="2598" y="488" on="0"/>
        <pt x="2600" y="493" on="0"/>
        <pt x="2606" y="516" on="0"/>
        <pt x="2610" y="523" on="0"/>
        <pt x="2619" y="541" on="0"/>
        <pt x="2628" y="548" on="0"/>
        <pt x="2634" y="552" on="1"/>
        <pt x="2647" y="561" on="0"/>
        <pt x="2666" y="561" on="1"/>
        <pt x="2720" y="561" on="0"/>
        <pt x="2715" y="347" on="0"/>
        <pt x="2636" y="162" on="0"/>
        <pt x="2530" y="59" on="0"/>
        <pt x="2466" y="24" on="1"/>
        <pt x="2218" y="-109" on="0"/>
        <pt x="2041" y="61" on="1"/>
        <pt x="1945" y="154" on="0"/>
        <pt x="1756" y="528" on="0"/>
        <pt x="1511" y="1057" on="0"/>
        <pt x="1458" y="1171" on="1"/>
        <pt x="943" y="206" on="0"/>
        <pt x="482" y="10" on="1"/>
        <pt x="218" y="-103" on="0"/>
      </contour>
    </TTGlyph>
    <TTGlyph name="Y" xMin="41" yMin="0" xMax="2343" yMax="2732">
      <contour>
        <pt x="1167" y="319" on="1"/>
        <pt x="1163" y="217" on="1"/>
        <pt x="1163" y="161" on="0"/>
        <pt x="1194" y="148" on="1"/>
        <pt x="1236" y="131" on="0"/>
        <pt x="1303" y="131" on="1"/>
        <pt x="1511" y="131" on="1"/>
        <pt x="1507" y="0" on="1"/>
        <pt x="442" y="0" on="1"/>
        <pt x="451" y="131" on="1"/>
        <pt x="635" y="131" on="1"/>
        <pt x="761" y="131" on="0"/>
        <pt x="835" y="194" on="0"/>
        <pt x="844" y="311" on="1"/>
        <pt x="913" y="1303" on="1"/>
        <pt x="340" y="2462" on="1"/>
        <pt x="295" y="2553" on="0"/>
        <pt x="227" y="2601" on="0"/>
        <pt x="147" y="2601" on="1"/>
        <pt x="41" y="2601" on="1"/>
        <pt x="45" y="2732" on="1"/>
        <pt x="946" y="2732" on="1"/>
        <pt x="934" y="2601" on="1"/>
        <pt x="815" y="2601" on="1"/>
        <pt x="739" y="2601" on="0"/>
        <pt x="676" y="2578" on="0"/>
        <pt x="676" y="2490" on="0"/>
        <pt x="788" y="2255" on="0"/>
        <pt x="791" y="2248" on="0"/>
        <pt x="797" y="2237" on="0"/>
        <pt x="799" y="2232" on="1"/>
        <pt x="1163" y="1487" on="1"/>
        <pt x="1737" y="2421" on="1"/>
        <pt x="1790" y="2506" on="0"/>
        <pt x="1790" y="2582" on="0"/>
        <pt x="1724" y="2601" on="0"/>
        <pt x="1647" y="2601" on="1"/>
        <pt x="1544" y="2601" on="1"/>
        <pt x="1544" y="2732" on="1"/>
        <pt x="2343" y="2732" on="1"/>
        <pt x="2339" y="2601" on="1"/>
        <pt x="2212" y="2601" on="1"/>
        <pt x="2134" y="2601" on="0"/>
        <pt x="2086" y="2564" on="1"/>
        <pt x="2016" y="2509" on="0"/>
        <pt x="1872" y="2294" on="1"/>
        <pt x="1233" y="1319" on="1"/>
      </contour>
    </TTGlyph>
    <TTGlyph name="Yacute" xMin="41" yMin="0" xMax="2343" yMax="3559">
      <component glyphName="acutecomb.cap" x="2052" y="999" flags="0x1004"/>
      <component glyphName="Y" x="0" y="0" flags="0x1004"/>
    </TTGlyph>
    <TTGlyph name="Ycircumflex" xMin="41" yMin="0" xMax="2343" yMax="3543">
      <component glyphName="uni0302.cap" x="2052" y="999" flags="0x1004"/>
      <component glyphName="Y" x="0" y="0" flags="0x1004"/>
    </TTGlyph>
    <TTGlyph name="Ydieresis" xMin="41" yMin="0" xMax="2343" yMax="3493">
      <component glyphName="uni0308.cap" x="2052" y="999" flags="0x1004"/>
      <component glyphName="Y" x="0" y="0" flags="0x1004"/>
    </TTGlyph>
</ttFont>
